ISO-10303-21;
HEADER;
/* Generated by software containing ST-Developer
 * from STEP Tools, Inc. (www.steptools.com) 
 */

FILE_DESCRIPTION(
/* description */ (''),
/* implementation_level */ '2;1');

FILE_NAME(
/* name */ 'button.step',
/* time_stamp */ '2026-09-22T16:40:03+03:00',
/* author */ (''),
/* organization */ (''),
/* preprocessor_version */ 'ST-DEVELOPER v20.2',
/* originating_system */ 'Autodesk Translation Framework v15.15.0.0',
/* authorisation */ '');

FILE_SCHEMA (('AUTOMOTIVE_DESIGN { 1 0 10303 214 3 1 1 }'));
ENDSEC;

DATA;
#10=MECHANICAL_DESIGN_GEOMETRIC_PRESENTATION_REPRESENTATION('',(#13),#131);
#11=SHAPE_REPRESENTATION_RELATIONSHIP('SRR','None',#138,#12);
#12=ADVANCED_BREP_SHAPE_REPRESENTATION('',(#14),#130);
#13=STYLED_ITEM('',(#148),#14);
#14=MANIFOLD_SOLID_BREP('Body1',#67);
#15=FACE_BOUND('',#26,.T.);
#16=PLANE('',#84);
#17=PLANE('',#86);
#18=PLANE('',#89);
#19=FACE_OUTER_BOUND('',#24,.T.);
#20=FACE_OUTER_BOUND('',#25,.T.);
#21=FACE_OUTER_BOUND('',#27,.T.);
#22=FACE_OUTER_BOUND('',#28,.T.);
#23=FACE_OUTER_BOUND('',#29,.T.);
#24=EDGE_LOOP('',(#48,#49,#50,#51));
#25=EDGE_LOOP('',(#52));
#26=EDGE_LOOP('',(#53));
#27=EDGE_LOOP('',(#54));
#28=EDGE_LOOP('',(#55,#56,#57,#58));
#29=EDGE_LOOP('',(#59));
#30=LINE('',#117,#32);
#31=LINE('',#126,#33);
#32=VECTOR('',#96,3.3);
#33=VECTOR('',#109,2.);
#34=CIRCLE('',#82,3.3);
#35=CIRCLE('',#83,3.3);
#36=CIRCLE('',#85,2.);
#37=CIRCLE('',#87,2.);
#38=VERTEX_POINT('',#114);
#39=VERTEX_POINT('',#116);
#40=VERTEX_POINT('',#120);
#41=VERTEX_POINT('',#123);
#42=EDGE_CURVE('',#38,#38,#34,.T.);
#43=EDGE_CURVE('',#38,#39,#30,.T.);
#44=EDGE_CURVE('',#39,#39,#35,.T.);
#45=EDGE_CURVE('',#40,#40,#36,.T.);
#46=EDGE_CURVE('',#41,#41,#37,.T.);
#47=EDGE_CURVE('',#40,#41,#31,.T.);
#48=ORIENTED_EDGE('',*,*,#42,.F.);
#49=ORIENTED_EDGE('',*,*,#43,.T.);
#50=ORIENTED_EDGE('',*,*,#44,.T.);
#51=ORIENTED_EDGE('',*,*,#43,.F.);
#52=ORIENTED_EDGE('',*,*,#42,.T.);
#53=ORIENTED_EDGE('',*,*,#45,.F.);
#54=ORIENTED_EDGE('',*,*,#46,.T.);
#55=ORIENTED_EDGE('',*,*,#45,.T.);
#56=ORIENTED_EDGE('',*,*,#47,.T.);
#57=ORIENTED_EDGE('',*,*,#46,.F.);
#58=ORIENTED_EDGE('',*,*,#47,.F.);
#59=ORIENTED_EDGE('',*,*,#44,.F.);
#60=CYLINDRICAL_SURFACE('',#81,3.3);
#61=CYLINDRICAL_SURFACE('',#88,2.);
#62=ADVANCED_FACE('',(#19),#60,.T.);
#63=ADVANCED_FACE('',(#20,#15),#16,.F.);
#64=ADVANCED_FACE('',(#21),#17,.T.);
#65=ADVANCED_FACE('',(#22),#61,.T.);
#66=ADVANCED_FACE('',(#23),#18,.F.);
#67=CLOSED_SHELL('',(#62,#63,#64,#65,#66));
#68=DERIVED_UNIT_ELEMENT(#70,1.);
#69=DERIVED_UNIT_ELEMENT(#133,-3.);
#70=(
MASS_UNIT()
NAMED_UNIT(*)
SI_UNIT(.KILO.,.GRAM.)
);
#71=DERIVED_UNIT((#68,#69));
#72=MEASURE_REPRESENTATION_ITEM('density measure',
POSITIVE_RATIO_MEASURE(7850.),#71);
#73=PROPERTY_DEFINITION_REPRESENTATION(#78,#75);
#74=PROPERTY_DEFINITION_REPRESENTATION(#79,#76);
#75=REPRESENTATION('material name',(#77),#130);
#76=REPRESENTATION('density',(#72),#130);
#77=DESCRIPTIVE_REPRESENTATION_ITEM('Steel','Steel');
#78=PROPERTY_DEFINITION('material property','material name',#140);
#79=PROPERTY_DEFINITION('material property','density of part',#140);
#80=AXIS2_PLACEMENT_3D('',#112,#90,#91);
#81=AXIS2_PLACEMENT_3D('',#113,#92,#93);
#82=AXIS2_PLACEMENT_3D('',#115,#94,#95);
#83=AXIS2_PLACEMENT_3D('',#118,#97,#98);
#84=AXIS2_PLACEMENT_3D('',#119,#99,#100);
#85=AXIS2_PLACEMENT_3D('',#121,#101,#102);
#86=AXIS2_PLACEMENT_3D('',#122,#103,#104);
#87=AXIS2_PLACEMENT_3D('',#124,#105,#106);
#88=AXIS2_PLACEMENT_3D('',#125,#107,#108);
#89=AXIS2_PLACEMENT_3D('',#127,#110,#111);
#90=DIRECTION('axis',(0.,0.,1.));
#91=DIRECTION('refdir',(1.,0.,0.));
#92=DIRECTION('center_axis',(-4.44089209850062E-16,0.,1.));
#93=DIRECTION('ref_axis',(0.,1.,0.));
#94=DIRECTION('center_axis',(-4.44089209850062E-16,0.,1.));
#95=DIRECTION('ref_axis',(0.,1.,0.));
#96=DIRECTION('',(4.44089209850062E-16,0.,-1.));
#97=DIRECTION('center_axis',(-4.44089209850062E-16,0.,1.));
#98=DIRECTION('ref_axis',(0.,1.,0.));
#99=DIRECTION('center_axis',(4.44089209850062E-16,0.,-1.));
#100=DIRECTION('ref_axis',(-1.,0.,-4.44089209850062E-16));
#101=DIRECTION('center_axis',(-4.44089209850062E-16,0.,1.));
#102=DIRECTION('ref_axis',(0.,1.,0.));
#103=DIRECTION('center_axis',(-4.44089209850062E-16,0.,1.));
#104=DIRECTION('ref_axis',(0.,1.,0.));
#105=DIRECTION('center_axis',(-4.44089209850062E-16,0.,1.));
#106=DIRECTION('ref_axis',(0.,1.,0.));
#107=DIRECTION('center_axis',(4.44089209850062E-16,0.,-1.));
#108=DIRECTION('ref_axis',(0.,1.,0.));
#109=DIRECTION('',(-4.44089209850062E-16,0.,1.));
#110=DIRECTION('center_axis',(-4.44089209850062E-16,0.,1.));
#111=DIRECTION('ref_axis',(0.,1.,0.));
#112=CARTESIAN_POINT('',(0.,0.,0.));
#113=CARTESIAN_POINT('Origin',(23.49089457434,0.00988448553800314,0.0302549378153572));
#114=CARTESIAN_POINT('',(23.49089457434,-3.290115514462,1.03025493781536));
#115=CARTESIAN_POINT('Origin',(23.49089457434,0.00988448553800314,1.03025493781536));
#116=CARTESIAN_POINT('',(23.49089457434,-3.290115514462,0.0302549378153572));
#117=CARTESIAN_POINT('',(23.49089457434,-3.290115514462,0.0302549378153572));
#118=CARTESIAN_POINT('Origin',(23.49089457434,0.00988448553800314,0.0302549378153572));
#119=CARTESIAN_POINT('Origin',(23.49089457434,0.00988448553800314,1.03025493781536));
#120=CARTESIAN_POINT('',(23.49089457434,-1.990115514462,1.03025493781536));
#121=CARTESIAN_POINT('Origin',(23.49089457434,0.00988448553800314,1.03025493781536));
#122=CARTESIAN_POINT('Origin',(23.6508945296365,26.5098848431659,6.03025493781536));
#123=CARTESIAN_POINT('',(23.49089457434,-1.990115514462,6.03025493781536));
#124=CARTESIAN_POINT('Origin',(23.49089457434,0.00988448553800314,6.03025493781536));
#125=CARTESIAN_POINT('Origin',(23.49089457434,0.00988448553800314,5.03025493781536));
#126=CARTESIAN_POINT('',(23.49089457434,-1.990115514462,5.03025493781536));
#127=CARTESIAN_POINT('Origin',(23.6508945296365,26.5098848431659,0.0302549378153572));
#128=UNCERTAINTY_MEASURE_WITH_UNIT(LENGTH_MEASURE(0.01),#132,
'DISTANCE_ACCURACY_VALUE',
'Maximum model space distance between geometric entities at asserted c
onnectivities');
#129=UNCERTAINTY_MEASURE_WITH_UNIT(LENGTH_MEASURE(0.01),#132,
'DISTANCE_ACCURACY_VALUE',
'Maximum model space distance between geometric entities at asserted c
onnectivities');
#130=(
GEOMETRIC_REPRESENTATION_CONTEXT(3)
GLOBAL_UNCERTAINTY_ASSIGNED_CONTEXT((#128))
GLOBAL_UNIT_ASSIGNED_CONTEXT((#132,#134,#135))
REPRESENTATION_CONTEXT('','3D')
);
#131=(
GEOMETRIC_REPRESENTATION_CONTEXT(3)
GLOBAL_UNCERTAINTY_ASSIGNED_CONTEXT((#129))
GLOBAL_UNIT_ASSIGNED_CONTEXT((#132,#134,#135))
REPRESENTATION_CONTEXT('','3D')
);
#132=(
LENGTH_UNIT()
NAMED_UNIT(*)
SI_UNIT(.MILLI.,.METRE.)
);
#133=(
LENGTH_UNIT()
NAMED_UNIT(*)
SI_UNIT($,.METRE.)
);
#134=(
NAMED_UNIT(*)
PLANE_ANGLE_UNIT()
SI_UNIT($,.RADIAN.)
);
#135=(
NAMED_UNIT(*)
SI_UNIT($,.STERADIAN.)
SOLID_ANGLE_UNIT()
);
#136=SHAPE_DEFINITION_REPRESENTATION(#137,#138);
#137=PRODUCT_DEFINITION_SHAPE('',$,#140);
#138=SHAPE_REPRESENTATION('',(#80),#130);
#139=PRODUCT_DEFINITION_CONTEXT('part definition',#144,'design');
#140=PRODUCT_DEFINITION('bike trip computer','(Unsaved)',#141,#139);
#141=PRODUCT_DEFINITION_FORMATION('',$,#146);
#142=PRODUCT_RELATED_PRODUCT_CATEGORY('(Unsaved)','(Unsaved)',(#146));
#143=APPLICATION_PROTOCOL_DEFINITION('international standard',
'automotive_design',2009,#144);
#144=APPLICATION_CONTEXT(
'Core Data for Automotive Mechanical Design Process');
#145=PRODUCT_CONTEXT('part definition',#144,'mechanical');
#146=PRODUCT('bike trip computer','(Unsaved)',$,(#145));
#147=PRESENTATION_STYLE_ASSIGNMENT((#149));
#148=PRESENTATION_STYLE_ASSIGNMENT((#150));
#149=SURFACE_STYLE_USAGE(.BOTH.,#151);
#150=SURFACE_STYLE_USAGE(.BOTH.,#152);
#151=SURFACE_SIDE_STYLE('',(#153));
#152=SURFACE_SIDE_STYLE('',(#154));
#153=SURFACE_STYLE_FILL_AREA(#155);
#154=SURFACE_STYLE_FILL_AREA(#156);
#155=FILL_AREA_STYLE('Steel - Satin',(#157));
#156=FILL_AREA_STYLE('Opaque(160,160,160)',(#158));
#157=FILL_AREA_STYLE_COLOUR('Steel - Satin',#159);
#158=FILL_AREA_STYLE_COLOUR('Opaque(160,160,160)',#160);
#159=COLOUR_RGB('Steel - Satin',0.627450980392157,0.627450980392157,0.627450980392157);
#160=COLOUR_RGB('Opaque(160,160,160)',0.627450980392157,0.627450980392157,
0.627450980392157);
ENDSEC;
END-ISO-10303-21;
