ISO-10303-21;
HEADER;
/* Generated by software containing ST-Developer
 * from STEP Tools, Inc. (www.steptools.com) 
 */

FILE_DESCRIPTION(
/* description */ (''),
/* implementation_level */ '2;1');

FILE_NAME(
/* name */ 'handlebar mount.step',
/* time_stamp */ '2026-09-06T18:04:48+03:00',
/* author */ (''),
/* organization */ (''),
/* preprocessor_version */ 'ST-DEVELOPER v20.1',
/* originating_system */ 'Autodesk Translation Framework v15.8.0.0',
/* authorisation */ '');

FILE_SCHEMA (('AUTOMOTIVE_DESIGN { 1 0 10303 214 3 1 1 }'));
ENDSEC;

DATA;
#10=MECHANICAL_DESIGN_GEOMETRIC_PRESENTATION_REPRESENTATION('',(#13),#1613);
#11=SHAPE_REPRESENTATION_RELATIONSHIP('SRR','None',#1620,#12);
#12=ADVANCED_BREP_SHAPE_REPRESENTATION('',(#14),#1612);
#13=STYLED_ITEM('',(#1629),#14);
#14=MANIFOLD_SOLID_BREP('Body132',#834);
#15=(
BOUNDED_SURFACE()
B_SPLINE_SURFACE(5,1,((#1364,#1365),(#1366,#1367),(#1368,#1369),(#1370,
#1371),(#1372,#1373),(#1374,#1375),(#1376,#1377),(#1378,#1379),(#1380,#1381),
(#1382,#1383),(#1384,#1385),(#1386,#1387),(#1388,#1389),(#1390,#1391),(#1392,
#1393),(#1394,#1395),(#1396,#1397),(#1398,#1399),(#1400,#1401),(#1402,#1403),
(#1404,#1405),(#1406,#1407),(#1408,#1409),(#1410,#1411)),.UNSPECIFIED.,
 .F.,.F.,.F.)
B_SPLINE_SURFACE_WITH_KNOTS((6,1,1,1,1,1,1,1,1,1,1,1,1,1,1,1,1,1,1,6),(2,
2),(-0.909829098697067,-0.9,-0.85,-0.8,-0.75,-0.7,-0.65,-0.6,-0.55,-0.5,
-0.45,-0.4,-0.35,-0.3,-0.25,-0.2,-0.15,-0.1,-0.05,0.),(0.,1.2),
 .UNSPECIFIED.)
GEOMETRIC_REPRESENTATION_ITEM()
RATIONAL_B_SPLINE_SURFACE(((1.,1.),(1.,1.),(1.,1.),(1.,1.),(1.,1.),(1.,
1.),(1.,1.),(1.,1.),(1.,1.),(1.,1.),(1.,1.),(1.,1.),(1.,1.),(1.,1.),(1.,
1.),(1.,1.),(1.,1.),(1.,1.),(1.,1.),(1.,1.),(1.,1.),(1.,1.),(1.,1.),(1.,
1.)))
REPRESENTATION_ITEM('')
SURFACE()
);
#16=(
BOUNDED_CURVE()
B_SPLINE_CURVE(5,(#1335,#1336,#1337,#1338,#1339,#1340,#1341,#1342,#1343,
#1344,#1345,#1346,#1347,#1348,#1349,#1350,#1351,#1352,#1353,#1354,#1355,
#1356,#1357,#1358),.UNSPECIFIED.,.F.,.F.)
B_SPLINE_CURVE_WITH_KNOTS((6,1,1,1,1,1,1,1,1,1,1,1,1,1,1,1,1,1,1,6),(-0.909829098697067,
-0.9,-0.85,-0.8,-0.75,-0.7,-0.65,-0.6,-0.55,-0.5,-0.45,-0.4,-0.35,-0.3,
-0.25,-0.2,-0.15,-0.1,-0.05,0.),.UNSPECIFIED.)
CURVE()
GEOMETRIC_REPRESENTATION_ITEM()
RATIONAL_B_SPLINE_CURVE((1.,1.,1.,1.,1.,1.,1.,1.,1.,1.,1.,1.,1.,1.,1.,1.,
1.,1.,1.,1.,1.,1.,1.,1.))
REPRESENTATION_ITEM('')
);
#17=(
BOUNDED_CURVE()
B_SPLINE_CURVE(5,(#1413,#1414,#1415,#1416,#1417,#1418,#1419,#1420,#1421,
#1422,#1423,#1424,#1425,#1426,#1427,#1428,#1429,#1430,#1431,#1432,#1433,
#1434,#1435,#1436),.UNSPECIFIED.,.F.,.F.)
B_SPLINE_CURVE_WITH_KNOTS((6,1,1,1,1,1,1,1,1,1,1,1,1,1,1,1,1,1,1,6),(0.,
0.05,0.1,0.15,0.2,0.25,0.3,0.35,0.4,0.45,0.5,0.55,0.6,0.65,0.7,0.75,0.8,
0.85,0.9,0.909829098697069),.UNSPECIFIED.)
CURVE()
GEOMETRIC_REPRESENTATION_ITEM()
RATIONAL_B_SPLINE_CURVE((1.,1.,1.,1.,1.,1.,1.,1.,1.,1.,1.,1.,1.,1.,1.,1.,
1.,1.,1.,1.,1.,1.,1.,1.))
REPRESENTATION_ITEM('')
);
#18=CYLINDRICAL_SURFACE('',#854,15.);
#19=CYLINDRICAL_SURFACE('',#857,2.8);
#20=CYLINDRICAL_SURFACE('',#870,20.5);
#21=CYLINDRICAL_SURFACE('',#879,1.);
#22=CYLINDRICAL_SURFACE('',#881,1.);
#23=CYLINDRICAL_SURFACE('',#883,1.);
#24=CYLINDRICAL_SURFACE('',#887,10.5);
#25=CYLINDRICAL_SURFACE('',#889,16.5);
#26=CYLINDRICAL_SURFACE('',#891,10.);
#27=CYLINDRICAL_SURFACE('',#896,1.);
#28=CYLINDRICAL_SURFACE('',#898,20.5);
#29=CYLINDRICAL_SURFACE('',#901,0.3);
#30=CYLINDRICAL_SURFACE('',#904,0.3);
#31=CYLINDRICAL_SURFACE('',#907,0.3);
#32=CYLINDRICAL_SURFACE('',#910,0.3);
#33=CYLINDRICAL_SURFACE('',#913,0.3);
#34=CYLINDRICAL_SURFACE('',#916,0.3);
#35=CYLINDRICAL_SURFACE('',#928,2.8);
#36=CYLINDRICAL_SURFACE('',#929,3.);
#37=B_SPLINE_CURVE_WITH_KNOTS('',3,(#1213,#1214,#1215,#1216,#1217,#1218),
 .UNSPECIFIED.,.F.,.F.,(4,1,1,4),(5.4362113750881,6.16218903116652,6.6461741352188,
7.13015923927107),.UNSPECIFIED.);
#38=B_SPLINE_CURVE_WITH_KNOTS('',3,(#1219,#1220,#1221,#1222,#1223,#1224),
 .UNSPECIFIED.,.F.,.F.,(4,1,1,4),(-7.13015923927107,-6.6461741352188,-6.16218903116652,
-5.4362113750881),.UNSPECIFIED.);
#39=B_SPLINE_CURVE_WITH_KNOTS('',3,(#1267,#1268,#1269,#1270,#1271,#1272,
#1273,#1274,#1275,#1276,#1277,#1278,#1279),.UNSPECIFIED.,.F.,.F.,(4,3,3,
3,4),(0.,0.387682338472688,0.581523507709031,0.969205846181719,1.35688818465441),
 .UNSPECIFIED.);
#40=B_SPLINE_CURVE_WITH_KNOTS('',3,(#1281,#1282,#1283,#1284),
 .UNSPECIFIED.,.F.,.F.,(4,4),(-1.2,4.61429962674333E-16),.UNSPECIFIED.);
#41=B_SPLINE_CURVE_WITH_KNOTS('',3,(#1286,#1287,#1288,#1289,#1290,#1291,
#1292,#1293,#1294,#1295,#1296,#1297,#1298),.UNSPECIFIED.,.F.,.F.,(4,3,3,
3,4),(5.55111512312578E-17,0.208868071632964,0.417736143265928,0.52217017908241,
0.731038250715374),.UNSPECIFIED.);
#42=B_SPLINE_CURVE_WITH_KNOTS('',3,(#1299,#1300,#1301,#1302),
 .UNSPECIFIED.,.F.,.F.,(4,4),(-4.61429962674333E-16,1.2),.UNSPECIFIED.);
#43=B_SPLINE_CURVE_WITH_KNOTS('',3,(#1476,#1477,#1478,#1479,#1480,#1481),
 .UNSPECIFIED.,.F.,.F.,(4,2,4),(0.618973260495699,0.751787835932951,0.884602411370204),
 .UNSPECIFIED.);
#44=B_SPLINE_CURVE_WITH_KNOTS('',3,(#1519,#1520,#1521,#1522,#1523,#1524,
#1525,#1526,#1527,#1528),.UNSPECIFIED.,.F.,.F.,(4,2,2,2,4),(0.761162731316131,
0.814315203095082,0.927536139410055,1.04075707572503,1.09390954750398),
 .UNSPECIFIED.);
#45=B_SPLINE_SURFACE_WITH_KNOTS('',3,3,((#1189,#1190,#1191,#1192,#1193,
#1194),(#1195,#1196,#1197,#1198,#1199,#1200),(#1201,#1202,#1203,#1204,#1205,
#1206),(#1207,#1208,#1209,#1210,#1211,#1212)),.UNSPECIFIED.,.F.,.F.,.F.,
(4,4),(4,1,1,4),(0.,1.),(-7.13015923927107,-6.6461741352188,-6.16218903116652,
-5.4362113750881),.UNSPECIFIED.);
#46=B_SPLINE_SURFACE_WITH_KNOTS('',3,3,((#1237,#1238,#1239,#1240),(#1241,
#1242,#1243,#1244),(#1245,#1246,#1247,#1248),(#1249,#1250,#1251,#1252),
(#1253,#1254,#1255,#1256),(#1257,#1258,#1259,#1260),(#1261,#1262,#1263,
#1264)),.UNSPECIFIED.,.F.,.F.,.F.,(4,1,1,1,4),(4,4),(0.,0.285714285714286,
0.571428571428571,0.714285714285714,1.),(-4.61429962674333E-16,1.2),
 .UNSPECIFIED.);
#47=CONICAL_SURFACE('',#850,3.9,0.785398163397447);
#48=CONICAL_SURFACE('',#926,3.9,0.785398163397449);
#49=FACE_BOUND('',#139,.T.);
#50=FACE_BOUND('',#151,.T.);
#51=FACE_BOUND('',#156,.T.);
#52=FACE_BOUND('',#177,.T.);
#53=CIRCLE('',#849,2.8);
#54=CIRCLE('',#851,2.8);
#55=CIRCLE('',#852,2.8);
#56=CIRCLE('',#853,5.00000000000001);
#57=CIRCLE('',#855,15.);
#58=CIRCLE('',#856,15.);
#59=CIRCLE('',#859,20.5);
#60=CIRCLE('',#860,1.);
#61=CIRCLE('',#861,1.);
#62=CIRCLE('',#862,10.5);
#63=CIRCLE('',#863,16.5);
#64=CIRCLE('',#864,10.);
#65=CIRCLE('',#865,1.);
#66=CIRCLE('',#866,1.);
#67=CIRCLE('',#867,20.5);
#68=CIRCLE('',#871,20.5);
#69=CIRCLE('',#873,0.3);
#70=CIRCLE('',#874,0.3);
#71=CIRCLE('',#875,0.3);
#72=CIRCLE('',#876,0.3);
#73=CIRCLE('',#877,0.3);
#74=CIRCLE('',#878,0.3);
#75=CIRCLE('',#880,1.);
#76=CIRCLE('',#882,1.);
#77=CIRCLE('',#884,1.);
#78=CIRCLE('',#886,2.8);
#79=CIRCLE('',#888,10.5);
#80=CIRCLE('',#890,16.5);
#81=CIRCLE('',#892,10.);
#82=CIRCLE('',#894,3.);
#83=CIRCLE('',#895,3.);
#84=CIRCLE('',#897,1.);
#85=CIRCLE('',#899,20.5);
#86=CIRCLE('',#902,0.3);
#87=CIRCLE('',#905,0.3);
#88=CIRCLE('',#908,0.3);
#89=CIRCLE('',#911,0.3);
#90=CIRCLE('',#914,0.3);
#91=CIRCLE('',#917,0.3);
#92=CIRCLE('',#920,3.);
#93=CIRCLE('',#922,5.);
#94=CIRCLE('',#923,5.);
#95=CIRCLE('',#927,2.8);
#96=FACE_OUTER_BOUND('',#138,.T.);
#97=FACE_OUTER_BOUND('',#140,.T.);
#98=FACE_OUTER_BOUND('',#141,.T.);
#99=FACE_OUTER_BOUND('',#142,.T.);
#100=FACE_OUTER_BOUND('',#143,.T.);
#101=FACE_OUTER_BOUND('',#144,.T.);
#102=FACE_OUTER_BOUND('',#145,.T.);
#103=FACE_OUTER_BOUND('',#146,.T.);
#104=FACE_OUTER_BOUND('',#147,.T.);
#105=FACE_OUTER_BOUND('',#148,.T.);
#106=FACE_OUTER_BOUND('',#149,.T.);
#107=FACE_OUTER_BOUND('',#150,.T.);
#108=FACE_OUTER_BOUND('',#152,.T.);
#109=FACE_OUTER_BOUND('',#153,.T.);
#110=FACE_OUTER_BOUND('',#154,.T.);
#111=FACE_OUTER_BOUND('',#155,.T.);
#112=FACE_OUTER_BOUND('',#157,.T.);
#113=FACE_OUTER_BOUND('',#158,.T.);
#114=FACE_OUTER_BOUND('',#159,.T.);
#115=FACE_OUTER_BOUND('',#160,.T.);
#116=FACE_OUTER_BOUND('',#161,.T.);
#117=FACE_OUTER_BOUND('',#162,.T.);
#118=FACE_OUTER_BOUND('',#163,.T.);
#119=FACE_OUTER_BOUND('',#164,.T.);
#120=FACE_OUTER_BOUND('',#165,.T.);
#121=FACE_OUTER_BOUND('',#166,.T.);
#122=FACE_OUTER_BOUND('',#167,.T.);
#123=FACE_OUTER_BOUND('',#168,.T.);
#124=FACE_OUTER_BOUND('',#169,.T.);
#125=FACE_OUTER_BOUND('',#170,.T.);
#126=FACE_OUTER_BOUND('',#171,.T.);
#127=FACE_OUTER_BOUND('',#172,.T.);
#128=FACE_OUTER_BOUND('',#173,.T.);
#129=FACE_OUTER_BOUND('',#174,.T.);
#130=FACE_OUTER_BOUND('',#175,.T.);
#131=FACE_OUTER_BOUND('',#176,.T.);
#132=FACE_OUTER_BOUND('',#178,.T.);
#133=FACE_OUTER_BOUND('',#179,.T.);
#134=FACE_OUTER_BOUND('',#180,.T.);
#135=FACE_OUTER_BOUND('',#181,.T.);
#136=FACE_OUTER_BOUND('',#182,.T.);
#137=FACE_OUTER_BOUND('',#183,.T.);
#138=EDGE_LOOP('',(#528,#529,#530,#531));
#139=EDGE_LOOP('',(#532));
#140=EDGE_LOOP('',(#533,#534,#535,#536,#537));
#141=EDGE_LOOP('',(#538,#539,#540,#541));
#142=EDGE_LOOP('',(#542,#543,#544,#545,#546,#547));
#143=EDGE_LOOP('',(#548,#549,#550,#551,#552,#553));
#144=EDGE_LOOP('',(#554,#555,#556,#557));
#145=EDGE_LOOP('',(#558,#559,#560,#561,#562,#563,#564,#565,#566,#567,#568,
#569,#570,#571,#572,#573,#574,#575,#576,#577,#578));
#146=EDGE_LOOP('',(#579,#580,#581,#582,#583,#584));
#147=EDGE_LOOP('',(#585,#586,#587,#588));
#148=EDGE_LOOP('',(#589,#590,#591,#592));
#149=EDGE_LOOP('',(#593,#594,#595,#596));
#150=EDGE_LOOP('',(#597,#598,#599,#600));
#151=EDGE_LOOP('',(#601,#602,#603,#604,#605,#606,#607,#608,#609,#610,#611,
#612));
#152=EDGE_LOOP('',(#613,#614,#615,#616,#617,#618));
#153=EDGE_LOOP('',(#619,#620,#621,#622));
#154=EDGE_LOOP('',(#623,#624,#625,#626));
#155=EDGE_LOOP('',(#627,#628,#629,#630));
#156=EDGE_LOOP('',(#631));
#157=EDGE_LOOP('',(#632,#633,#634,#635));
#158=EDGE_LOOP('',(#636,#637,#638,#639));
#159=EDGE_LOOP('',(#640,#641,#642,#643,#644,#645));
#160=EDGE_LOOP('',(#646,#647,#648,#649,#650,#651,#652));
#161=EDGE_LOOP('',(#653,#654,#655,#656));
#162=EDGE_LOOP('',(#657,#658,#659,#660));
#163=EDGE_LOOP('',(#661,#662,#663,#664,#665,#666,#667,#668,#669,#670,#671,
#672,#673,#674,#675,#676,#677,#678,#679,#680,#681));
#164=EDGE_LOOP('',(#682,#683,#684,#685));
#165=EDGE_LOOP('',(#686,#687,#688,#689));
#166=EDGE_LOOP('',(#690,#691,#692,#693));
#167=EDGE_LOOP('',(#694,#695,#696,#697));
#168=EDGE_LOOP('',(#698,#699,#700,#701));
#169=EDGE_LOOP('',(#702,#703,#704,#705));
#170=EDGE_LOOP('',(#706,#707,#708,#709));
#171=EDGE_LOOP('',(#710,#711,#712,#713));
#172=EDGE_LOOP('',(#714,#715,#716,#717));
#173=EDGE_LOOP('',(#718,#719,#720,#721));
#174=EDGE_LOOP('',(#722,#723,#724,#725));
#175=EDGE_LOOP('',(#726,#727,#728,#729));
#176=EDGE_LOOP('',(#730,#731,#732,#733,#734,#735,#736,#737,#738,#739,#740,
#741));
#177=EDGE_LOOP('',(#742));
#178=EDGE_LOOP('',(#743,#744,#745,#746,#747,#748,#749));
#179=EDGE_LOOP('',(#750,#751,#752,#753));
#180=EDGE_LOOP('',(#754,#755,#756,#757));
#181=EDGE_LOOP('',(#758,#759,#760,#761,#762,#763));
#182=EDGE_LOOP('',(#764,#765,#766,#767));
#183=EDGE_LOOP('',(#768,#769,#770,#771,#772,#773));
#184=LINE('',#1170,#254);
#185=LINE('',#1172,#255);
#186=LINE('',#1174,#256);
#187=LINE('',#1175,#257);
#188=LINE('',#1181,#258);
#189=LINE('',#1187,#259);
#190=LINE('',#1227,#260);
#191=LINE('',#1231,#261);
#192=LINE('',#1234,#262);
#193=LINE('',#1236,#263);
#194=LINE('',#1304,#264);
#195=LINE('',#1308,#265);
#196=LINE('',#1312,#266);
#197=LINE('',#1316,#267);
#198=LINE('',#1324,#268);
#199=LINE('',#1328,#269);
#200=LINE('',#1332,#270);
#201=LINE('',#1359,#271);
#202=LINE('',#1361,#272);
#203=LINE('',#1363,#273);
#204=LINE('',#1437,#274);
#205=LINE('',#1441,#275);
#206=LINE('',#1444,#276);
#207=LINE('',#1446,#277);
#208=LINE('',#1447,#278);
#209=LINE('',#1450,#279);
#210=LINE('',#1454,#280);
#211=LINE('',#1458,#281);
#212=LINE('',#1462,#282);
#213=LINE('',#1466,#283);
#214=LINE('',#1470,#284);
#215=LINE('',#1474,#285);
#216=LINE('',#1483,#286);
#217=LINE('',#1486,#287);
#218=LINE('',#1489,#288);
#219=LINE('',#1492,#289);
#220=LINE('',#1495,#290);
#221=LINE('',#1498,#291);
#222=LINE('',#1501,#292);
#223=LINE('',#1502,#293);
#224=LINE('',#1508,#294);
#225=LINE('',#1512,#295);
#226=LINE('',#1517,#296);
#227=LINE('',#1529,#297);
#228=LINE('',#1534,#298);
#229=LINE('',#1537,#299);
#230=LINE('',#1542,#300);
#231=LINE('',#1543,#301);
#232=LINE('',#1544,#302);
#233=LINE('',#1549,#303);
#234=LINE('',#1550,#304);
#235=LINE('',#1553,#305);
#236=LINE('',#1554,#306);
#237=LINE('',#1559,#307);
#238=LINE('',#1560,#308);
#239=LINE('',#1562,#309);
#240=LINE('',#1567,#310);
#241=LINE('',#1568,#311);
#242=LINE('',#1570,#312);
#243=LINE('',#1574,#313);
#244=LINE('',#1577,#314);
#245=LINE('',#1578,#315);
#246=LINE('',#1582,#316);
#247=LINE('',#1585,#317);
#248=LINE('',#1586,#318);
#249=LINE('',#1590,#319);
#250=LINE('',#1592,#320);
#251=LINE('',#1604,#321);
#252=LINE('',#1607,#322);
#253=LINE('',#1609,#323);
#254=VECTOR('',#934,10.);
#255=VECTOR('',#935,10.);
#256=VECTOR('',#936,10.);
#257=VECTOR('',#937,10.);
#258=VECTOR('',#942,10.);
#259=VECTOR('',#947,10.);
#260=VECTOR('',#952,10.);
#261=VECTOR('',#955,10.);
#262=VECTOR('',#958,10.);
#263=VECTOR('',#961,3.1);
#264=VECTOR('',#964,10.);
#265=VECTOR('',#967,10.);
#266=VECTOR('',#970,10.);
#267=VECTOR('',#973,10.);
#268=VECTOR('',#980,10.);
#269=VECTOR('',#983,10.);
#270=VECTOR('',#986,10.);
#271=VECTOR('',#989,10.);
#272=VECTOR('',#992,10.);
#273=VECTOR('',#995,10.);
#274=VECTOR('',#996,10.);
#275=VECTOR('',#1001,10.);
#276=VECTOR('',#1004,10.);
#277=VECTOR('',#1005,10.);
#278=VECTOR('',#1006,10.);
#279=VECTOR('',#1007,10.);
#280=VECTOR('',#1010,10.);
#281=VECTOR('',#1013,10.);
#282=VECTOR('',#1016,10.);
#283=VECTOR('',#1019,10.);
#284=VECTOR('',#1022,10.);
#285=VECTOR('',#1027,10.);
#286=VECTOR('',#1028,1.);
#287=VECTOR('',#1031,10.);
#288=VECTOR('',#1034,10.);
#289=VECTOR('',#1037,10.);
#290=VECTOR('',#1040,10.);
#291=VECTOR('',#1043,10.);
#292=VECTOR('',#1046,10.);
#293=VECTOR('',#1047,10.5);
#294=VECTOR('',#1054,10.5);
#295=VECTOR('',#1059,10.);
#296=VECTOR('',#1064,10.);
#297=VECTOR('',#1065,10.);
#298=VECTOR('',#1072,10.);
#299=VECTOR('',#1075,10.);
#300=VECTOR('',#1084,10.);
#301=VECTOR('',#1085,10.);
#302=VECTOR('',#1086,10.);
#303=VECTOR('',#1091,10.);
#304=VECTOR('',#1092,10.);
#305=VECTOR('',#1095,10.);
#306=VECTOR('',#1096,10.);
#307=VECTOR('',#1101,10.);
#308=VECTOR('',#1102,10.);
#309=VECTOR('',#1105,10.);
#310=VECTOR('',#1110,10.);
#311=VECTOR('',#1111,10.);
#312=VECTOR('',#1114,10.);
#313=VECTOR('',#1119,10.);
#314=VECTOR('',#1122,10.);
#315=VECTOR('',#1123,10.);
#316=VECTOR('',#1128,10.);
#317=VECTOR('',#1131,10.);
#318=VECTOR('',#1132,10.);
#319=VECTOR('',#1137,10.);
#320=VECTOR('',#1140,10.);
#321=VECTOR('',#1157,3.9);
#322=VECTOR('',#1162,2.8);
#323=VECTOR('',#1165,2.8);
#324=VERTEX_POINT('',#1168);
#325=VERTEX_POINT('',#1169);
#326=VERTEX_POINT('',#1171);
#327=VERTEX_POINT('',#1173);
#328=VERTEX_POINT('',#1176);
#329=VERTEX_POINT('',#1179);
#330=VERTEX_POINT('',#1180);
#331=VERTEX_POINT('',#1182);
#332=VERTEX_POINT('',#1184);
#333=VERTEX_POINT('',#1186);
#334=VERTEX_POINT('',#1226);
#335=VERTEX_POINT('',#1228);
#336=VERTEX_POINT('',#1230);
#337=VERTEX_POINT('',#1232);
#338=VERTEX_POINT('',#1265);
#339=VERTEX_POINT('',#1266);
#340=VERTEX_POINT('',#1280);
#341=VERTEX_POINT('',#1285);
#342=VERTEX_POINT('',#1305);
#343=VERTEX_POINT('',#1307);
#344=VERTEX_POINT('',#1309);
#345=VERTEX_POINT('',#1311);
#346=VERTEX_POINT('',#1313);
#347=VERTEX_POINT('',#1315);
#348=VERTEX_POINT('',#1317);
#349=VERTEX_POINT('',#1319);
#350=VERTEX_POINT('',#1321);
#351=VERTEX_POINT('',#1323);
#352=VERTEX_POINT('',#1325);
#353=VERTEX_POINT('',#1327);
#354=VERTEX_POINT('',#1329);
#355=VERTEX_POINT('',#1331);
#356=VERTEX_POINT('',#1333);
#357=VERTEX_POINT('',#1412);
#358=VERTEX_POINT('',#1439);
#359=VERTEX_POINT('',#1443);
#360=VERTEX_POINT('',#1445);
#361=VERTEX_POINT('',#1448);
#362=VERTEX_POINT('',#1449);
#363=VERTEX_POINT('',#1451);
#364=VERTEX_POINT('',#1453);
#365=VERTEX_POINT('',#1455);
#366=VERTEX_POINT('',#1457);
#367=VERTEX_POINT('',#1459);
#368=VERTEX_POINT('',#1461);
#369=VERTEX_POINT('',#1463);
#370=VERTEX_POINT('',#1465);
#371=VERTEX_POINT('',#1467);
#372=VERTEX_POINT('',#1469);
#373=VERTEX_POINT('',#1473);
#374=VERTEX_POINT('',#1475);
#375=VERTEX_POINT('',#1482);
#376=VERTEX_POINT('',#1484);
#377=VERTEX_POINT('',#1488);
#378=VERTEX_POINT('',#1490);
#379=VERTEX_POINT('',#1494);
#380=VERTEX_POINT('',#1496);
#381=VERTEX_POINT('',#1500);
#382=VERTEX_POINT('',#1503);
#383=VERTEX_POINT('',#1506);
#384=VERTEX_POINT('',#1510);
#385=VERTEX_POINT('',#1514);
#386=VERTEX_POINT('',#1516);
#387=VERTEX_POINT('',#1518);
#388=VERTEX_POINT('',#1531);
#389=VERTEX_POINT('',#1536);
#390=VERTEX_POINT('',#1546);
#391=VERTEX_POINT('',#1547);
#392=VERTEX_POINT('',#1552);
#393=VERTEX_POINT('',#1556);
#394=VERTEX_POINT('',#1557);
#395=VERTEX_POINT('',#1564);
#396=VERTEX_POINT('',#1565);
#397=VERTEX_POINT('',#1572);
#398=VERTEX_POINT('',#1576);
#399=VERTEX_POINT('',#1580);
#400=VERTEX_POINT('',#1584);
#401=VERTEX_POINT('',#1588);
#402=VERTEX_POINT('',#1594);
#403=VERTEX_POINT('',#1597);
#404=VERTEX_POINT('',#1603);
#405=EDGE_CURVE('',#324,#325,#184,.T.);
#406=EDGE_CURVE('',#326,#324,#185,.T.);
#407=EDGE_CURVE('',#326,#327,#186,.T.);
#408=EDGE_CURVE('',#325,#327,#187,.T.);
#409=EDGE_CURVE('',#328,#328,#53,.T.);
#410=EDGE_CURVE('',#329,#330,#188,.T.);
#411=EDGE_CURVE('',#330,#331,#54,.T.);
#412=EDGE_CURVE('',#331,#332,#55,.T.);
#413=EDGE_CURVE('',#332,#333,#189,.T.);
#414=EDGE_CURVE('',#333,#329,#56,.T.);
#415=EDGE_CURVE('',#329,#333,#37,.T.);
#416=EDGE_CURVE('',#332,#330,#38,.T.);
#417=EDGE_CURVE('',#334,#329,#190,.T.);
#418=EDGE_CURVE('',#334,#335,#57,.T.);
#419=EDGE_CURVE('',#335,#336,#191,.T.);
#420=EDGE_CURVE('',#337,#336,#58,.T.);
#421=EDGE_CURVE('',#333,#337,#192,.T.);
#422=EDGE_CURVE('',#331,#328,#193,.T.);
#423=EDGE_CURVE('',#338,#339,#39,.T.);
#424=EDGE_CURVE('',#339,#340,#40,.T.);
#425=EDGE_CURVE('',#340,#341,#41,.T.);
#426=EDGE_CURVE('',#341,#338,#42,.T.);
#427=EDGE_CURVE('',#337,#338,#194,.T.);
#428=EDGE_CURVE('',#336,#342,#59,.T.);
#429=EDGE_CURVE('',#342,#343,#195,.T.);
#430=EDGE_CURVE('',#343,#344,#60,.T.);
#431=EDGE_CURVE('',#344,#345,#196,.T.);
#432=EDGE_CURVE('',#345,#346,#61,.T.);
#433=EDGE_CURVE('',#346,#347,#197,.T.);
#434=EDGE_CURVE('',#347,#348,#62,.T.);
#435=EDGE_CURVE('',#348,#349,#63,.T.);
#436=EDGE_CURVE('',#349,#350,#64,.T.);
#437=EDGE_CURVE('',#350,#351,#198,.T.);
#438=EDGE_CURVE('',#351,#352,#65,.T.);
#439=EDGE_CURVE('',#352,#353,#199,.T.);
#440=EDGE_CURVE('',#353,#354,#66,.T.);
#441=EDGE_CURVE('',#354,#355,#200,.T.);
#442=EDGE_CURVE('',#355,#356,#67,.T.);
#443=EDGE_CURVE('',#356,#324,#16,.T.);
#444=EDGE_CURVE('',#339,#325,#201,.T.);
#445=EDGE_CURVE('',#334,#341,#202,.T.);
#446=EDGE_CURVE('',#327,#340,#203,.T.);
#447=EDGE_CURVE('',#326,#357,#17,.T.);
#448=EDGE_CURVE('',#357,#356,#204,.T.);
#449=EDGE_CURVE('',#358,#335,#68,.T.);
#450=EDGE_CURVE('',#358,#342,#205,.T.);
#451=EDGE_CURVE('',#355,#359,#206,.T.);
#452=EDGE_CURVE('',#360,#354,#207,.T.);
#453=EDGE_CURVE('',#359,#360,#208,.T.);
#454=EDGE_CURVE('',#361,#362,#209,.T.);
#455=EDGE_CURVE('',#363,#362,#69,.T.);
#456=EDGE_CURVE('',#363,#364,#210,.T.);
#457=EDGE_CURVE('',#365,#364,#70,.T.);
#458=EDGE_CURVE('',#365,#366,#211,.T.);
#459=EDGE_CURVE('',#367,#366,#71,.T.);
#460=EDGE_CURVE('',#367,#368,#212,.T.);
#461=EDGE_CURVE('',#369,#368,#72,.T.);
#462=EDGE_CURVE('',#369,#370,#213,.T.);
#463=EDGE_CURVE('',#371,#370,#73,.T.);
#464=EDGE_CURVE('',#371,#372,#214,.T.);
#465=EDGE_CURVE('',#361,#372,#74,.T.);
#466=EDGE_CURVE('',#343,#373,#215,.T.);
#467=EDGE_CURVE('',#374,#373,#43,.T.);
#468=EDGE_CURVE('',#374,#375,#216,.T.);
#469=EDGE_CURVE('',#376,#375,#75,.T.);
#470=EDGE_CURVE('',#376,#344,#217,.T.);
#471=EDGE_CURVE('',#345,#377,#218,.T.);
#472=EDGE_CURVE('',#378,#377,#76,.T.);
#473=EDGE_CURVE('',#378,#346,#219,.T.);
#474=EDGE_CURVE('',#351,#379,#220,.T.);
#475=EDGE_CURVE('',#380,#379,#77,.T.);
#476=EDGE_CURVE('',#380,#352,#221,.T.);
#477=EDGE_CURVE('',#381,#378,#222,.T.);
#478=EDGE_CURVE('',#347,#381,#223,.T.);
#479=EDGE_CURVE('',#382,#382,#78,.T.);
#480=EDGE_CURVE('',#383,#381,#79,.T.);
#481=EDGE_CURVE('',#348,#383,#224,.T.);
#482=EDGE_CURVE('',#384,#383,#80,.T.);
#483=EDGE_CURVE('',#349,#384,#225,.T.);
#484=EDGE_CURVE('',#385,#384,#81,.T.);
#485=EDGE_CURVE('',#385,#386,#226,.T.);
#486=EDGE_CURVE('',#386,#387,#44,.T.);
#487=EDGE_CURVE('',#387,#350,#227,.T.);
#488=EDGE_CURVE('',#388,#387,#82,.T.);
#489=EDGE_CURVE('',#386,#388,#83,.T.);
#490=EDGE_CURVE('',#379,#385,#228,.T.);
#491=EDGE_CURVE('',#353,#389,#229,.T.);
#492=EDGE_CURVE('',#360,#389,#84,.T.);
#493=EDGE_CURVE('',#357,#359,#85,.T.);
#494=EDGE_CURVE('',#389,#380,#230,.T.);
#495=EDGE_CURVE('',#377,#376,#231,.T.);
#496=EDGE_CURVE('',#375,#358,#232,.T.);
#497=EDGE_CURVE('',#390,#391,#86,.T.);
#498=EDGE_CURVE('',#390,#363,#233,.T.);
#499=EDGE_CURVE('',#362,#391,#234,.T.);
#500=EDGE_CURVE('',#392,#361,#235,.T.);
#501=EDGE_CURVE('',#392,#391,#236,.T.);
#502=EDGE_CURVE('',#393,#394,#87,.T.);
#503=EDGE_CURVE('',#393,#365,#237,.T.);
#504=EDGE_CURVE('',#364,#394,#238,.T.);
#505=EDGE_CURVE('',#390,#394,#239,.T.);
#506=EDGE_CURVE('',#395,#396,#88,.T.);
#507=EDGE_CURVE('',#395,#367,#240,.T.);
#508=EDGE_CURVE('',#366,#396,#241,.T.);
#509=EDGE_CURVE('',#393,#396,#242,.T.);
#510=EDGE_CURVE('',#392,#397,#89,.T.);
#511=EDGE_CURVE('',#372,#397,#243,.T.);
#512=EDGE_CURVE('',#398,#371,#244,.T.);
#513=EDGE_CURVE('',#398,#397,#245,.T.);
#514=EDGE_CURVE('',#398,#399,#90,.T.);
#515=EDGE_CURVE('',#370,#399,#246,.T.);
#516=EDGE_CURVE('',#400,#369,#247,.T.);
#517=EDGE_CURVE('',#400,#399,#248,.T.);
#518=EDGE_CURVE('',#400,#401,#91,.T.);
#519=EDGE_CURVE('',#368,#401,#249,.T.);
#520=EDGE_CURVE('',#395,#401,#250,.T.);
#521=EDGE_CURVE('',#402,#402,#92,.T.);
#522=EDGE_CURVE('',#373,#403,#93,.T.);
#523=EDGE_CURVE('',#403,#374,#94,.T.);
#524=EDGE_CURVE('',#403,#404,#251,.T.);
#525=EDGE_CURVE('',#404,#404,#95,.T.);
#526=EDGE_CURVE('',#404,#382,#252,.T.);
#527=EDGE_CURVE('',#388,#402,#253,.T.);
#528=ORIENTED_EDGE('',*,*,#405,.F.);
#529=ORIENTED_EDGE('',*,*,#406,.F.);
#530=ORIENTED_EDGE('',*,*,#407,.T.);
#531=ORIENTED_EDGE('',*,*,#408,.F.);
#532=ORIENTED_EDGE('',*,*,#409,.F.);
#533=ORIENTED_EDGE('',*,*,#410,.T.);
#534=ORIENTED_EDGE('',*,*,#411,.T.);
#535=ORIENTED_EDGE('',*,*,#412,.T.);
#536=ORIENTED_EDGE('',*,*,#413,.T.);
#537=ORIENTED_EDGE('',*,*,#414,.T.);
#538=ORIENTED_EDGE('',*,*,#410,.F.);
#539=ORIENTED_EDGE('',*,*,#415,.T.);
#540=ORIENTED_EDGE('',*,*,#413,.F.);
#541=ORIENTED_EDGE('',*,*,#416,.T.);
#542=ORIENTED_EDGE('',*,*,#415,.F.);
#543=ORIENTED_EDGE('',*,*,#417,.F.);
#544=ORIENTED_EDGE('',*,*,#418,.T.);
#545=ORIENTED_EDGE('',*,*,#419,.T.);
#546=ORIENTED_EDGE('',*,*,#420,.F.);
#547=ORIENTED_EDGE('',*,*,#421,.F.);
#548=ORIENTED_EDGE('',*,*,#411,.F.);
#549=ORIENTED_EDGE('',*,*,#416,.F.);
#550=ORIENTED_EDGE('',*,*,#412,.F.);
#551=ORIENTED_EDGE('',*,*,#422,.T.);
#552=ORIENTED_EDGE('',*,*,#409,.T.);
#553=ORIENTED_EDGE('',*,*,#422,.F.);
#554=ORIENTED_EDGE('',*,*,#423,.T.);
#555=ORIENTED_EDGE('',*,*,#424,.T.);
#556=ORIENTED_EDGE('',*,*,#425,.T.);
#557=ORIENTED_EDGE('',*,*,#426,.T.);
#558=ORIENTED_EDGE('',*,*,#423,.F.);
#559=ORIENTED_EDGE('',*,*,#427,.F.);
#560=ORIENTED_EDGE('',*,*,#420,.T.);
#561=ORIENTED_EDGE('',*,*,#428,.T.);
#562=ORIENTED_EDGE('',*,*,#429,.T.);
#563=ORIENTED_EDGE('',*,*,#430,.T.);
#564=ORIENTED_EDGE('',*,*,#431,.T.);
#565=ORIENTED_EDGE('',*,*,#432,.T.);
#566=ORIENTED_EDGE('',*,*,#433,.T.);
#567=ORIENTED_EDGE('',*,*,#434,.T.);
#568=ORIENTED_EDGE('',*,*,#435,.T.);
#569=ORIENTED_EDGE('',*,*,#436,.T.);
#570=ORIENTED_EDGE('',*,*,#437,.T.);
#571=ORIENTED_EDGE('',*,*,#438,.T.);
#572=ORIENTED_EDGE('',*,*,#439,.T.);
#573=ORIENTED_EDGE('',*,*,#440,.T.);
#574=ORIENTED_EDGE('',*,*,#441,.T.);
#575=ORIENTED_EDGE('',*,*,#442,.T.);
#576=ORIENTED_EDGE('',*,*,#443,.T.);
#577=ORIENTED_EDGE('',*,*,#405,.T.);
#578=ORIENTED_EDGE('',*,*,#444,.F.);
#579=ORIENTED_EDGE('',*,*,#414,.F.);
#580=ORIENTED_EDGE('',*,*,#421,.T.);
#581=ORIENTED_EDGE('',*,*,#427,.T.);
#582=ORIENTED_EDGE('',*,*,#426,.F.);
#583=ORIENTED_EDGE('',*,*,#445,.F.);
#584=ORIENTED_EDGE('',*,*,#417,.T.);
#585=ORIENTED_EDGE('',*,*,#424,.F.);
#586=ORIENTED_EDGE('',*,*,#444,.T.);
#587=ORIENTED_EDGE('',*,*,#408,.T.);
#588=ORIENTED_EDGE('',*,*,#446,.T.);
#589=ORIENTED_EDGE('',*,*,#447,.F.);
#590=ORIENTED_EDGE('',*,*,#406,.T.);
#591=ORIENTED_EDGE('',*,*,#443,.F.);
#592=ORIENTED_EDGE('',*,*,#448,.F.);
#593=ORIENTED_EDGE('',*,*,#428,.F.);
#594=ORIENTED_EDGE('',*,*,#419,.F.);
#595=ORIENTED_EDGE('',*,*,#449,.F.);
#596=ORIENTED_EDGE('',*,*,#450,.T.);
#597=ORIENTED_EDGE('',*,*,#451,.F.);
#598=ORIENTED_EDGE('',*,*,#441,.F.);
#599=ORIENTED_EDGE('',*,*,#452,.F.);
#600=ORIENTED_EDGE('',*,*,#453,.F.);
#601=ORIENTED_EDGE('',*,*,#454,.T.);
#602=ORIENTED_EDGE('',*,*,#455,.F.);
#603=ORIENTED_EDGE('',*,*,#456,.T.);
#604=ORIENTED_EDGE('',*,*,#457,.F.);
#605=ORIENTED_EDGE('',*,*,#458,.T.);
#606=ORIENTED_EDGE('',*,*,#459,.F.);
#607=ORIENTED_EDGE('',*,*,#460,.T.);
#608=ORIENTED_EDGE('',*,*,#461,.F.);
#609=ORIENTED_EDGE('',*,*,#462,.T.);
#610=ORIENTED_EDGE('',*,*,#463,.F.);
#611=ORIENTED_EDGE('',*,*,#464,.T.);
#612=ORIENTED_EDGE('',*,*,#465,.F.);
#613=ORIENTED_EDGE('',*,*,#430,.F.);
#614=ORIENTED_EDGE('',*,*,#466,.T.);
#615=ORIENTED_EDGE('',*,*,#467,.F.);
#616=ORIENTED_EDGE('',*,*,#468,.T.);
#617=ORIENTED_EDGE('',*,*,#469,.F.);
#618=ORIENTED_EDGE('',*,*,#470,.T.);
#619=ORIENTED_EDGE('',*,*,#432,.F.);
#620=ORIENTED_EDGE('',*,*,#471,.T.);
#621=ORIENTED_EDGE('',*,*,#472,.F.);
#622=ORIENTED_EDGE('',*,*,#473,.T.);
#623=ORIENTED_EDGE('',*,*,#438,.F.);
#624=ORIENTED_EDGE('',*,*,#474,.T.);
#625=ORIENTED_EDGE('',*,*,#475,.F.);
#626=ORIENTED_EDGE('',*,*,#476,.T.);
#627=ORIENTED_EDGE('',*,*,#433,.F.);
#628=ORIENTED_EDGE('',*,*,#473,.F.);
#629=ORIENTED_EDGE('',*,*,#477,.F.);
#630=ORIENTED_EDGE('',*,*,#478,.F.);
#631=ORIENTED_EDGE('',*,*,#479,.F.);
#632=ORIENTED_EDGE('',*,*,#434,.F.);
#633=ORIENTED_EDGE('',*,*,#478,.T.);
#634=ORIENTED_EDGE('',*,*,#480,.F.);
#635=ORIENTED_EDGE('',*,*,#481,.F.);
#636=ORIENTED_EDGE('',*,*,#435,.F.);
#637=ORIENTED_EDGE('',*,*,#481,.T.);
#638=ORIENTED_EDGE('',*,*,#482,.F.);
#639=ORIENTED_EDGE('',*,*,#483,.F.);
#640=ORIENTED_EDGE('',*,*,#436,.F.);
#641=ORIENTED_EDGE('',*,*,#483,.T.);
#642=ORIENTED_EDGE('',*,*,#484,.F.);
#643=ORIENTED_EDGE('',*,*,#485,.T.);
#644=ORIENTED_EDGE('',*,*,#486,.T.);
#645=ORIENTED_EDGE('',*,*,#487,.T.);
#646=ORIENTED_EDGE('',*,*,#437,.F.);
#647=ORIENTED_EDGE('',*,*,#487,.F.);
#648=ORIENTED_EDGE('',*,*,#488,.F.);
#649=ORIENTED_EDGE('',*,*,#489,.F.);
#650=ORIENTED_EDGE('',*,*,#485,.F.);
#651=ORIENTED_EDGE('',*,*,#490,.F.);
#652=ORIENTED_EDGE('',*,*,#474,.F.);
#653=ORIENTED_EDGE('',*,*,#440,.F.);
#654=ORIENTED_EDGE('',*,*,#491,.T.);
#655=ORIENTED_EDGE('',*,*,#492,.F.);
#656=ORIENTED_EDGE('',*,*,#452,.T.);
#657=ORIENTED_EDGE('',*,*,#448,.T.);
#658=ORIENTED_EDGE('',*,*,#442,.F.);
#659=ORIENTED_EDGE('',*,*,#451,.T.);
#660=ORIENTED_EDGE('',*,*,#493,.F.);
#661=ORIENTED_EDGE('',*,*,#425,.F.);
#662=ORIENTED_EDGE('',*,*,#446,.F.);
#663=ORIENTED_EDGE('',*,*,#407,.F.);
#664=ORIENTED_EDGE('',*,*,#447,.T.);
#665=ORIENTED_EDGE('',*,*,#493,.T.);
#666=ORIENTED_EDGE('',*,*,#453,.T.);
#667=ORIENTED_EDGE('',*,*,#492,.T.);
#668=ORIENTED_EDGE('',*,*,#494,.T.);
#669=ORIENTED_EDGE('',*,*,#475,.T.);
#670=ORIENTED_EDGE('',*,*,#490,.T.);
#671=ORIENTED_EDGE('',*,*,#484,.T.);
#672=ORIENTED_EDGE('',*,*,#482,.T.);
#673=ORIENTED_EDGE('',*,*,#480,.T.);
#674=ORIENTED_EDGE('',*,*,#477,.T.);
#675=ORIENTED_EDGE('',*,*,#472,.T.);
#676=ORIENTED_EDGE('',*,*,#495,.T.);
#677=ORIENTED_EDGE('',*,*,#469,.T.);
#678=ORIENTED_EDGE('',*,*,#496,.T.);
#679=ORIENTED_EDGE('',*,*,#449,.T.);
#680=ORIENTED_EDGE('',*,*,#418,.F.);
#681=ORIENTED_EDGE('',*,*,#445,.T.);
#682=ORIENTED_EDGE('',*,*,#497,.F.);
#683=ORIENTED_EDGE('',*,*,#498,.T.);
#684=ORIENTED_EDGE('',*,*,#455,.T.);
#685=ORIENTED_EDGE('',*,*,#499,.T.);
#686=ORIENTED_EDGE('',*,*,#499,.F.);
#687=ORIENTED_EDGE('',*,*,#454,.F.);
#688=ORIENTED_EDGE('',*,*,#500,.F.);
#689=ORIENTED_EDGE('',*,*,#501,.T.);
#690=ORIENTED_EDGE('',*,*,#502,.F.);
#691=ORIENTED_EDGE('',*,*,#503,.T.);
#692=ORIENTED_EDGE('',*,*,#457,.T.);
#693=ORIENTED_EDGE('',*,*,#504,.T.);
#694=ORIENTED_EDGE('',*,*,#498,.F.);
#695=ORIENTED_EDGE('',*,*,#505,.T.);
#696=ORIENTED_EDGE('',*,*,#504,.F.);
#697=ORIENTED_EDGE('',*,*,#456,.F.);
#698=ORIENTED_EDGE('',*,*,#506,.F.);
#699=ORIENTED_EDGE('',*,*,#507,.T.);
#700=ORIENTED_EDGE('',*,*,#459,.T.);
#701=ORIENTED_EDGE('',*,*,#508,.T.);
#702=ORIENTED_EDGE('',*,*,#503,.F.);
#703=ORIENTED_EDGE('',*,*,#509,.T.);
#704=ORIENTED_EDGE('',*,*,#508,.F.);
#705=ORIENTED_EDGE('',*,*,#458,.F.);
#706=ORIENTED_EDGE('',*,*,#510,.F.);
#707=ORIENTED_EDGE('',*,*,#500,.T.);
#708=ORIENTED_EDGE('',*,*,#465,.T.);
#709=ORIENTED_EDGE('',*,*,#511,.T.);
#710=ORIENTED_EDGE('',*,*,#511,.F.);
#711=ORIENTED_EDGE('',*,*,#464,.F.);
#712=ORIENTED_EDGE('',*,*,#512,.F.);
#713=ORIENTED_EDGE('',*,*,#513,.T.);
#714=ORIENTED_EDGE('',*,*,#514,.F.);
#715=ORIENTED_EDGE('',*,*,#512,.T.);
#716=ORIENTED_EDGE('',*,*,#463,.T.);
#717=ORIENTED_EDGE('',*,*,#515,.T.);
#718=ORIENTED_EDGE('',*,*,#515,.F.);
#719=ORIENTED_EDGE('',*,*,#462,.F.);
#720=ORIENTED_EDGE('',*,*,#516,.F.);
#721=ORIENTED_EDGE('',*,*,#517,.T.);
#722=ORIENTED_EDGE('',*,*,#518,.F.);
#723=ORIENTED_EDGE('',*,*,#516,.T.);
#724=ORIENTED_EDGE('',*,*,#461,.T.);
#725=ORIENTED_EDGE('',*,*,#519,.T.);
#726=ORIENTED_EDGE('',*,*,#507,.F.);
#727=ORIENTED_EDGE('',*,*,#520,.T.);
#728=ORIENTED_EDGE('',*,*,#519,.F.);
#729=ORIENTED_EDGE('',*,*,#460,.F.);
#730=ORIENTED_EDGE('',*,*,#497,.T.);
#731=ORIENTED_EDGE('',*,*,#501,.F.);
#732=ORIENTED_EDGE('',*,*,#510,.T.);
#733=ORIENTED_EDGE('',*,*,#513,.F.);
#734=ORIENTED_EDGE('',*,*,#514,.T.);
#735=ORIENTED_EDGE('',*,*,#517,.F.);
#736=ORIENTED_EDGE('',*,*,#518,.T.);
#737=ORIENTED_EDGE('',*,*,#520,.F.);
#738=ORIENTED_EDGE('',*,*,#506,.T.);
#739=ORIENTED_EDGE('',*,*,#509,.F.);
#740=ORIENTED_EDGE('',*,*,#502,.T.);
#741=ORIENTED_EDGE('',*,*,#505,.F.);
#742=ORIENTED_EDGE('',*,*,#521,.F.);
#743=ORIENTED_EDGE('',*,*,#522,.F.);
#744=ORIENTED_EDGE('',*,*,#466,.F.);
#745=ORIENTED_EDGE('',*,*,#429,.F.);
#746=ORIENTED_EDGE('',*,*,#450,.F.);
#747=ORIENTED_EDGE('',*,*,#496,.F.);
#748=ORIENTED_EDGE('',*,*,#468,.F.);
#749=ORIENTED_EDGE('',*,*,#523,.F.);
#750=ORIENTED_EDGE('',*,*,#471,.F.);
#751=ORIENTED_EDGE('',*,*,#431,.F.);
#752=ORIENTED_EDGE('',*,*,#470,.F.);
#753=ORIENTED_EDGE('',*,*,#495,.F.);
#754=ORIENTED_EDGE('',*,*,#491,.F.);
#755=ORIENTED_EDGE('',*,*,#439,.F.);
#756=ORIENTED_EDGE('',*,*,#476,.F.);
#757=ORIENTED_EDGE('',*,*,#494,.F.);
#758=ORIENTED_EDGE('',*,*,#467,.T.);
#759=ORIENTED_EDGE('',*,*,#522,.T.);
#760=ORIENTED_EDGE('',*,*,#524,.T.);
#761=ORIENTED_EDGE('',*,*,#525,.T.);
#762=ORIENTED_EDGE('',*,*,#524,.F.);
#763=ORIENTED_EDGE('',*,*,#523,.T.);
#764=ORIENTED_EDGE('',*,*,#525,.F.);
#765=ORIENTED_EDGE('',*,*,#526,.T.);
#766=ORIENTED_EDGE('',*,*,#479,.T.);
#767=ORIENTED_EDGE('',*,*,#526,.F.);
#768=ORIENTED_EDGE('',*,*,#486,.F.);
#769=ORIENTED_EDGE('',*,*,#489,.T.);
#770=ORIENTED_EDGE('',*,*,#527,.T.);
#771=ORIENTED_EDGE('',*,*,#521,.T.);
#772=ORIENTED_EDGE('',*,*,#527,.F.);
#773=ORIENTED_EDGE('',*,*,#488,.T.);
#774=PLANE('',#848);
#775=PLANE('',#858);
#776=PLANE('',#868);
#777=PLANE('',#869);
#778=PLANE('',#872);
#779=PLANE('',#885);
#780=PLANE('',#893);
#781=PLANE('',#900);
#782=PLANE('',#903);
#783=PLANE('',#906);
#784=PLANE('',#909);
#785=PLANE('',#912);
#786=PLANE('',#915);
#787=PLANE('',#918);
#788=PLANE('',#919);
#789=PLANE('',#921);
#790=PLANE('',#924);
#791=PLANE('',#925);
#792=ADVANCED_FACE('',(#96,#49),#774,.F.);
#793=ADVANCED_FACE('',(#97),#47,.F.);
#794=ADVANCED_FACE('',(#98),#45,.T.);
#795=ADVANCED_FACE('',(#99),#18,.F.);
#796=ADVANCED_FACE('',(#100),#19,.F.);
#797=ADVANCED_FACE('',(#101),#46,.T.);
#798=ADVANCED_FACE('',(#102),#775,.T.);
#799=ADVANCED_FACE('',(#103),#776,.T.);
#800=ADVANCED_FACE('',(#104),#777,.T.);
#801=ADVANCED_FACE('',(#105),#15,.T.);
#802=ADVANCED_FACE('',(#106),#20,.T.);
#803=ADVANCED_FACE('',(#107,#50),#778,.F.);
#804=ADVANCED_FACE('',(#108),#21,.T.);
#805=ADVANCED_FACE('',(#109),#22,.T.);
#806=ADVANCED_FACE('',(#110),#23,.T.);
#807=ADVANCED_FACE('',(#111,#51),#779,.F.);
#808=ADVANCED_FACE('',(#112),#24,.T.);
#809=ADVANCED_FACE('',(#113),#25,.F.);
#810=ADVANCED_FACE('',(#114),#26,.T.);
#811=ADVANCED_FACE('',(#115),#780,.T.);
#812=ADVANCED_FACE('',(#116),#27,.T.);
#813=ADVANCED_FACE('',(#117),#28,.T.);
#814=ADVANCED_FACE('',(#118),#781,.T.);
#815=ADVANCED_FACE('',(#119),#29,.F.);
#816=ADVANCED_FACE('',(#120),#782,.F.);
#817=ADVANCED_FACE('',(#121),#30,.F.);
#818=ADVANCED_FACE('',(#122),#783,.F.);
#819=ADVANCED_FACE('',(#123),#31,.F.);
#820=ADVANCED_FACE('',(#124),#784,.F.);
#821=ADVANCED_FACE('',(#125),#32,.F.);
#822=ADVANCED_FACE('',(#126),#785,.F.);
#823=ADVANCED_FACE('',(#127),#33,.F.);
#824=ADVANCED_FACE('',(#128),#786,.F.);
#825=ADVANCED_FACE('',(#129),#34,.F.);
#826=ADVANCED_FACE('',(#130),#787,.F.);
#827=ADVANCED_FACE('',(#131,#52),#788,.T.);
#828=ADVANCED_FACE('',(#132),#789,.T.);
#829=ADVANCED_FACE('',(#133),#790,.T.);
#830=ADVANCED_FACE('',(#134),#791,.T.);
#831=ADVANCED_FACE('',(#135),#48,.F.);
#832=ADVANCED_FACE('',(#136),#35,.F.);
#833=ADVANCED_FACE('',(#137),#36,.F.);
#834=CLOSED_SHELL('',(#792,#793,#794,#795,#796,#797,#798,#799,#800,#801,
#802,#803,#804,#805,#806,#807,#808,#809,#810,#811,#812,#813,#814,#815,#816,
#817,#818,#819,#820,#821,#822,#823,#824,#825,#826,#827,#828,#829,#830,#831,
#832,#833));
#835=DERIVED_UNIT_ELEMENT(#837,1.);
#836=DERIVED_UNIT_ELEMENT(#1615,-3.);
#837=(
MASS_UNIT()
NAMED_UNIT(*)
SI_UNIT(.KILO.,.GRAM.)
);
#838=DERIVED_UNIT((#835,#836));
#839=MEASURE_REPRESENTATION_ITEM('density measure',
POSITIVE_RATIO_MEASURE(7850.),#838);
#840=PROPERTY_DEFINITION_REPRESENTATION(#845,#842);
#841=PROPERTY_DEFINITION_REPRESENTATION(#846,#843);
#842=REPRESENTATION('material name',(#844),#1612);
#843=REPRESENTATION('density',(#839),#1612);
#844=DESCRIPTIVE_REPRESENTATION_ITEM('Steel','Steel');
#845=PROPERTY_DEFINITION('material property','material name',#1622);
#846=PROPERTY_DEFINITION('material property','density of part',#1622);
#847=AXIS2_PLACEMENT_3D('',#1166,#930,#931);
#848=AXIS2_PLACEMENT_3D('',#1167,#932,#933);
#849=AXIS2_PLACEMENT_3D('',#1177,#938,#939);
#850=AXIS2_PLACEMENT_3D('',#1178,#940,#941);
#851=AXIS2_PLACEMENT_3D('',#1183,#943,#944);
#852=AXIS2_PLACEMENT_3D('',#1185,#945,#946);
#853=AXIS2_PLACEMENT_3D('',#1188,#948,#949);
#854=AXIS2_PLACEMENT_3D('',#1225,#950,#951);
#855=AXIS2_PLACEMENT_3D('',#1229,#953,#954);
#856=AXIS2_PLACEMENT_3D('',#1233,#956,#957);
#857=AXIS2_PLACEMENT_3D('',#1235,#959,#960);
#858=AXIS2_PLACEMENT_3D('',#1303,#962,#963);
#859=AXIS2_PLACEMENT_3D('',#1306,#965,#966);
#860=AXIS2_PLACEMENT_3D('',#1310,#968,#969);
#861=AXIS2_PLACEMENT_3D('',#1314,#971,#972);
#862=AXIS2_PLACEMENT_3D('',#1318,#974,#975);
#863=AXIS2_PLACEMENT_3D('',#1320,#976,#977);
#864=AXIS2_PLACEMENT_3D('',#1322,#978,#979);
#865=AXIS2_PLACEMENT_3D('',#1326,#981,#982);
#866=AXIS2_PLACEMENT_3D('',#1330,#984,#985);
#867=AXIS2_PLACEMENT_3D('',#1334,#987,#988);
#868=AXIS2_PLACEMENT_3D('',#1360,#990,#991);
#869=AXIS2_PLACEMENT_3D('',#1362,#993,#994);
#870=AXIS2_PLACEMENT_3D('',#1438,#997,#998);
#871=AXIS2_PLACEMENT_3D('',#1440,#999,#1000);
#872=AXIS2_PLACEMENT_3D('',#1442,#1002,#1003);
#873=AXIS2_PLACEMENT_3D('',#1452,#1008,#1009);
#874=AXIS2_PLACEMENT_3D('',#1456,#1011,#1012);
#875=AXIS2_PLACEMENT_3D('',#1460,#1014,#1015);
#876=AXIS2_PLACEMENT_3D('',#1464,#1017,#1018);
#877=AXIS2_PLACEMENT_3D('',#1468,#1020,#1021);
#878=AXIS2_PLACEMENT_3D('',#1471,#1023,#1024);
#879=AXIS2_PLACEMENT_3D('',#1472,#1025,#1026);
#880=AXIS2_PLACEMENT_3D('',#1485,#1029,#1030);
#881=AXIS2_PLACEMENT_3D('',#1487,#1032,#1033);
#882=AXIS2_PLACEMENT_3D('',#1491,#1035,#1036);
#883=AXIS2_PLACEMENT_3D('',#1493,#1038,#1039);
#884=AXIS2_PLACEMENT_3D('',#1497,#1041,#1042);
#885=AXIS2_PLACEMENT_3D('',#1499,#1044,#1045);
#886=AXIS2_PLACEMENT_3D('',#1504,#1048,#1049);
#887=AXIS2_PLACEMENT_3D('',#1505,#1050,#1051);
#888=AXIS2_PLACEMENT_3D('',#1507,#1052,#1053);
#889=AXIS2_PLACEMENT_3D('',#1509,#1055,#1056);
#890=AXIS2_PLACEMENT_3D('',#1511,#1057,#1058);
#891=AXIS2_PLACEMENT_3D('',#1513,#1060,#1061);
#892=AXIS2_PLACEMENT_3D('',#1515,#1062,#1063);
#893=AXIS2_PLACEMENT_3D('',#1530,#1066,#1067);
#894=AXIS2_PLACEMENT_3D('',#1532,#1068,#1069);
#895=AXIS2_PLACEMENT_3D('',#1533,#1070,#1071);
#896=AXIS2_PLACEMENT_3D('',#1535,#1073,#1074);
#897=AXIS2_PLACEMENT_3D('',#1538,#1076,#1077);
#898=AXIS2_PLACEMENT_3D('',#1539,#1078,#1079);
#899=AXIS2_PLACEMENT_3D('',#1540,#1080,#1081);
#900=AXIS2_PLACEMENT_3D('',#1541,#1082,#1083);
#901=AXIS2_PLACEMENT_3D('',#1545,#1087,#1088);
#902=AXIS2_PLACEMENT_3D('',#1548,#1089,#1090);
#903=AXIS2_PLACEMENT_3D('',#1551,#1093,#1094);
#904=AXIS2_PLACEMENT_3D('',#1555,#1097,#1098);
#905=AXIS2_PLACEMENT_3D('',#1558,#1099,#1100);
#906=AXIS2_PLACEMENT_3D('',#1561,#1103,#1104);
#907=AXIS2_PLACEMENT_3D('',#1563,#1106,#1107);
#908=AXIS2_PLACEMENT_3D('',#1566,#1108,#1109);
#909=AXIS2_PLACEMENT_3D('',#1569,#1112,#1113);
#910=AXIS2_PLACEMENT_3D('',#1571,#1115,#1116);
#911=AXIS2_PLACEMENT_3D('',#1573,#1117,#1118);
#912=AXIS2_PLACEMENT_3D('',#1575,#1120,#1121);
#913=AXIS2_PLACEMENT_3D('',#1579,#1124,#1125);
#914=AXIS2_PLACEMENT_3D('',#1581,#1126,#1127);
#915=AXIS2_PLACEMENT_3D('',#1583,#1129,#1130);
#916=AXIS2_PLACEMENT_3D('',#1587,#1133,#1134);
#917=AXIS2_PLACEMENT_3D('',#1589,#1135,#1136);
#918=AXIS2_PLACEMENT_3D('',#1591,#1138,#1139);
#919=AXIS2_PLACEMENT_3D('',#1593,#1141,#1142);
#920=AXIS2_PLACEMENT_3D('',#1595,#1143,#1144);
#921=AXIS2_PLACEMENT_3D('',#1596,#1145,#1146);
#922=AXIS2_PLACEMENT_3D('',#1598,#1147,#1148);
#923=AXIS2_PLACEMENT_3D('',#1599,#1149,#1150);
#924=AXIS2_PLACEMENT_3D('',#1600,#1151,#1152);
#925=AXIS2_PLACEMENT_3D('',#1601,#1153,#1154);
#926=AXIS2_PLACEMENT_3D('',#1602,#1155,#1156);
#927=AXIS2_PLACEMENT_3D('',#1605,#1158,#1159);
#928=AXIS2_PLACEMENT_3D('',#1606,#1160,#1161);
#929=AXIS2_PLACEMENT_3D('',#1608,#1163,#1164);
#930=DIRECTION('axis',(0.,0.,1.));
#931=DIRECTION('refdir',(1.,0.,0.));
#932=DIRECTION('center_axis',(0.5,0.,-0.866025403784439));
#933=DIRECTION('ref_axis',(-0.866025403784439,0.,-0.5));
#934=DIRECTION('',(0.866025403784439,0.,0.5));
#935=DIRECTION('',(0.,1.,0.));
#936=DIRECTION('',(0.866025403784439,0.,0.5));
#937=DIRECTION('',(0.,-1.,0.));
#938=DIRECTION('center_axis',(-0.5,0.,0.866025403784439));
#939=DIRECTION('ref_axis',(-0.866025403784439,0.,-0.5));
#940=DIRECTION('center_axis',(0.500000000000001,0.,-0.866025403784438));
#941=DIRECTION('ref_axis',(0.866025403784438,-1.22464679914735E-16,0.500000000000002));
#942=DIRECTION('',(0.0519924265293822,0.529820837911981,0.846514422380288));
#943=DIRECTION('center_axis',(-0.5,0.,0.866025403784438));
#944=DIRECTION('ref_axis',(-0.866025403784439,0.,-0.5));
#945=DIRECTION('center_axis',(-0.5,0.,0.866025403784438));
#946=DIRECTION('ref_axis',(-0.866025403784439,0.,-0.5));
#947=DIRECTION('',(-0.0519924265293822,0.529820837911981,-0.846514422380288));
#948=DIRECTION('center_axis',(0.5,0.,-0.866025403784438));
#949=DIRECTION('ref_axis',(-0.866025403784438,0.,-0.5));
#950=DIRECTION('center_axis',(0.,1.,0.));
#951=DIRECTION('ref_axis',(-0.5,0.,0.866025403784439));
#952=DIRECTION('',(0.,1.,0.));
#953=DIRECTION('center_axis',(0.,-1.,0.));
#954=DIRECTION('ref_axis',(-0.5,0.,0.866025403784439));
#955=DIRECTION('',(0.,1.,0.));
#956=DIRECTION('center_axis',(0.,-1.,0.));
#957=DIRECTION('ref_axis',(-0.5,0.,0.866025403784439));
#958=DIRECTION('',(0.,1.,0.));
#959=DIRECTION('center_axis',(-0.5,0.,0.866025403784439));
#960=DIRECTION('ref_axis',(-0.866025403784439,0.,-0.5));
#961=DIRECTION('',(-0.5,0.,0.866025403784438));
#962=DIRECTION('center_axis',(0.,1.,0.));
#963=DIRECTION('ref_axis',(1.,0.,0.));
#964=DIRECTION('',(0.866025403784439,0.,0.499999999999999));
#965=DIRECTION('center_axis',(0.,1.,0.));
#966=DIRECTION('ref_axis',(1.,0.,0.));
#967=DIRECTION('',(-4.35463030469974E-15,0.,-1.));
#968=DIRECTION('center_axis',(0.,1.,0.));
#969=DIRECTION('ref_axis',(0.707106781186555,0.,-0.70710678118654));
#970=DIRECTION('',(-1.,0.,0.));
#971=DIRECTION('center_axis',(0.,1.,0.));
#972=DIRECTION('ref_axis',(-0.707106781186549,0.,-0.707106781186546));
#973=DIRECTION('',(1.49533387666383E-15,0.,1.));
#974=DIRECTION('center_axis',(0.,1.,0.));
#975=DIRECTION('ref_axis',(1.,0.,-1.69176841847643E-15));
#976=DIRECTION('center_axis',(0.,-1.,0.));
#977=DIRECTION('ref_axis',(1.,0.,0.));
#978=DIRECTION('center_axis',(0.,1.,0.));
#979=DIRECTION('ref_axis',(0.936674164566333,0.,0.350202097986238));
#980=DIRECTION('',(3.87550223325128E-16,0.,-1.));
#981=DIRECTION('center_axis',(0.,1.,0.));
#982=DIRECTION('ref_axis',(0.707106781186554,0.,-0.707106781186541));
#983=DIRECTION('',(-1.,0.,0.));
#984=DIRECTION('center_axis',(0.,1.,0.));
#985=DIRECTION('ref_axis',(-0.707106781186543,0.,-0.707106781186552));
#986=DIRECTION('',(4.14251150070857E-16,0.,1.));
#987=DIRECTION('center_axis',(0.,1.,0.));
#988=DIRECTION('ref_axis',(-0.731707317073171,0.,-0.681618956706445));
#989=DIRECTION('',(-0.5,0.,0.866025403784439));
#990=DIRECTION('center_axis',(0.5,0.,-0.866025403784438));
#991=DIRECTION('ref_axis',(-0.866025403784438,0.,-0.5));
#992=DIRECTION('',(0.866025403784438,0.,0.5));
#993=DIRECTION('center_axis',(0.866025403784439,0.,0.499999999999999));
#994=DIRECTION('ref_axis',(0.499999999999999,0.,-0.866025403784439));
#995=DIRECTION('',(0.5,0.,-0.866025403784439));
#996=DIRECTION('',(0.,1.,0.));
#997=DIRECTION('center_axis',(0.,1.,0.));
#998=DIRECTION('ref_axis',(1.,0.,0.));
#999=DIRECTION('center_axis',(0.,-1.,0.));
#1000=DIRECTION('ref_axis',(1.,0.,0.));
#1001=DIRECTION('',(0.,1.,0.));
#1002=DIRECTION('center_axis',(1.,0.,-4.14251150070857E-16));
#1003=DIRECTION('ref_axis',(4.14251150070857E-16,0.,1.));
#1004=DIRECTION('',(0.,-1.,0.));
#1005=DIRECTION('',(0.,1.,0.));
#1006=DIRECTION('',(-4.14251150070857E-16,0.,-1.));
#1007=DIRECTION('',(-3.58752019508282E-16,0.500000000000001,-0.866025403784438));
#1008=DIRECTION('center_axis',(-1.,0.,4.14251150070857E-16));
#1009=DIRECTION('ref_axis',(0.,-0.499999999999996,-0.866025403784441));
#1010=DIRECTION('',(0.,1.,0.));
#1011=DIRECTION('center_axis',(-1.,0.,4.14251150070857E-16));
#1012=DIRECTION('ref_axis',(0.,0.500000000000009,-0.866025403784434));
#1013=DIRECTION('',(3.58752019508282E-16,0.5,0.866025403784439));
#1014=DIRECTION('center_axis',(-1.,0.,4.14251150070857E-16));
#1015=DIRECTION('ref_axis',(0.,1.,0.));
#1016=DIRECTION('',(3.58752019508282E-16,-0.500000000000001,0.866025403784438));
#1017=DIRECTION('center_axis',(-1.,0.,4.14251150070857E-16));
#1018=DIRECTION('ref_axis',(0.,0.499999999999996,0.866025403784441));
#1019=DIRECTION('',(0.,-1.,0.));
#1020=DIRECTION('center_axis',(-1.,0.,4.14251150070857E-16));
#1021=DIRECTION('ref_axis',(0.,-0.500000000000009,0.866025403784434));
#1022=DIRECTION('',(-3.58752019508282E-16,-0.5,-0.866025403784439));
#1023=DIRECTION('center_axis',(-1.,0.,4.14251150070857E-16));
#1024=DIRECTION('ref_axis',(0.,-1.,0.));
#1025=DIRECTION('center_axis',(0.,-1.,0.));
#1026=DIRECTION('ref_axis',(0.707106781186555,0.,-0.70710678118654));
#1027=DIRECTION('',(0.,-1.,0.));
#1028=DIRECTION('',(0.,-1.,0.));
#1029=DIRECTION('center_axis',(0.,-1.,0.));
#1030=DIRECTION('ref_axis',(0.707106781186555,0.,-0.70710678118654));
#1031=DIRECTION('',(0.,1.,0.));
#1032=DIRECTION('center_axis',(0.,-1.,0.));
#1033=DIRECTION('ref_axis',(-0.707106781186549,0.,-0.707106781186546));
#1034=DIRECTION('',(0.,-1.,0.));
#1035=DIRECTION('center_axis',(0.,-1.,0.));
#1036=DIRECTION('ref_axis',(-0.707106781186549,0.,-0.707106781186546));
#1037=DIRECTION('',(0.,1.,0.));
#1038=DIRECTION('center_axis',(0.,-1.,0.));
#1039=DIRECTION('ref_axis',(0.707106781186554,0.,-0.707106781186541));
#1040=DIRECTION('',(0.,-1.,0.));
#1041=DIRECTION('center_axis',(0.,-1.,0.));
#1042=DIRECTION('ref_axis',(0.707106781186554,0.,-0.707106781186541));
#1043=DIRECTION('',(0.,1.,0.));
#1044=DIRECTION('center_axis',(1.,0.,-1.49533387666383E-15));
#1045=DIRECTION('ref_axis',(1.49533387666383E-15,0.,1.));
#1046=DIRECTION('',(-1.49533387666383E-15,0.,-1.));
#1047=DIRECTION('',(0.,-1.,0.));
#1048=DIRECTION('center_axis',(-1.,0.,1.49533387666383E-15));
#1049=DIRECTION('ref_axis',(0.,1.,0.));
#1050=DIRECTION('center_axis',(0.,1.,0.));
#1051=DIRECTION('ref_axis',(1.,0.,-1.69176841847643E-15));
#1052=DIRECTION('center_axis',(0.,-1.,0.));
#1053=DIRECTION('ref_axis',(1.,0.,-1.69176841847643E-15));
#1054=DIRECTION('',(0.,-1.,0.));
#1055=DIRECTION('center_axis',(0.,1.,0.));
#1056=DIRECTION('ref_axis',(-0.032956491881794,0.,0.999456787281394));
#1057=DIRECTION('center_axis',(0.,1.,0.));
#1058=DIRECTION('ref_axis',(1.,0.,0.));
#1059=DIRECTION('',(0.,-1.,0.));
#1060=DIRECTION('center_axis',(0.,-1.,0.));
#1061=DIRECTION('ref_axis',(0.936674164566333,0.,0.350202097986238));
#1062=DIRECTION('center_axis',(0.,-1.,0.));
#1063=DIRECTION('ref_axis',(0.936674164566333,0.,0.350202097986238));
#1064=DIRECTION('',(0.,1.,0.));
#1065=DIRECTION('',(0.,1.,0.));
#1066=DIRECTION('center_axis',(1.,0.,3.87550223325128E-16));
#1067=DIRECTION('ref_axis',(-3.87550223325128E-16,0.,1.));
#1068=DIRECTION('center_axis',(1.,0.,3.87550223325128E-16));
#1069=DIRECTION('ref_axis',(0.,1.,0.));
#1070=DIRECTION('center_axis',(1.,0.,3.87550223325128E-16));
#1071=DIRECTION('ref_axis',(0.,1.,0.));
#1072=DIRECTION('',(-3.87550223325128E-16,0.,1.));
#1073=DIRECTION('center_axis',(0.,1.,0.));
#1074=DIRECTION('ref_axis',(-0.707106781186543,0.,-0.707106781186552));
#1075=DIRECTION('',(0.,-1.,0.));
#1076=DIRECTION('center_axis',(0.,-1.,0.));
#1077=DIRECTION('ref_axis',(-0.707106781186543,0.,-0.707106781186552));
#1078=DIRECTION('center_axis',(0.,-1.,0.));
#1079=DIRECTION('ref_axis',(-0.731707317073171,0.,-0.681618956706445));
#1080=DIRECTION('center_axis',(0.,-1.,0.));
#1081=DIRECTION('ref_axis',(-0.731707317073171,0.,-0.681618956706445));
#1082=DIRECTION('center_axis',(0.,-1.,0.));
#1083=DIRECTION('ref_axis',(-1.,0.,0.));
#1084=DIRECTION('',(1.,0.,0.));
#1085=DIRECTION('',(1.,0.,0.));
#1086=DIRECTION('',(4.35463030469974E-15,0.,1.));
#1087=DIRECTION('center_axis',(1.,0.,0.));
#1088=DIRECTION('ref_axis',(0.,-0.499999999999996,-0.866025403784441));
#1089=DIRECTION('center_axis',(-1.,0.,0.));
#1090=DIRECTION('ref_axis',(0.,-0.499999999999996,-0.866025403784441));
#1091=DIRECTION('',(-1.,0.,0.));
#1092=DIRECTION('',(1.,0.,0.));
#1093=DIRECTION('center_axis',(0.,-0.866025403784438,-0.500000000000001));
#1094=DIRECTION('ref_axis',(0.,0.500000000000001,-0.866025403784438));
#1095=DIRECTION('',(-1.,0.,0.));
#1096=DIRECTION('',(0.,0.500000000000001,-0.866025403784438));
#1097=DIRECTION('center_axis',(1.,0.,0.));
#1098=DIRECTION('ref_axis',(0.,0.500000000000009,-0.866025403784434));
#1099=DIRECTION('center_axis',(-1.,0.,0.));
#1100=DIRECTION('ref_axis',(0.,0.500000000000009,-0.866025403784434));
#1101=DIRECTION('',(-1.,0.,0.));
#1102=DIRECTION('',(1.,0.,0.));
#1103=DIRECTION('center_axis',(0.,0.,-1.));
#1104=DIRECTION('ref_axis',(0.,1.,0.));
#1105=DIRECTION('',(0.,1.,0.));
#1106=DIRECTION('center_axis',(1.,0.,0.));
#1107=DIRECTION('ref_axis',(0.,1.,0.));
#1108=DIRECTION('center_axis',(-1.,0.,0.));
#1109=DIRECTION('ref_axis',(0.,1.,0.));
#1110=DIRECTION('',(-1.,0.,0.));
#1111=DIRECTION('',(1.,0.,0.));
#1112=DIRECTION('center_axis',(0.,0.866025403784439,-0.5));
#1113=DIRECTION('ref_axis',(0.,0.5,0.866025403784439));
#1114=DIRECTION('',(0.,0.5,0.866025403784439));
#1115=DIRECTION('center_axis',(1.,0.,0.));
#1116=DIRECTION('ref_axis',(0.,-1.,0.));
#1117=DIRECTION('center_axis',(-1.,0.,0.));
#1118=DIRECTION('ref_axis',(0.,-1.,0.));
#1119=DIRECTION('',(1.,0.,0.));
#1120=DIRECTION('center_axis',(0.,-0.866025403784439,0.5));
#1121=DIRECTION('ref_axis',(0.,-0.5,-0.866025403784439));
#1122=DIRECTION('',(-1.,0.,0.));
#1123=DIRECTION('',(0.,-0.5,-0.866025403784439));
#1124=DIRECTION('center_axis',(1.,0.,0.));
#1125=DIRECTION('ref_axis',(0.,-0.500000000000009,0.866025403784434));
#1126=DIRECTION('center_axis',(-1.,0.,0.));
#1127=DIRECTION('ref_axis',(0.,-0.500000000000009,0.866025403784434));
#1128=DIRECTION('',(1.,0.,0.));
#1129=DIRECTION('center_axis',(0.,0.,1.));
#1130=DIRECTION('ref_axis',(0.,-1.,0.));
#1131=DIRECTION('',(-1.,0.,0.));
#1132=DIRECTION('',(0.,-1.,0.));
#1133=DIRECTION('center_axis',(1.,0.,0.));
#1134=DIRECTION('ref_axis',(0.,0.499999999999996,0.866025403784441));
#1135=DIRECTION('center_axis',(-1.,0.,0.));
#1136=DIRECTION('ref_axis',(0.,0.499999999999996,0.866025403784441));
#1137=DIRECTION('',(1.,0.,0.));
#1138=DIRECTION('center_axis',(0.,0.866025403784438,0.500000000000001));
#1139=DIRECTION('ref_axis',(0.,-0.500000000000001,0.866025403784438));
#1140=DIRECTION('',(0.,-0.500000000000001,0.866025403784438));
#1141=DIRECTION('center_axis',(-1.,0.,0.));
#1142=DIRECTION('ref_axis',(0.,-1.,0.));
#1143=DIRECTION('center_axis',(-1.,0.,0.));
#1144=DIRECTION('ref_axis',(0.,1.,0.));
#1145=DIRECTION('center_axis',(1.,0.,0.));
#1146=DIRECTION('ref_axis',(0.,0.,1.));
#1147=DIRECTION('center_axis',(1.,0.,0.));
#1148=DIRECTION('ref_axis',(0.,1.,0.));
#1149=DIRECTION('center_axis',(1.,0.,0.));
#1150=DIRECTION('ref_axis',(0.,1.,0.));
#1151=DIRECTION('center_axis',(0.,0.,-1.));
#1152=DIRECTION('ref_axis',(0.,-1.,0.));
#1153=DIRECTION('center_axis',(0.,0.,-1.));
#1154=DIRECTION('ref_axis',(0.,-1.,0.));
#1155=DIRECTION('center_axis',(1.,0.,0.));
#1156=DIRECTION('ref_axis',(0.,1.,0.));
#1157=DIRECTION('',(-0.707106781186547,0.707106781186548,8.65956056235494E-17));
#1158=DIRECTION('center_axis',(-1.,0.,0.));
#1159=DIRECTION('ref_axis',(0.,1.,0.));
#1160=DIRECTION('center_axis',(-1.,0.,0.));
#1161=DIRECTION('ref_axis',(0.,1.,0.));
#1162=DIRECTION('',(-1.,0.,0.));
#1163=DIRECTION('center_axis',(-1.,0.,0.));
#1164=DIRECTION('ref_axis',(0.,1.,0.));
#1165=DIRECTION('',(-1.,0.,0.));
#1166=CARTESIAN_POINT('',(0.,0.,0.));
#1167=CARTESIAN_POINT('Origin',(4.20390618724546,2.50000000000079,-9.09005299945136));
#1168=CARTESIAN_POINT('',(1.02135843548497,35.5000050564868,-10.9274978006391));
#1169=CARTESIAN_POINT('',(38.9708031341263,35.5000050564868,10.9826243117182));
#1170=CARTESIAN_POINT('',(-5.56115060046854,35.5000050564868,-14.72791116449));
#1171=CARTESIAN_POINT('',(1.02135843548497,23.5000050564868,-10.9274978006391));
#1172=CARTESIAN_POINT('',(1.02135843548497,23.5000050564868,-10.9274978006391));
#1173=CARTESIAN_POINT('',(38.9708031341263,23.5000050564868,10.9826243117182));
#1174=CARTESIAN_POINT('',(-5.56115060046854,23.5000050564868,-14.72791116449));
#1175=CARTESIAN_POINT('',(38.9708031341263,23.5000050564868,10.9826243117182));
#1176=CARTESIAN_POINT('',(21.9969547142233,29.5000050564868,1.18276835730336));
#1177=CARTESIAN_POINT('Origin',(19.5720835836269,29.5000050564868,-0.217231642696642));
#1178=CARTESIAN_POINT('Origin',(21.0220835836269,29.5000050564868,-2.72870531367152));
#1179=CARTESIAN_POINT('',(18.7044416099342,25.7536059834718,-5.33696712328536));
#1180=CARTESIAN_POINT('',(18.8662040783589,27.4020215755984,-2.70323233416117));
#1181=CARTESIAN_POINT('',(18.7044416099342,25.7536059834718,-5.33696712328536));
#1182=CARTESIAN_POINT('',(22.8969547142233,29.5000050564868,-0.376077369508638));
#1183=CARTESIAN_POINT('Origin',(20.4720835836269,29.5000050564868,-1.77607736950863));
#1184=CARTESIAN_POINT('',(18.8662040783589,31.5979885373752,-2.70323233416117));
#1185=CARTESIAN_POINT('Origin',(20.4720835836269,29.5000050564868,-1.77607736950863));
#1186=CARTESIAN_POINT('',(18.7044416099342,33.2464041295018,-5.33696712328536));
#1187=CARTESIAN_POINT('',(18.8662040783589,31.5979885373752,-2.70323233416117));
#1188=CARTESIAN_POINT('Origin',(21.5720835836269,29.5000050564868,-3.68133325783441));
#1189=CARTESIAN_POINT('Ctrl Pts',(18.7044416099342,33.2464041295018,-5.33696712328536));
#1190=CARTESIAN_POINT('Ctrl Pts',(18.1810154675684,32.7122027104066,-5.63916734748111));
#1191=CARTESIAN_POINT('Ctrl Pts',(17.4023958309712,31.3465211846064,-6.17256775253165));
#1192=CARTESIAN_POINT('Ctrl Pts',(17.121636116576,28.4591053487638,-6.39449834039848));
#1193=CARTESIAN_POINT('Ctrl Pts',(17.9193023963855,26.5549081121145,-5.79026745957899));
#1194=CARTESIAN_POINT('Ctrl Pts',(18.7044416099342,25.7536059834718,-5.33696712328536));
#1195=CARTESIAN_POINT('Ctrl Pts',(18.7583624327424,32.6969322654596,-4.45905552691063));
#1196=CARTESIAN_POINT('Ctrl Pts',(18.3117054579236,32.2410803878317,-4.71693305155767));
#1197=CARTESIAN_POINT('Ctrl Pts',(17.6403188627002,31.075860072527,-5.16046771521677));
#1198=CARTESIAN_POINT('Ctrl Pts',(17.3955912041226,28.6116524099441,-5.34165055556349));
#1199=CARTESIAN_POINT('Ctrl Pts',(18.0883769705143,26.9868556639558,-4.8458718138812));
#1200=CARTESIAN_POINT('Ctrl Pts',(18.7583624327424,26.303077847514,-4.45905552691063));
#1201=CARTESIAN_POINT('Ctrl Pts',(18.8122832555507,32.1474604014174,-3.5811439305359));
#1202=CARTESIAN_POINT('Ctrl Pts',(18.4423954482789,31.7699580652568,-3.79469875563423));
#1203=CARTESIAN_POINT('Ctrl Pts',(17.8782418944292,30.8051989604475,-4.14836767790189));
#1204=CARTESIAN_POINT('Ctrl Pts',(17.6695462916692,28.7641994711245,-4.28880277072849));
#1205=CARTESIAN_POINT('Ctrl Pts',(18.257451544643,27.4188032157971,-3.9014761681834));
#1206=CARTESIAN_POINT('Ctrl Pts',(18.8122832555507,26.8525497115562,-3.5811439305359));
#1207=CARTESIAN_POINT('Ctrl Pts',(18.8662040783589,31.5979885373752,-2.70323233416117));
#1208=CARTESIAN_POINT('Ctrl Pts',(18.5730854386341,31.2988357426819,-2.87246445971079));
#1209=CARTESIAN_POINT('Ctrl Pts',(18.1161649261582,30.5345378483681,-3.13626764058701));
#1210=CARTESIAN_POINT('Ctrl Pts',(17.9435013792157,28.9167465323049,-3.2359549858935));
#1211=CARTESIAN_POINT('Ctrl Pts',(18.4265261187717,27.8507507676383,-2.95708052248561));
#1212=CARTESIAN_POINT('Ctrl Pts',(18.8662040783589,27.4020215755984,-2.70323233416117));
#1213=CARTESIAN_POINT('Ctrl Pts',(18.7044416099342,25.7536059834718,-5.33696712328536));
#1214=CARTESIAN_POINT('Ctrl Pts',(17.9193023963855,26.5549081121145,-5.79026745957899));
#1215=CARTESIAN_POINT('Ctrl Pts',(17.121636116576,28.4591053487638,-6.39449834039848));
#1216=CARTESIAN_POINT('Ctrl Pts',(17.4023958309712,31.3465211846064,-6.17256775253165));
#1217=CARTESIAN_POINT('Ctrl Pts',(18.1810154675684,32.7122027104066,-5.63916734748111));
#1218=CARTESIAN_POINT('Ctrl Pts',(18.7044416099342,33.2464041295018,-5.33696712328536));
#1219=CARTESIAN_POINT('Ctrl Pts',(18.8662040783589,31.5979885373752,-2.70323233416117));
#1220=CARTESIAN_POINT('Ctrl Pts',(18.5730854386341,31.2988357426819,-2.87246445971079));
#1221=CARTESIAN_POINT('Ctrl Pts',(18.1161649261582,30.5345378483681,-3.13626764058701));
#1222=CARTESIAN_POINT('Ctrl Pts',(17.9435013792157,28.9167465323049,-3.2359549858935));
#1223=CARTESIAN_POINT('Ctrl Pts',(18.4265261187717,27.8507507676383,-2.95708052248561));
#1224=CARTESIAN_POINT('Ctrl Pts',(18.8662040783589,27.4020215755984,-2.70323233416117));
#1225=CARTESIAN_POINT('Origin',(26.2044416099342,23.5000050564868,-18.3273481800519));
#1226=CARTESIAN_POINT('',(18.7044416099342,23.5000050564868,-5.33696712328536));
#1227=CARTESIAN_POINT('',(18.7044416099342,23.5000050564868,-5.33696712328536));
#1228=CARTESIAN_POINT('',(14.7186318179134,23.5000050564868,-27.9749475405934));
#1229=CARTESIAN_POINT('Origin',(26.2044416099342,23.5000050564868,-18.3273481800519));
#1230=CARTESIAN_POINT('',(14.7186318179134,35.5000050564868,-27.9749475405934));
#1231=CARTESIAN_POINT('',(14.7186318179134,23.5000050564868,-27.9749475405934));
#1232=CARTESIAN_POINT('',(18.7044416099342,35.5000050564868,-5.33696712328536));
#1233=CARTESIAN_POINT('Origin',(26.2044416099342,35.5000050564868,-18.3273481800519));
#1234=CARTESIAN_POINT('',(18.7044416099342,23.5000050564868,-5.33696712328536));
#1235=CARTESIAN_POINT('Origin',(19.5720835836269,29.5000050564868,-0.217231642696644));
#1236=CARTESIAN_POINT('',(21.9969547142233,29.5000050564868,1.18276835730336));
#1237=CARTESIAN_POINT('Ctrl Pts',(39.4708031341263,23.5000050564868,10.1165989079338));
#1238=CARTESIAN_POINT('Ctrl Pts',(39.4708031341263,27.5000050564868,10.1165989079338));
#1239=CARTESIAN_POINT('Ctrl Pts',(39.4708031341263,31.5000050564868,10.1165989079338));
#1240=CARTESIAN_POINT('Ctrl Pts',(39.4708031341263,35.5000050564868,10.1165989079338));
#1241=CARTESIAN_POINT('Ctrl Pts',(39.6728336430367,23.5000050564868,9.76667180182192));
#1242=CARTESIAN_POINT('Ctrl Pts',(39.6728336430367,27.5000050564868,9.76667180182192));
#1243=CARTESIAN_POINT('Ctrl Pts',(39.6728336430367,31.5000050564868,9.76667180182192));
#1244=CARTESIAN_POINT('Ctrl Pts',(39.6728336430367,35.5000050564868,9.76667180182192));
#1245=CARTESIAN_POINT('Ctrl Pts',(39.6772207358472,23.5000050564868,8.74581621728201));
#1246=CARTESIAN_POINT('Ctrl Pts',(39.6772207358472,27.5000050564868,8.74581621728201));
#1247=CARTESIAN_POINT('Ctrl Pts',(39.6772207358472,31.5000050564868,8.74581621728201));
#1248=CARTESIAN_POINT('Ctrl Pts',(39.6772207358472,35.5000050564868,8.74581621728201));
#1249=CARTESIAN_POINT('Ctrl Pts',(38.1991294998244,23.5000050564868,6.77475298325017));
#1250=CARTESIAN_POINT('Ctrl Pts',(38.1991294998244,27.5000050564868,6.77475298325017));
#1251=CARTESIAN_POINT('Ctrl Pts',(38.1991294998243,31.5000050564868,6.77475298325017));
#1252=CARTESIAN_POINT('Ctrl Pts',(38.1991294998243,35.5000050564868,6.77475298325017));
#1253=CARTESIAN_POINT('Ctrl Pts',(35.8808811692173,23.5000050564868,4.72938106913598));
#1254=CARTESIAN_POINT('Ctrl Pts',(35.8808811692173,27.5000050564868,4.72938106913598));
#1255=CARTESIAN_POINT('Ctrl Pts',(35.8808811692173,31.5000050564868,4.72938106913598));
#1256=CARTESIAN_POINT('Ctrl Pts',(35.8808811692173,35.5000050564868,4.72938106913598));
#1257=CARTESIAN_POINT('Ctrl Pts',(34.226355818402,23.5000050564868,3.62461422331181));
#1258=CARTESIAN_POINT('Ctrl Pts',(34.226355818402,27.5000050564868,3.62461422331181));
#1259=CARTESIAN_POINT('Ctrl Pts',(34.226355818402,31.5000050564868,3.62461422331181));
#1260=CARTESIAN_POINT('Ctrl Pts',(34.226355818402,35.5000050564868,3.62461422331181));
#1261=CARTESIAN_POINT('Ctrl Pts',(33.1765745000663,23.5000050564868,3.01852269658048));
#1262=CARTESIAN_POINT('Ctrl Pts',(33.1765745000663,27.5000050564868,3.01852269658048));
#1263=CARTESIAN_POINT('Ctrl Pts',(33.1765745000663,31.5000050564868,3.01852269658048));
#1264=CARTESIAN_POINT('Ctrl Pts',(33.1765745000663,35.5000050564868,3.01852269658048));
#1265=CARTESIAN_POINT('',(33.1765745000663,35.5000050564868,3.01852269658048));
#1266=CARTESIAN_POINT('',(39.4708031341263,35.5000050564868,10.1165989079338));
#1267=CARTESIAN_POINT('Ctrl Pts',(33.1765745000663,35.5000050564868,3.01852269658048));
#1268=CARTESIAN_POINT('Ctrl Pts',(34.226355818402,35.5000050564868,3.62461422331181));
#1269=CARTESIAN_POINT('Ctrl Pts',(35.3293727189455,35.5000050564868,4.36112545386126));
#1270=CARTESIAN_POINT('Ctrl Pts',(36.3152445739552,35.5000050564868,5.15206170780819));
#1271=CARTESIAN_POINT('Ctrl Pts',(36.8081805014601,35.5000050564868,5.54752983478166));
#1272=CARTESIAN_POINT('Ctrl Pts',(37.2718301675815,35.5000050564868,5.95660421760449));
#1273=CARTESIAN_POINT('Ctrl Pts',(37.6794693607306,35.5000050564868,6.36072468842184));
#1274=CARTESIAN_POINT('Ctrl Pts',(38.4947477470289,35.5000050564868,7.16896563005654));
#1275=CARTESIAN_POINT('Ctrl Pts',(39.085984241438,35.5000050564868,7.95739092366928));
#1276=CARTESIAN_POINT('Ctrl Pts',(39.38050571544,35.5000050564868,8.60681746661062));
#1277=CARTESIAN_POINT('Ctrl Pts',(39.6750271894419,35.5000050564868,9.25624400955196));
#1278=CARTESIAN_POINT('Ctrl Pts',(39.6728336430367,35.5000050564868,9.76667180182192));
#1279=CARTESIAN_POINT('Ctrl Pts',(39.4708031341263,35.5000050564868,10.1165989079338));
#1280=CARTESIAN_POINT('',(39.4708031341263,23.5000050564868,10.1165989079338));
#1281=CARTESIAN_POINT('Ctrl Pts',(39.4708031341263,35.5000050564868,10.1165989079338));
#1282=CARTESIAN_POINT('Ctrl Pts',(39.4708031341263,31.5000050564868,10.1165989079338));
#1283=CARTESIAN_POINT('Ctrl Pts',(39.4708031341263,27.5000050564868,10.1165989079338));
#1284=CARTESIAN_POINT('Ctrl Pts',(39.4708031341263,23.5000050564868,10.1165989079338));
#1285=CARTESIAN_POINT('',(33.1765745000663,23.5000050564868,3.01852269658048));
#1286=CARTESIAN_POINT('Ctrl Pts',(39.4708031341263,23.5000050564868,10.1165989079338));
#1287=CARTESIAN_POINT('Ctrl Pts',(39.6728336430367,23.5000050564868,9.76667180182192));
#1288=CARTESIAN_POINT('Ctrl Pts',(39.6750271894419,23.5000050564868,9.25624400955196));
#1289=CARTESIAN_POINT('Ctrl Pts',(39.38050571544,23.5000050564868,8.60681746661062));
#1290=CARTESIAN_POINT('Ctrl Pts',(39.085984241438,23.5000050564868,7.95739092366928));
#1291=CARTESIAN_POINT('Ctrl Pts',(38.4947477470289,23.5000050564868,7.16896563005654));
#1292=CARTESIAN_POINT('Ctrl Pts',(37.6794693607306,23.5000050564868,6.36072468842184));
#1293=CARTESIAN_POINT('Ctrl Pts',(37.2718301675815,23.5000050564868,5.95660421760449));
#1294=CARTESIAN_POINT('Ctrl Pts',(36.8081805014601,23.5000050564868,5.54752983478166));
#1295=CARTESIAN_POINT('Ctrl Pts',(36.3152445739552,23.5000050564868,5.15206170780819));
#1296=CARTESIAN_POINT('Ctrl Pts',(35.3293727189455,23.5000050564868,4.36112545386126));
#1297=CARTESIAN_POINT('Ctrl Pts',(34.226355818402,23.5000050564868,3.62461422331181));
#1298=CARTESIAN_POINT('Ctrl Pts',(33.1765745000663,23.5000050564868,3.01852269658048));
#1299=CARTESIAN_POINT('Ctrl Pts',(33.1765745000663,23.5000050564868,3.01852269658048));
#1300=CARTESIAN_POINT('Ctrl Pts',(33.1765745000663,27.5000050564868,3.01852269658048));
#1301=CARTESIAN_POINT('Ctrl Pts',(33.1765745000663,31.5000050564868,3.01852269658048));
#1302=CARTESIAN_POINT('Ctrl Pts',(33.1765745000663,35.5000050564868,3.01852269658048));
#1303=CARTESIAN_POINT('Origin',(-10.978641564515,35.5000050564868,-15.16));
#1304=CARTESIAN_POINT('',(40.21649500743,35.5000050564868,7.08302269658049));
#1305=CARTESIAN_POINT('',(14.021358435485,35.5000050564868,-55.1331886124821));
#1306=CARTESIAN_POINT('Origin',(-0.978641564515027,35.5000050564868,-41.16));
#1307=CARTESIAN_POINT('',(14.021358435485,35.5000050564868,-65.8534769394311));
#1308=CARTESIAN_POINT('',(14.0213584354851,35.5000050564868,-36.4213558209292));
#1309=CARTESIAN_POINT('',(13.021358435485,35.5000050564868,-66.8534769394311));
#1310=CARTESIAN_POINT('Origin',(13.021358435485,35.5000050564868,-65.8534769394311));
#1311=CARTESIAN_POINT('',(11.021358435485,35.5000050564868,-66.8534769394311));
#1312=CARTESIAN_POINT('',(1.52135843548497,35.5000050564868,-66.8534769394311));
#1313=CARTESIAN_POINT('',(10.021358435485,35.5000050564868,-65.8534769394311));
#1314=CARTESIAN_POINT('Origin',(11.021358435485,35.5000050564868,-65.8534769394311));
#1315=CARTESIAN_POINT('',(10.021358435485,35.5000050564868,-57.4924829710611));
#1316=CARTESIAN_POINT('',(10.021358435485,35.5000050564868,-41.0067384697156));
#1317=CARTESIAN_POINT('',(12.1602473243739,35.5000050564868,-51.1409618156484));
#1318=CARTESIAN_POINT('Origin',(20.521358435485,35.5000050564868,-57.4924829710611));
#1319=CARTESIAN_POINT('',(-13.4314717531943,35.5000050564868,-51.984833499501));
#1320=CARTESIAN_POINT('Origin',(-0.978641564515027,35.5000050564868,-41.16));
#1321=CARTESIAN_POINT('',(-10.978641564515,35.5000050564868,-58.5453386507137));
#1322=CARTESIAN_POINT('Origin',(-20.978641564515,35.5000050564868,-58.5453386507137));
#1323=CARTESIAN_POINT('',(-10.978641564515,35.5000050564868,-65.8534777359789));
#1324=CARTESIAN_POINT('',(-10.978641564515,35.5000050564868,-39.2067384697155));
#1325=CARTESIAN_POINT('',(-11.978641564515,35.5000050564868,-66.8534777359789));
#1326=CARTESIAN_POINT('Origin',(-11.978641564515,35.5000050564868,-65.8534777359789));
#1327=CARTESIAN_POINT('',(-14.978641564515,35.5000050564868,-66.8534777359789));
#1328=CARTESIAN_POINT('',(1.52135843548497,35.5000050564868,-66.8534769394311));
#1329=CARTESIAN_POINT('',(-15.978641564515,35.5000050564868,-65.8534777359789));
#1330=CARTESIAN_POINT('Origin',(-14.978641564515,35.5000050564868,-65.8534777359789));
#1331=CARTESIAN_POINT('',(-15.978641564515,35.5000050564868,-55.1331886124821));
#1332=CARTESIAN_POINT('',(-15.978641564515,35.5000050564868,-36.2067384697156));
#1333=CARTESIAN_POINT('',(-9.98828553323412,35.5000050564868,-22.7459750310552));
#1334=CARTESIAN_POINT('Origin',(-0.978641564515031,35.5000050564868,-41.16));
#1335=CARTESIAN_POINT('Ctrl Pts',(-9.98828553323409,35.5000050564868,-22.7459750310552));
#1336=CARTESIAN_POINT('Ctrl Pts',(-9.95158884593533,35.5000050564868,-22.7253881191391));
#1337=CARTESIAN_POINT('Ctrl Pts',(-9.72886636321326,35.5000050564868,-22.600323963027));
#1338=CARTESIAN_POINT('Ctrl Pts',(-9.32724936329771,35.5000050564868,-22.3734975934599));
#1339=CARTESIAN_POINT('Ctrl Pts',(-8.76208405854945,35.5000050564868,-22.0506741623011));
#1340=CARTESIAN_POINT('Ctrl Pts',(-8.05647999337812,35.5000050564868,-21.6401037714871));
#1341=CARTESIAN_POINT('Ctrl Pts',(-7.2668215409746,35.5000050564868,-21.1675843709367));
#1342=CARTESIAN_POINT('Ctrl Pts',(-6.52198851428062,35.5000050564868,-20.7062251255488));
#1343=CARTESIAN_POINT('Ctrl Pts',(-5.81104935038615,35.5000050564868,-20.247041430765));
#1344=CARTESIAN_POINT('Ctrl Pts',(-5.12012948859541,35.5000050564868,-19.7783673694058));
#1345=CARTESIAN_POINT('Ctrl Pts',(-4.43614207485246,35.5000050564868,-19.2877268382266));
#1346=CARTESIAN_POINT('Ctrl Pts',(-3.74989348051168,35.5000050564868,-18.7633652474419));
#1347=CARTESIAN_POINT('Ctrl Pts',(-3.05948794477326,35.5000050564868,-18.1959468122243));
#1348=CARTESIAN_POINT('Ctrl Pts',(-2.37370973456252,35.5000050564868,-17.5802475568799));
#1349=CARTESIAN_POINT('Ctrl Pts',(-1.70846147080124,35.5000050564868,-16.9141710422439));
#1350=CARTESIAN_POINT('Ctrl Pts',(-1.08324689112496,35.5000050564868,-16.1978270666446));
#1351=CARTESIAN_POINT('Ctrl Pts',(-0.517733559907551,35.5000050564868,-15.4326857352078));
#1352=CARTESIAN_POINT('Ctrl Pts',(-0.0281781565865049,35.5000050564868,
-14.6207741615822));
#1353=CARTESIAN_POINT('Ctrl Pts',(0.375947495610354,35.5000050564868,-13.7639495348718));
#1354=CARTESIAN_POINT('Ctrl Pts',(0.690000896456948,35.5000050564868,-12.863789548856));
#1355=CARTESIAN_POINT('Ctrl Pts',(0.868073719660889,35.5000050564868,-12.1099481173758));
#1356=CARTESIAN_POINT('Ctrl Pts',(0.960604572031039,35.5000050564868,-11.5259380829444));
#1357=CARTESIAN_POINT('Ctrl Pts',(1.00413354129669,35.5000050564868,-11.1283522054234));
#1358=CARTESIAN_POINT('Ctrl Pts',(1.02135843548497,35.5000050564868,-10.9274978006391));
#1359=CARTESIAN_POINT('',(38.9708031341263,35.5000050564868,10.9826243117182));
#1360=CARTESIAN_POINT('Origin',(40.21649500743,23.5000050564868,7.08302269658049));
#1361=CARTESIAN_POINT('',(18.7044416099342,23.5000050564868,-5.33696712328536));
#1362=CARTESIAN_POINT('Origin',(38.9708031341263,23.5000050564868,10.9826243117182));
#1363=CARTESIAN_POINT('',(38.9708031341263,23.5000050564868,10.9826243117182));
#1364=CARTESIAN_POINT('Ctrl Pts',(-9.98828553323409,23.5000050564868,-22.7459750310552));
#1365=CARTESIAN_POINT('Ctrl Pts',(-9.98828553323409,35.5000050564868,-22.7459750310552));
#1366=CARTESIAN_POINT('Ctrl Pts',(-9.95158884593533,23.5000050564868,-22.7253881191391));
#1367=CARTESIAN_POINT('Ctrl Pts',(-9.95158884593533,35.5000050564868,-22.7253881191391));
#1368=CARTESIAN_POINT('Ctrl Pts',(-9.72886636321326,23.5000050564868,-22.600323963027));
#1369=CARTESIAN_POINT('Ctrl Pts',(-9.72886636321326,35.5000050564868,-22.600323963027));
#1370=CARTESIAN_POINT('Ctrl Pts',(-9.32724936329771,23.5000050564868,-22.3734975934599));
#1371=CARTESIAN_POINT('Ctrl Pts',(-9.32724936329771,35.5000050564868,-22.3734975934599));
#1372=CARTESIAN_POINT('Ctrl Pts',(-8.76208405854945,23.5000050564868,-22.0506741623011));
#1373=CARTESIAN_POINT('Ctrl Pts',(-8.76208405854945,35.5000050564868,-22.0506741623011));
#1374=CARTESIAN_POINT('Ctrl Pts',(-8.05647999337812,23.5000050564868,-21.6401037714871));
#1375=CARTESIAN_POINT('Ctrl Pts',(-8.05647999337812,35.5000050564868,-21.6401037714871));
#1376=CARTESIAN_POINT('Ctrl Pts',(-7.2668215409746,23.5000050564868,-21.1675843709367));
#1377=CARTESIAN_POINT('Ctrl Pts',(-7.2668215409746,35.5000050564868,-21.1675843709367));
#1378=CARTESIAN_POINT('Ctrl Pts',(-6.52198851428062,23.5000050564868,-20.7062251255488));
#1379=CARTESIAN_POINT('Ctrl Pts',(-6.52198851428062,35.5000050564868,-20.7062251255488));
#1380=CARTESIAN_POINT('Ctrl Pts',(-5.81104935038615,23.5000050564868,-20.247041430765));
#1381=CARTESIAN_POINT('Ctrl Pts',(-5.81104935038615,35.5000050564868,-20.247041430765));
#1382=CARTESIAN_POINT('Ctrl Pts',(-5.12012948859541,23.5000050564868,-19.7783673694058));
#1383=CARTESIAN_POINT('Ctrl Pts',(-5.12012948859541,35.5000050564868,-19.7783673694058));
#1384=CARTESIAN_POINT('Ctrl Pts',(-4.43614207485246,23.5000050564868,-19.2877268382266));
#1385=CARTESIAN_POINT('Ctrl Pts',(-4.43614207485246,35.5000050564868,-19.2877268382266));
#1386=CARTESIAN_POINT('Ctrl Pts',(-3.74989348051168,23.5000050564868,-18.7633652474419));
#1387=CARTESIAN_POINT('Ctrl Pts',(-3.74989348051168,35.5000050564868,-18.7633652474419));
#1388=CARTESIAN_POINT('Ctrl Pts',(-3.05948794477326,23.5000050564868,-18.1959468122243));
#1389=CARTESIAN_POINT('Ctrl Pts',(-3.05948794477326,35.5000050564868,-18.1959468122243));
#1390=CARTESIAN_POINT('Ctrl Pts',(-2.37370973456252,23.5000050564868,-17.5802475568799));
#1391=CARTESIAN_POINT('Ctrl Pts',(-2.37370973456252,35.5000050564868,-17.5802475568799));
#1392=CARTESIAN_POINT('Ctrl Pts',(-1.70846147080124,23.5000050564868,-16.9141710422439));
#1393=CARTESIAN_POINT('Ctrl Pts',(-1.70846147080124,35.5000050564868,-16.9141710422439));
#1394=CARTESIAN_POINT('Ctrl Pts',(-1.08324689112496,23.5000050564868,-16.1978270666446));
#1395=CARTESIAN_POINT('Ctrl Pts',(-1.08324689112496,35.5000050564868,-16.1978270666446));
#1396=CARTESIAN_POINT('Ctrl Pts',(-0.517733559907551,23.5000050564868,-15.4326857352078));
#1397=CARTESIAN_POINT('Ctrl Pts',(-0.517733559907551,35.5000050564868,-15.4326857352078));
#1398=CARTESIAN_POINT('Ctrl Pts',(-0.0281781565865049,23.5000050564868,
-14.6207741615822));
#1399=CARTESIAN_POINT('Ctrl Pts',(-0.0281781565865049,35.5000050564868,
-14.6207741615822));
#1400=CARTESIAN_POINT('Ctrl Pts',(0.375947495610354,23.5000050564868,-13.7639495348718));
#1401=CARTESIAN_POINT('Ctrl Pts',(0.375947495610354,35.5000050564868,-13.7639495348718));
#1402=CARTESIAN_POINT('Ctrl Pts',(0.690000896456948,23.5000050564868,-12.863789548856));
#1403=CARTESIAN_POINT('Ctrl Pts',(0.690000896456948,35.5000050564868,-12.863789548856));
#1404=CARTESIAN_POINT('Ctrl Pts',(0.868073719660889,23.5000050564868,-12.1099481173758));
#1405=CARTESIAN_POINT('Ctrl Pts',(0.868073719660889,35.5000050564868,-12.1099481173758));
#1406=CARTESIAN_POINT('Ctrl Pts',(0.960604572031039,23.5000050564868,-11.5259380829444));
#1407=CARTESIAN_POINT('Ctrl Pts',(0.960604572031039,35.5000050564868,-11.5259380829444));
#1408=CARTESIAN_POINT('Ctrl Pts',(1.00413354129669,23.5000050564868,-11.1283522054234));
#1409=CARTESIAN_POINT('Ctrl Pts',(1.00413354129669,35.5000050564868,-11.1283522054234));
#1410=CARTESIAN_POINT('Ctrl Pts',(1.02135843548497,23.5000050564868,-10.9274978006391));
#1411=CARTESIAN_POINT('Ctrl Pts',(1.02135843548497,35.5000050564868,-10.9274978006391));
#1412=CARTESIAN_POINT('',(-9.98828553323412,23.5000050564868,-22.7459750310552));
#1413=CARTESIAN_POINT('Ctrl Pts',(1.02135843548497,23.5000050564868,-10.9274978006391));
#1414=CARTESIAN_POINT('Ctrl Pts',(1.00413354129669,23.5000050564868,-11.1283522054234));
#1415=CARTESIAN_POINT('Ctrl Pts',(0.960604572031039,23.5000050564868,-11.5259380829444));
#1416=CARTESIAN_POINT('Ctrl Pts',(0.868073719660889,23.5000050564868,-12.1099481173758));
#1417=CARTESIAN_POINT('Ctrl Pts',(0.690000896456948,23.5000050564868,-12.863789548856));
#1418=CARTESIAN_POINT('Ctrl Pts',(0.375947495610354,23.5000050564868,-13.7639495348718));
#1419=CARTESIAN_POINT('Ctrl Pts',(-0.0281781565865049,23.5000050564868,
-14.6207741615822));
#1420=CARTESIAN_POINT('Ctrl Pts',(-0.517733559907551,23.5000050564868,-15.4326857352078));
#1421=CARTESIAN_POINT('Ctrl Pts',(-1.08324689112496,23.5000050564868,-16.1978270666446));
#1422=CARTESIAN_POINT('Ctrl Pts',(-1.70846147080124,23.5000050564868,-16.9141710422439));
#1423=CARTESIAN_POINT('Ctrl Pts',(-2.37370973456252,23.5000050564868,-17.5802475568799));
#1424=CARTESIAN_POINT('Ctrl Pts',(-3.05948794477326,23.5000050564868,-18.1959468122243));
#1425=CARTESIAN_POINT('Ctrl Pts',(-3.74989348051168,23.5000050564868,-18.7633652474419));
#1426=CARTESIAN_POINT('Ctrl Pts',(-4.43614207485246,23.5000050564868,-19.2877268382266));
#1427=CARTESIAN_POINT('Ctrl Pts',(-5.12012948859541,23.5000050564868,-19.7783673694058));
#1428=CARTESIAN_POINT('Ctrl Pts',(-5.81104935038615,23.5000050564868,-20.247041430765));
#1429=CARTESIAN_POINT('Ctrl Pts',(-6.52198851428062,23.5000050564868,-20.7062251255488));
#1430=CARTESIAN_POINT('Ctrl Pts',(-7.2668215409746,23.5000050564868,-21.1675843709367));
#1431=CARTESIAN_POINT('Ctrl Pts',(-8.05647999337812,23.5000050564868,-21.6401037714871));
#1432=CARTESIAN_POINT('Ctrl Pts',(-8.76208405854945,23.5000050564868,-22.0506741623011));
#1433=CARTESIAN_POINT('Ctrl Pts',(-9.32724936329772,23.5000050564868,-22.3734975934599));
#1434=CARTESIAN_POINT('Ctrl Pts',(-9.72886636321328,23.5000050564868,-22.600323963027));
#1435=CARTESIAN_POINT('Ctrl Pts',(-9.95158884593536,23.5000050564868,-22.7253881191391));
#1436=CARTESIAN_POINT('Ctrl Pts',(-9.98828553323412,23.5000050564868,-22.7459750310552));
#1437=CARTESIAN_POINT('',(-9.98828553323409,23.5000050564868,-22.7459750310552));
#1438=CARTESIAN_POINT('Origin',(-0.978641564515027,23.5000050564868,-41.16));
#1439=CARTESIAN_POINT('',(14.021358435485,23.5000050564868,-55.1331886124821));
#1440=CARTESIAN_POINT('Origin',(-0.978641564515027,23.5000050564868,-41.16));
#1441=CARTESIAN_POINT('',(14.021358435485,23.5000050564868,-55.1331886124821));
#1442=CARTESIAN_POINT('Origin',(-15.978641564515,35.5000050564868,-57.2534769394311));
#1443=CARTESIAN_POINT('',(-15.978641564515,23.5000050564868,-55.1331886124821));
#1444=CARTESIAN_POINT('',(-15.978641564515,35.5000050564868,-55.1331886124821));
#1445=CARTESIAN_POINT('',(-15.978641564515,23.5000050564868,-65.8534777359789));
#1446=CARTESIAN_POINT('',(-15.978641564515,35.5000050564868,-65.8534777359789));
#1447=CARTESIAN_POINT('',(-15.978641564515,23.5000050564868,-36.2067384697155));
#1448=CARTESIAN_POINT('',(-15.978641564515,24.6213952818344,-61.2034769394311));
#1449=CARTESIAN_POINT('',(-15.978641564515,26.9307963585929,-65.2034769394311));
#1450=CARTESIAN_POINT('',(-15.978641564515,25.0827201472396,-62.0025150451078));
#1451=CARTESIAN_POINT('',(-15.978641564515,27.1906039797283,-65.3534769394311));
#1452=CARTESIAN_POINT('Origin',(-15.978641564515,27.1906039797283,-65.0534769394311));
#1453=CARTESIAN_POINT('',(-15.978641564515,31.8094061332453,-65.3534769394311));
#1454=CARTESIAN_POINT('',(-15.978641564515,31.2587019777291,-65.3534769394311));
#1455=CARTESIAN_POINT('',(-15.978641564515,32.0692137543806,-65.2034769394311));
#1456=CARTESIAN_POINT('Origin',(-15.978641564515,31.8094061332453,-65.0534769394311));
#1457=CARTESIAN_POINT('',(-15.978641564515,34.3786148311391,-61.2034769394311));
#1458=CARTESIAN_POINT('',(-15.978641564515,34.1759868869762,-61.5544388337544));
#1459=CARTESIAN_POINT('',(-15.978641564515,34.3786148311391,-60.9034769394311));
#1460=CARTESIAN_POINT('Origin',(-15.978641564515,34.1188072100038,-61.0534769394311));
#1461=CARTESIAN_POINT('',(-15.978641564515,32.0692137543806,-56.9034769394311));
#1462=CARTESIAN_POINT('',(-15.978641564515,33.7718416985435,-59.8525150451078));
#1463=CARTESIAN_POINT('',(-15.978641564515,31.8094061332453,-56.7534769394311));
#1464=CARTESIAN_POINT('Origin',(-15.978641564515,31.8094061332453,-57.0534769394311));
#1465=CARTESIAN_POINT('',(-15.978641564515,27.1906039797283,-56.7534769394311));
#1466=CARTESIAN_POINT('',(-15.978641564515,33.7413081352445,-56.7534769394311));
#1467=CARTESIAN_POINT('',(-15.978641564515,26.9307963585929,-56.9034769394311));
#1468=CARTESIAN_POINT('Origin',(-15.978641564515,27.1906039797283,-57.0534769394311));
#1469=CARTESIAN_POINT('',(-15.978641564515,24.6213952818344,-60.9034769394311));
#1470=CARTESIAN_POINT('',(-15.978641564515,27.9694714931878,-55.1044388337544));
#1471=CARTESIAN_POINT('Origin',(-15.978641564515,24.8812029029698,-61.0534769394311));
#1472=CARTESIAN_POINT('Origin',(13.021358435485,35.5000050564868,-65.8534769394311));
#1473=CARTESIAN_POINT('',(14.021358435485,30.9000050564867,-65.8534769394311));
#1474=CARTESIAN_POINT('',(14.021358435485,35.5000050564868,-65.8534769394311));
#1475=CARTESIAN_POINT('',(14.021358435485,28.1000050564868,-65.8534769394311));
#1476=CARTESIAN_POINT('Ctrl Pts',(14.021358435485,28.1000050564868,-65.8534769394311));
#1477=CARTESIAN_POINT('Ctrl Pts',(14.021358435485,28.537614076232,-65.9811129035234));
#1478=CARTESIAN_POINT('Ctrl Pts',(14.0044536249695,29.0572898050293,-66.0365721289156));
#1479=CARTESIAN_POINT('Ctrl Pts',(14.0044536249695,29.9427203079443,-66.0365721289156));
#1480=CARTESIAN_POINT('Ctrl Pts',(14.021358435485,30.4623960367415,-65.9811129035234));
#1481=CARTESIAN_POINT('Ctrl Pts',(14.021358435485,30.9000050564867,-65.8534769394311));
#1482=CARTESIAN_POINT('',(14.021358435485,23.5000050564868,-65.8534769394311));
#1483=CARTESIAN_POINT('',(14.021358435485,35.5000050564868,-65.8534769394311));
#1484=CARTESIAN_POINT('',(13.021358435485,23.5000050564868,-66.8534769394311));
#1485=CARTESIAN_POINT('Origin',(13.021358435485,23.5000050564868,-65.8534769394311));
#1486=CARTESIAN_POINT('',(13.021358435485,35.5000050564868,-66.8534769394311));
#1487=CARTESIAN_POINT('Origin',(11.021358435485,35.5000050564868,-65.8534769394311));
#1488=CARTESIAN_POINT('',(11.021358435485,23.5000050564868,-66.8534769394311));
#1489=CARTESIAN_POINT('',(11.021358435485,35.5000050564868,-66.8534769394311));
#1490=CARTESIAN_POINT('',(10.021358435485,23.5000050564868,-65.8534769394311));
#1491=CARTESIAN_POINT('Origin',(11.021358435485,23.5000050564868,-65.8534769394311));
#1492=CARTESIAN_POINT('',(10.021358435485,35.5000050564868,-65.8534769394311));
#1493=CARTESIAN_POINT('Origin',(-11.978641564515,35.5000050564868,-65.8534777359789));
#1494=CARTESIAN_POINT('',(-10.978641564515,23.5000050564868,-65.8534777359789));
#1495=CARTESIAN_POINT('',(-10.978641564515,35.5000050564868,-65.8534777359789));
#1496=CARTESIAN_POINT('',(-11.978641564515,23.5000050564868,-66.8534777359789));
#1497=CARTESIAN_POINT('Origin',(-11.978641564515,23.5000050564868,-65.8534777359789));
#1498=CARTESIAN_POINT('',(-11.978641564515,35.5000050564868,-66.8534777359789));
#1499=CARTESIAN_POINT('Origin',(10.021358435485,35.5000050564868,-66.8534769394311));
#1500=CARTESIAN_POINT('',(10.021358435485,23.5000050564868,-57.4924829710611));
#1501=CARTESIAN_POINT('',(10.021358435485,23.5000050564868,-41.0067384697155));
#1502=CARTESIAN_POINT('',(10.021358435485,23.5000050564868,-57.4924829710611));
#1503=CARTESIAN_POINT('',(10.021358435485,26.7000050564868,-61.0534769394311));
#1504=CARTESIAN_POINT('Origin',(10.021358435485,29.5000050564868,-61.0534769394311));
#1505=CARTESIAN_POINT('Origin',(20.521358435485,23.5000050564868,-57.4924829710611));
#1506=CARTESIAN_POINT('',(12.1602473243739,23.5000050564868,-51.1409618156484));
#1507=CARTESIAN_POINT('Origin',(20.521358435485,23.5000050564868,-57.4924829710611));
#1508=CARTESIAN_POINT('',(12.1602473243739,23.5000050564868,-51.1409618156484));
#1509=CARTESIAN_POINT('Origin',(-0.978641564515027,23.5000050564868,-41.16));
#1510=CARTESIAN_POINT('',(-13.4314717531943,23.5000050564868,-51.984833499501));
#1511=CARTESIAN_POINT('Origin',(-0.978641564515027,23.5000050564868,-41.16));
#1512=CARTESIAN_POINT('',(-13.4314717531943,23.5000050564868,-51.984833499501));
#1513=CARTESIAN_POINT('Origin',(-20.978641564515,23.5000050564868,-58.5453386507137));
#1514=CARTESIAN_POINT('',(-10.978641564515,23.5000050564868,-58.5453386507137));
#1515=CARTESIAN_POINT('Origin',(-20.978641564515,23.5000050564868,-58.5453386507137));
#1516=CARTESIAN_POINT('',(-10.978641564515,27.8540274367514,-58.5453386507137));
#1517=CARTESIAN_POINT('',(-10.978641564515,23.5000050564868,-58.5453386507137));
#1518=CARTESIAN_POINT('',(-10.978641564515,31.1459826762222,-58.5453386507137));
#1519=CARTESIAN_POINT('Ctrl Pts',(-10.978641564515,27.8540274367514,-58.5453386507137));
#1520=CARTESIAN_POINT('Ctrl Pts',(-10.978641564515,28.009476041729,-58.4433247681606));
#1521=CARTESIAN_POINT('Ctrl Pts',(-10.9801994403057,28.1764462500871,-58.3546693609148));
#1522=CARTESIAN_POINT('Ctrl Pts',(-10.9861300332409,28.7201692766068,-58.1290377070554));
#1523=CARTESIAN_POINT('Ctrl Pts',(-10.9907452866708,29.1226019354369,-58.0534769394311));
#1524=CARTESIAN_POINT('Ctrl Pts',(-10.9907452866708,29.8774081775367,-58.0534769394311));
#1525=CARTESIAN_POINT('Ctrl Pts',(-10.9861300332409,30.2798408363668,-58.1290377070554));
#1526=CARTESIAN_POINT('Ctrl Pts',(-10.9801994403057,30.8235638628865,-58.3546693609148));
#1527=CARTESIAN_POINT('Ctrl Pts',(-10.978641564515,30.9905340712446,-58.4433247681606));
#1528=CARTESIAN_POINT('Ctrl Pts',(-10.978641564515,31.1459826762222,-58.5453386507137));
#1529=CARTESIAN_POINT('',(-10.978641564515,23.5000050564868,-58.5453386507137));
#1530=CARTESIAN_POINT('Origin',(-10.978641564515,35.5000050564868,-63.2534769394311));
#1531=CARTESIAN_POINT('',(-10.978641564515,26.5000050564868,-61.0534769394311));
#1532=CARTESIAN_POINT('Origin',(-10.978641564515,29.5000050564868,-61.0534769394311));
#1533=CARTESIAN_POINT('Origin',(-10.978641564515,29.5000050564868,-61.0534769394311));
#1534=CARTESIAN_POINT('',(-10.978641564515,23.5000050564868,-39.2067384697156));
#1535=CARTESIAN_POINT('Origin',(-14.978641564515,35.5000050564868,-65.8534777359789));
#1536=CARTESIAN_POINT('',(-14.978641564515,23.5000050564868,-66.8534777359789));
#1537=CARTESIAN_POINT('',(-14.978641564515,35.5000050564868,-66.8534777359789));
#1538=CARTESIAN_POINT('Origin',(-14.978641564515,23.5000050564868,-65.8534777359789));
#1539=CARTESIAN_POINT('Origin',(-0.978641564515031,35.5000050564868,-41.16));
#1540=CARTESIAN_POINT('Origin',(-0.978641564515031,23.5000050564868,-41.16));
#1541=CARTESIAN_POINT('Origin',(9.02135843548497,23.5000050564868,-15.16));
#1542=CARTESIAN_POINT('',(11.521358435485,23.5000050564868,-66.8534769394311));
#1543=CARTESIAN_POINT('',(11.521358435485,23.5000050564868,-66.8534769394311));
#1544=CARTESIAN_POINT('',(14.0213584354851,23.5000050564868,-36.4213558209292));
#1545=CARTESIAN_POINT('Origin',(-15.978641564515,27.1906039797283,-65.0534769394311));
#1546=CARTESIAN_POINT('',(-12.978641564515,27.1906039797283,-65.3534769394311));
#1547=CARTESIAN_POINT('',(-12.978641564515,26.9307963585929,-65.2034769394311));
#1548=CARTESIAN_POINT('Origin',(-12.978641564515,27.1906039797283,-65.0534769394311));
#1549=CARTESIAN_POINT('',(-15.978641564515,27.1906039797283,-65.3534769394311));
#1550=CARTESIAN_POINT('',(-15.978641564515,26.9307963585929,-65.2034769394311));
#1551=CARTESIAN_POINT('Origin',(-15.978641564515,24.534792741456,-61.0534769394311));
#1552=CARTESIAN_POINT('',(-12.978641564515,24.6213952818344,-61.2034769394311));
#1553=CARTESIAN_POINT('',(-15.978641564515,24.6213952818344,-61.2034769394311));
#1554=CARTESIAN_POINT('',(-12.978641564515,27.0173988989714,-65.3534769394311));
#1555=CARTESIAN_POINT('Origin',(-15.978641564515,31.8094061332453,-65.0534769394311));
#1556=CARTESIAN_POINT('',(-12.978641564515,32.0692137543806,-65.2034769394311));
#1557=CARTESIAN_POINT('',(-12.978641564515,31.8094061332453,-65.3534769394311));
#1558=CARTESIAN_POINT('Origin',(-12.978641564515,31.8094061332453,-65.0534769394311));
#1559=CARTESIAN_POINT('',(-15.978641564515,32.0692137543806,-65.2034769394311));
#1560=CARTESIAN_POINT('',(-15.978641564515,31.8094061332453,-65.3534769394311));
#1561=CARTESIAN_POINT('Origin',(-15.978641564515,27.0173988989714,-65.3534769394311));
#1562=CARTESIAN_POINT('',(-12.978641564515,31.9826112140022,-65.3534769394311));
#1563=CARTESIAN_POINT('Origin',(-15.978641564515,34.1188072100038,-61.0534769394311));
#1564=CARTESIAN_POINT('',(-12.978641564515,34.3786148311391,-60.9034769394311));
#1565=CARTESIAN_POINT('',(-12.978641564515,34.3786148311391,-61.2034769394311));
#1566=CARTESIAN_POINT('Origin',(-12.978641564515,34.1188072100038,-61.0534769394311));
#1567=CARTESIAN_POINT('',(-15.978641564515,34.3786148311391,-60.9034769394311));
#1568=CARTESIAN_POINT('',(-15.978641564515,34.3786148311391,-61.2034769394311));
#1569=CARTESIAN_POINT('Origin',(-15.978641564515,31.9826112140022,-65.3534769394311));
#1570=CARTESIAN_POINT('',(-12.978641564515,34.4652173715176,-61.0534769394311));
#1571=CARTESIAN_POINT('Origin',(-15.978641564515,24.8812029029698,-61.0534769394311));
#1572=CARTESIAN_POINT('',(-12.978641564515,24.6213952818344,-60.9034769394311));
#1573=CARTESIAN_POINT('Origin',(-12.978641564515,24.8812029029698,-61.0534769394311));
#1574=CARTESIAN_POINT('',(-15.978641564515,24.6213952818344,-60.9034769394311));
#1575=CARTESIAN_POINT('Origin',(-15.978641564515,27.0173988989714,-56.7534769394311));
#1576=CARTESIAN_POINT('',(-12.978641564515,26.9307963585929,-56.9034769394311));
#1577=CARTESIAN_POINT('',(-15.978641564515,26.9307963585929,-56.9034769394311));
#1578=CARTESIAN_POINT('',(-12.978641564515,24.534792741456,-61.0534769394311));
#1579=CARTESIAN_POINT('Origin',(-15.978641564515,27.1906039797283,-57.0534769394311));
#1580=CARTESIAN_POINT('',(-12.978641564515,27.1906039797283,-56.7534769394311));
#1581=CARTESIAN_POINT('Origin',(-12.978641564515,27.1906039797283,-57.0534769394311));
#1582=CARTESIAN_POINT('',(-15.978641564515,27.1906039797283,-56.7534769394311));
#1583=CARTESIAN_POINT('Origin',(-15.978641564515,31.9826112140022,-56.7534769394311));
#1584=CARTESIAN_POINT('',(-12.978641564515,31.8094061332453,-56.7534769394311));
#1585=CARTESIAN_POINT('',(-15.978641564515,31.8094061332453,-56.7534769394311));
#1586=CARTESIAN_POINT('',(-12.978641564515,27.0173988989714,-56.7534769394311));
#1587=CARTESIAN_POINT('Origin',(-15.978641564515,31.8094061332453,-57.0534769394311));
#1588=CARTESIAN_POINT('',(-12.978641564515,32.0692137543806,-56.9034769394311));
#1589=CARTESIAN_POINT('Origin',(-12.978641564515,31.8094061332453,-57.0534769394311));
#1590=CARTESIAN_POINT('',(-15.978641564515,32.0692137543806,-56.9034769394311));
#1591=CARTESIAN_POINT('Origin',(-15.978641564515,34.4652173715176,-61.0534769394311));
#1592=CARTESIAN_POINT('',(-12.978641564515,31.9826112140022,-56.7534769394311));
#1593=CARTESIAN_POINT('Origin',(-12.978641564515,29.5000050564868,-60.4933331742305));
#1594=CARTESIAN_POINT('',(-12.978641564515,26.5000050564868,-61.0534769394311));
#1595=CARTESIAN_POINT('Origin',(-12.978641564515,29.5000050564868,-61.0534769394311));
#1596=CARTESIAN_POINT('Origin',(14.021358435485,35.5000050564868,-63.2534769394311));
#1597=CARTESIAN_POINT('',(14.021358435485,24.5000050564868,-61.0534769394311));
#1598=CARTESIAN_POINT('Origin',(14.021358435485,29.5000050564868,-61.0534769394311));
#1599=CARTESIAN_POINT('Origin',(14.021358435485,29.5000050564868,-61.0534769394311));
#1600=CARTESIAN_POINT('Origin',(14.021358435485,35.5000050564868,-66.8534769394311));
#1601=CARTESIAN_POINT('Origin',(14.021358435485,35.5000050564868,-66.8534769394311));
#1602=CARTESIAN_POINT('Origin',(12.921358435485,29.5000050564868,-61.0534769394311));
#1603=CARTESIAN_POINT('',(11.821358435485,26.7000050564868,-61.0534769394311));
#1604=CARTESIAN_POINT('',(12.921358435485,25.6000050564868,-61.0534769394311));
#1605=CARTESIAN_POINT('Origin',(11.821358435485,29.5000050564868,-61.0534769394311));
#1606=CARTESIAN_POINT('Origin',(14.021358435485,29.5000050564868,-61.0534769394311));
#1607=CARTESIAN_POINT('',(14.021358435485,26.7000050564868,-61.0534769394311));
#1608=CARTESIAN_POINT('Origin',(14.021358435485,29.5000050564868,-61.0534769394311));
#1609=CARTESIAN_POINT('',(14.021358435485,26.5000050564868,-61.0534769394311));
#1610=UNCERTAINTY_MEASURE_WITH_UNIT(LENGTH_MEASURE(0.01),#1614,
'DISTANCE_ACCURACY_VALUE',
'Maximum model space distance between geometric entities at asserted c
onnectivities');
#1611=UNCERTAINTY_MEASURE_WITH_UNIT(LENGTH_MEASURE(0.01),#1614,
'DISTANCE_ACCURACY_VALUE',
'Maximum model space distance between geometric entities at asserted c
onnectivities');
#1612=(
GEOMETRIC_REPRESENTATION_CONTEXT(3)
GLOBAL_UNCERTAINTY_ASSIGNED_CONTEXT((#1610))
GLOBAL_UNIT_ASSIGNED_CONTEXT((#1614,#1616,#1617))
REPRESENTATION_CONTEXT('','3D')
);
#1613=(
GEOMETRIC_REPRESENTATION_CONTEXT(3)
GLOBAL_UNCERTAINTY_ASSIGNED_CONTEXT((#1611))
GLOBAL_UNIT_ASSIGNED_CONTEXT((#1614,#1616,#1617))
REPRESENTATION_CONTEXT('','3D')
);
#1614=(
LENGTH_UNIT()
NAMED_UNIT(*)
SI_UNIT(.MILLI.,.METRE.)
);
#1615=(
LENGTH_UNIT()
NAMED_UNIT(*)
SI_UNIT($,.METRE.)
);
#1616=(
NAMED_UNIT(*)
PLANE_ANGLE_UNIT()
SI_UNIT($,.RADIAN.)
);
#1617=(
NAMED_UNIT(*)
SI_UNIT($,.STERADIAN.)
SOLID_ANGLE_UNIT()
);
#1618=SHAPE_DEFINITION_REPRESENTATION(#1619,#1620);
#1619=PRODUCT_DEFINITION_SHAPE('',$,#1622);
#1620=SHAPE_REPRESENTATION('',(#847),#1612);
#1621=PRODUCT_DEFINITION_CONTEXT('part definition',#1626,'design');
#1622=PRODUCT_DEFINITION('bike trip computer','bike trip computer',#1623,
#1621);
#1623=PRODUCT_DEFINITION_FORMATION('',$,#1628);
#1624=PRODUCT_RELATED_PRODUCT_CATEGORY('bike trip computer',
'bike trip computer',(#1628));
#1625=APPLICATION_PROTOCOL_DEFINITION('international standard',
'automotive_design',2009,#1626);
#1626=APPLICATION_CONTEXT(
'Core Data for Automotive Mechanical Design Process');
#1627=PRODUCT_CONTEXT('part definition',#1626,'mechanical');
#1628=PRODUCT('bike trip computer','bike trip computer',$,(#1627));
#1629=PRESENTATION_STYLE_ASSIGNMENT((#1647));
#1630=PRESENTATION_STYLE_ASSIGNMENT((#1648));
#1631=PRESENTATION_STYLE_ASSIGNMENT((#1649));
#1632=PRESENTATION_STYLE_ASSIGNMENT((#1650));
#1633=PRESENTATION_STYLE_ASSIGNMENT((#1651));
#1634=PRESENTATION_STYLE_ASSIGNMENT((#1652));
#1635=PRESENTATION_STYLE_ASSIGNMENT((#1653));
#1636=PRESENTATION_STYLE_ASSIGNMENT((#1654));
#1637=PRESENTATION_STYLE_ASSIGNMENT((#1655));
#1638=PRESENTATION_STYLE_ASSIGNMENT((#1656));
#1639=PRESENTATION_STYLE_ASSIGNMENT((#1657));
#1640=PRESENTATION_STYLE_ASSIGNMENT((#1658));
#1641=PRESENTATION_STYLE_ASSIGNMENT((#1659));
#1642=PRESENTATION_STYLE_ASSIGNMENT((#1660));
#1643=PRESENTATION_STYLE_ASSIGNMENT((#1661));
#1644=PRESENTATION_STYLE_ASSIGNMENT((#1662));
#1645=PRESENTATION_STYLE_ASSIGNMENT((#1663));
#1646=PRESENTATION_STYLE_ASSIGNMENT((#1664));
#1647=SURFACE_STYLE_USAGE(.BOTH.,#1665);
#1648=SURFACE_STYLE_USAGE(.BOTH.,#1666);
#1649=SURFACE_STYLE_USAGE(.BOTH.,#1667);
#1650=SURFACE_STYLE_USAGE(.BOTH.,#1668);
#1651=SURFACE_STYLE_USAGE(.BOTH.,#1669);
#1652=SURFACE_STYLE_USAGE(.BOTH.,#1670);
#1653=SURFACE_STYLE_USAGE(.BOTH.,#1671);
#1654=SURFACE_STYLE_USAGE(.BOTH.,#1672);
#1655=SURFACE_STYLE_USAGE(.BOTH.,#1673);
#1656=SURFACE_STYLE_USAGE(.BOTH.,#1674);
#1657=SURFACE_STYLE_USAGE(.BOTH.,#1675);
#1658=SURFACE_STYLE_USAGE(.BOTH.,#1676);
#1659=SURFACE_STYLE_USAGE(.BOTH.,#1677);
#1660=SURFACE_STYLE_USAGE(.BOTH.,#1678);
#1661=SURFACE_STYLE_USAGE(.BOTH.,#1679);
#1662=SURFACE_STYLE_USAGE(.BOTH.,#1680);
#1663=SURFACE_STYLE_USAGE(.BOTH.,#1681);
#1664=SURFACE_STYLE_USAGE(.BOTH.,#1682);
#1665=SURFACE_SIDE_STYLE('',(#1683));
#1666=SURFACE_SIDE_STYLE('',(#1684));
#1667=SURFACE_SIDE_STYLE('',(#1685));
#1668=SURFACE_SIDE_STYLE('',(#1686));
#1669=SURFACE_SIDE_STYLE('',(#1687));
#1670=SURFACE_SIDE_STYLE('',(#1688));
#1671=SURFACE_SIDE_STYLE('',(#1689));
#1672=SURFACE_SIDE_STYLE('',(#1690));
#1673=SURFACE_SIDE_STYLE('',(#1691));
#1674=SURFACE_SIDE_STYLE('',(#1692));
#1675=SURFACE_SIDE_STYLE('',(#1693));
#1676=SURFACE_SIDE_STYLE('',(#1694));
#1677=SURFACE_SIDE_STYLE('',(#1695));
#1678=SURFACE_SIDE_STYLE('',(#1696));
#1679=SURFACE_SIDE_STYLE('',(#1697));
#1680=SURFACE_SIDE_STYLE('',(#1698));
#1681=SURFACE_SIDE_STYLE('',(#1699));
#1682=SURFACE_SIDE_STYLE('',(#1700));
#1683=SURFACE_STYLE_FILL_AREA(#1701);
#1684=SURFACE_STYLE_FILL_AREA(#1702);
#1685=SURFACE_STYLE_FILL_AREA(#1703);
#1686=SURFACE_STYLE_FILL_AREA(#1704);
#1687=SURFACE_STYLE_FILL_AREA(#1705);
#1688=SURFACE_STYLE_FILL_AREA(#1706);
#1689=SURFACE_STYLE_FILL_AREA(#1707);
#1690=SURFACE_STYLE_FILL_AREA(#1708);
#1691=SURFACE_STYLE_FILL_AREA(#1709);
#1692=SURFACE_STYLE_FILL_AREA(#1710);
#1693=SURFACE_STYLE_FILL_AREA(#1711);
#1694=SURFACE_STYLE_FILL_AREA(#1712);
#1695=SURFACE_STYLE_FILL_AREA(#1713);
#1696=SURFACE_STYLE_FILL_AREA(#1714);
#1697=SURFACE_STYLE_FILL_AREA(#1715);
#1698=SURFACE_STYLE_FILL_AREA(#1716);
#1699=SURFACE_STYLE_FILL_AREA(#1717);
#1700=SURFACE_STYLE_FILL_AREA(#1718);
#1701=FILL_AREA_STYLE('Steel - Satin',(#1719));
#1702=FILL_AREA_STYLE('Generic',(#1720));
#1703=FILL_AREA_STYLE('PCB (Yellow)',(#1721));
#1704=FILL_AREA_STYLE('Opaque(61,61,61)',(#1722));
#1705=FILL_AREA_STYLE('Opaque(58,58,58)',(#1723));
#1706=FILL_AREA_STYLE('Opaque(182,109,46)',(#1724));
#1707=FILL_AREA_STYLE('Opaque(176,176,176)',(#1725));
#1708=FILL_AREA_STYLE('Smooth - White',(#1726));
#1709=FILL_AREA_STYLE('Opaque(204,204,204)',(#1727));
#1710=FILL_AREA_STYLE('Phenolic (Clear Aqua)',(#1728));
#1711=FILL_AREA_STYLE('Opaque(25,25,25)',(#1729));
#1712=FILL_AREA_STYLE('Plastic - Charcoal Gray',(#1730));
#1713=FILL_AREA_STYLE('Nickel - Polished',(#1731));
#1714=FILL_AREA_STYLE('Opaque(230,230,230)',(#1732));
#1715=FILL_AREA_STYLE('Opaque(202,209,238)',(#1733));
#1716=FILL_AREA_STYLE('Opaque(211,211,211)',(#1734));
#1717=FILL_AREA_STYLE('Opaque(53,53,53)',(#1735));
#1718=FILL_AREA_STYLE('Opaque(255,255,255)',(#1736));
#1719=FILL_AREA_STYLE_COLOUR('Steel - Satin',#1737);
#1720=FILL_AREA_STYLE_COLOUR('Generic',#1738);
#1721=FILL_AREA_STYLE_COLOUR('PCB (Yellow)',#1739);
#1722=FILL_AREA_STYLE_COLOUR('Opaque(61,61,61)',#1740);
#1723=FILL_AREA_STYLE_COLOUR('Opaque(58,58,58)',#1741);
#1724=FILL_AREA_STYLE_COLOUR('Opaque(182,109,46)',#1742);
#1725=FILL_AREA_STYLE_COLOUR('Opaque(176,176,176)',#1743);
#1726=FILL_AREA_STYLE_COLOUR('Smooth - White',#1744);
#1727=FILL_AREA_STYLE_COLOUR('Opaque(204,204,204)',#1745);
#1728=FILL_AREA_STYLE_COLOUR('Phenolic (Clear Aqua)',#1746);
#1729=FILL_AREA_STYLE_COLOUR('Opaque(25,25,25)',#1747);
#1730=FILL_AREA_STYLE_COLOUR('Plastic - Charcoal Gray',#1748);
#1731=FILL_AREA_STYLE_COLOUR('Nickel - Polished',#1749);
#1732=FILL_AREA_STYLE_COLOUR('Opaque(230,230,230)',#1750);
#1733=FILL_AREA_STYLE_COLOUR('Opaque(202,209,238)',#1751);
#1734=FILL_AREA_STYLE_COLOUR('Opaque(211,211,211)',#1752);
#1735=FILL_AREA_STYLE_COLOUR('Opaque(53,53,53)',#1753);
#1736=FILL_AREA_STYLE_COLOUR('Opaque(255,255,255)',#1754);
#1737=COLOUR_RGB('Steel - Satin',0.627450980392157,0.627450980392157,0.627450980392157);
#1738=COLOUR_RGB('Generic',0.819607843137255,0.8,0.752941176470588);
#1739=COLOUR_RGB('PCB (Yellow)',0.913725490196078,0.764705882352941,0.27843137254902);
#1740=COLOUR_RGB('Opaque(61,61,61)',0.23921568627451,0.23921568627451,0.23921568627451);
#1741=COLOUR_RGB('Opaque(58,58,58)',0.227450980392157,0.227450980392157,
0.227450980392157);
#1742=COLOUR_RGB('Opaque(182,109,46)',0.713725490196078,0.427450980392157,
0.180392156862745);
#1743=COLOUR_RGB('Opaque(176,176,176)',0.690196078431373,0.690196078431373,
0.690196078431373);
#1744=COLOUR_RGB('Smooth - White',0.796078431372549,0.796078431372549,0.796078431372549);
#1745=COLOUR_RGB('Opaque(204,204,204)',0.8,0.8,0.8);
#1746=COLOUR_RGB('Phenolic (Clear Aqua)',0.741176470588235,0.780392156862745,
0.784313725490196);
#1747=COLOUR_RGB('Opaque(25,25,25)',0.0980392156862745,0.0980392156862745,
0.0980392156862745);
#1748=COLOUR_RGB('Plastic - Charcoal Gray',0.294117647058824,0.294117647058824,
0.294117647058824);
#1749=COLOUR_RGB('Nickel - Polished',0.819607843137255,0.8,0.752941176470588);
#1750=COLOUR_RGB('Opaque(230,230,230)',0.23921568627451,0.23921568627451,
0.23921568627451);
#1751=COLOUR_RGB('Opaque(202,209,238)',0.792156862745098,0.819607843137255,
0.933333333333333);
#1752=COLOUR_RGB('Opaque(211,211,211)',0.827450980392157,0.827450980392157,
0.827450980392157);
#1753=COLOUR_RGB('Opaque(53,53,53)',0.207843137254902,0.207843137254902,
0.207843137254902);
#1754=COLOUR_RGB('Opaque(255,255,255)',1.,1.,1.);
ENDSEC;
END-ISO-10303-21;
