ISO-10303-21;
HEADER;
/* Generated by software containing ST-Developer
 * from STEP Tools, Inc. (www.steptools.com) 
 */

FILE_DESCRIPTION(
/* description */ (''),
/* implementation_level */ '2;1');

FILE_NAME(
/* name */ 'ky-024 holder.step',
/* time_stamp */ '2026-09-22T16:44:00+03:00',
/* author */ (''),
/* organization */ (''),
/* preprocessor_version */ 'ST-DEVELOPER v20.2',
/* originating_system */ 'Autodesk Translation Framework v15.15.0.0',
/* authorisation */ '');

FILE_SCHEMA (('AUTOMOTIVE_DESIGN { 1 0 10303 214 3 1 1 }'));
ENDSEC;

DATA;
#10=MECHANICAL_DESIGN_GEOMETRIC_PRESENTATION_REPRESENTATION('',(#13),#1421);
#11=SHAPE_REPRESENTATION_RELATIONSHIP('SRR','None',#1428,#12);
#12=ADVANCED_BREP_SHAPE_REPRESENTATION('',(#14),#1420);
#13=STYLED_ITEM('',(#1438),#14);
#14=MANIFOLD_SOLID_BREP('Body1',#720);
#15=TOROIDAL_SURFACE('',#787,4.00000000000001,1.);
#16=FACE_BOUND('',#144,.T.);
#17=FACE_BOUND('',#145,.T.);
#18=FACE_BOUND('',#150,.T.);
#19=FACE_BOUND('',#151,.T.);
#20=FACE_BOUND('',#152,.T.);
#21=FACE_BOUND('',#154,.T.);
#22=FACE_BOUND('',#157,.T.);
#23=FACE_BOUND('',#160,.T.);
#24=FACE_BOUND('',#169,.T.);
#25=CYLINDRICAL_SURFACE('',#738,4.);
#26=CYLINDRICAL_SURFACE('',#746,4.00000000000001);
#27=CYLINDRICAL_SURFACE('',#750,4.00000000000002);
#28=CYLINDRICAL_SURFACE('',#757,21.8);
#29=CYLINDRICAL_SURFACE('',#765,21.8);
#30=CYLINDRICAL_SURFACE('',#775,1.);
#31=CYLINDRICAL_SURFACE('',#785,19.8);
#32=CYLINDRICAL_SURFACE('',#786,19.8);
#33=CYLINDRICAL_SURFACE('',#792,1.40000000000001);
#34=CYLINDRICAL_SURFACE('',#795,17.8);
#35=CYLINDRICAL_SURFACE('',#796,1.);
#36=CYLINDRICAL_SURFACE('',#797,3.3);
#37=CIRCLE('',#736,12.0000000000078);
#38=CIRCLE('',#737,1.99999999999999);
#39=CIRCLE('',#739,4.);
#40=CIRCLE('',#740,4.);
#41=CIRCLE('',#742,4.00000000000002);
#42=CIRCLE('',#743,4.00000000000001);
#43=CIRCLE('',#747,4.00000000000001);
#44=CIRCLE('',#751,4.00000000000002);
#45=CIRCLE('',#753,4.00000000000001);
#46=CIRCLE('',#755,19.8);
#47=CIRCLE('',#756,21.8);
#48=CIRCLE('',#758,21.8);
#49=CIRCLE('',#760,19.8);
#50=CIRCLE('',#763,19.8);
#51=CIRCLE('',#764,21.8);
#52=CIRCLE('',#766,21.8);
#53=CIRCLE('',#768,19.8);
#54=CIRCLE('',#770,3.3);
#55=CIRCLE('',#772,1.);
#56=CIRCLE('',#773,17.8);
#57=CIRCLE('',#774,1.);
#58=CIRCLE('',#776,1.);
#59=CIRCLE('',#780,3.3);
#60=CIRCLE('',#782,1.);
#61=CIRCLE('',#783,17.8);
#62=CIRCLE('',#788,1.);
#63=CIRCLE('',#789,3.00000000000001);
#64=CIRCLE('',#791,1.40000000000001);
#65=CIRCLE('',#793,1.40000000000001);
#66=(
BOUNDED_SURFACE()
B_SPLINE_SURFACE(2,2,((#1127,#1128,#1129,#1130,#1131,#1132,#1133),(#1134,
#1135,#1136,#1137,#1138,#1139,#1140),(#1141,#1142,#1143,#1144,#1145,#1146,
#1147),(#1148,#1149,#1150,#1151,#1152,#1153,#1154),(#1155,#1156,#1157,#1158,
#1159,#1160,#1161),(#1162,#1163,#1164,#1165,#1166,#1167,#1168),(#1169,#1170,
#1171,#1172,#1173,#1174,#1175),(#1176,#1177,#1178,#1179,#1180,#1181,#1182),
(#1183,#1184,#1185,#1186,#1187,#1188,#1189)),.UNSPECIFIED.,.T.,.F.,.F.)
B_SPLINE_SURFACE_WITH_KNOTS((3,2,2,2,3),(3,2,2,3),(-3.14159265358979,-1.5707963267949,
0.,1.5707963267949,3.14159265358979),(0.,1.43331797332237,2.86663594664473,
4.2999539199671),.UNSPECIFIED.)
GEOMETRIC_REPRESENTATION_ITEM()
RATIONAL_B_SPLINE_SURFACE(((1.,0.754004542063887,1.,0.754004542063887,1.,
0.754004542063887,1.),(0.707106781186554,0.533161724738836,0.707106781186554,
0.533161724738836,0.707106781186554,0.533161724738836,0.707106781186554),
(1.,0.754004542063887,1.,0.754004542063887,1.,0.754004542063887,1.),(0.707106781186554,
0.533161724738836,0.707106781186554,0.533161724738836,0.707106781186554,
0.533161724738836,0.707106781186554),(1.,0.754004542063887,1.,0.754004542063887,
1.,0.754004542063887,1.),(0.707106781186554,0.533161724738836,0.707106781186554,
0.533161724738836,0.707106781186554,0.533161724738836,0.707106781186554),
(1.,0.754004542063887,1.,0.754004542063887,1.,0.754004542063887,1.),(0.707106781186554,
0.533161724738836,0.707106781186554,0.533161724738836,0.707106781186554,
0.533161724738836,0.707106781186554),(1.,0.754004542063887,1.,0.754004542063887,
1.,0.754004542063887,1.)))
REPRESENTATION_ITEM('')
SURFACE()
);
#67=PLANE('',#735);
#68=PLANE('',#741);
#69=PLANE('',#744);
#70=PLANE('',#745);
#71=PLANE('',#748);
#72=PLANE('',#749);
#73=PLANE('',#752);
#74=PLANE('',#754);
#75=PLANE('',#759);
#76=PLANE('',#761);
#77=PLANE('',#762);
#78=PLANE('',#767);
#79=PLANE('',#769);
#80=PLANE('',#771);
#81=PLANE('',#777);
#82=PLANE('',#778);
#83=PLANE('',#779);
#84=PLANE('',#781);
#85=PLANE('',#784);
#86=PLANE('',#790);
#87=PLANE('',#794);
#88=PLANE('',#798);
#89=FACE_OUTER_BOUND('',#127,.T.);
#90=FACE_OUTER_BOUND('',#128,.T.);
#91=FACE_OUTER_BOUND('',#129,.T.);
#92=FACE_OUTER_BOUND('',#130,.T.);
#93=FACE_OUTER_BOUND('',#131,.T.);
#94=FACE_OUTER_BOUND('',#132,.T.);
#95=FACE_OUTER_BOUND('',#133,.T.);
#96=FACE_OUTER_BOUND('',#134,.T.);
#97=FACE_OUTER_BOUND('',#135,.T.);
#98=FACE_OUTER_BOUND('',#136,.T.);
#99=FACE_OUTER_BOUND('',#137,.T.);
#100=FACE_OUTER_BOUND('',#138,.T.);
#101=FACE_OUTER_BOUND('',#139,.T.);
#102=FACE_OUTER_BOUND('',#140,.T.);
#103=FACE_OUTER_BOUND('',#141,.T.);
#104=FACE_OUTER_BOUND('',#142,.T.);
#105=FACE_OUTER_BOUND('',#143,.T.);
#106=FACE_OUTER_BOUND('',#146,.T.);
#107=FACE_OUTER_BOUND('',#147,.T.);
#108=FACE_OUTER_BOUND('',#148,.T.);
#109=FACE_OUTER_BOUND('',#149,.T.);
#110=FACE_OUTER_BOUND('',#153,.T.);
#111=FACE_OUTER_BOUND('',#155,.T.);
#112=FACE_OUTER_BOUND('',#156,.T.);
#113=FACE_OUTER_BOUND('',#158,.T.);
#114=FACE_OUTER_BOUND('',#159,.T.);
#115=FACE_OUTER_BOUND('',#161,.T.);
#116=FACE_OUTER_BOUND('',#162,.T.);
#117=FACE_OUTER_BOUND('',#163,.T.);
#118=FACE_OUTER_BOUND('',#164,.T.);
#119=FACE_OUTER_BOUND('',#165,.T.);
#120=FACE_OUTER_BOUND('',#166,.T.);
#121=FACE_OUTER_BOUND('',#167,.T.);
#122=FACE_OUTER_BOUND('',#168,.T.);
#123=FACE_OUTER_BOUND('',#170,.T.);
#124=FACE_OUTER_BOUND('',#171,.T.);
#125=FACE_OUTER_BOUND('',#172,.T.);
#126=FACE_OUTER_BOUND('',#173,.T.);
#127=EDGE_LOOP('',(#478,#479,#480));
#128=EDGE_LOOP('',(#481,#482,#483,#484));
#129=EDGE_LOOP('',(#485,#486,#487,#488));
#130=EDGE_LOOP('',(#489,#490,#491,#492,#493,#494,#495));
#131=EDGE_LOOP('',(#496,#497,#498,#499));
#132=EDGE_LOOP('',(#500,#501,#502,#503,#504,#505,#506,#507,#508,#509,#510,
#511,#512));
#133=EDGE_LOOP('',(#513,#514,#515,#516));
#134=EDGE_LOOP('',(#517,#518,#519,#520,#521));
#135=EDGE_LOOP('',(#522,#523,#524,#525));
#136=EDGE_LOOP('',(#526,#527,#528,#529));
#137=EDGE_LOOP('',(#530,#531,#532,#533));
#138=EDGE_LOOP('',(#534,#535,#536,#537));
#139=EDGE_LOOP('',(#538,#539,#540,#541,#542,#543,#544,#545,#546,#547,#548,
#549,#550,#551,#552,#553));
#140=EDGE_LOOP('',(#554,#555,#556,#557));
#141=EDGE_LOOP('',(#558,#559,#560,#561));
#142=EDGE_LOOP('',(#562,#563,#564,#565));
#143=EDGE_LOOP('',(#566,#567,#568,#569));
#144=EDGE_LOOP('',(#570,#571,#572,#573));
#145=EDGE_LOOP('',(#574,#575,#576,#577));
#146=EDGE_LOOP('',(#578,#579,#580,#581));
#147=EDGE_LOOP('',(#582,#583,#584,#585));
#148=EDGE_LOOP('',(#586,#587,#588,#589));
#149=EDGE_LOOP('',(#590,#591,#592,#593));
#150=EDGE_LOOP('',(#594,#595,#596,#597));
#151=EDGE_LOOP('',(#598));
#152=EDGE_LOOP('',(#599,#600,#601,#602));
#153=EDGE_LOOP('',(#603,#604,#605,#606,#607,#608));
#154=EDGE_LOOP('',(#609));
#155=EDGE_LOOP('',(#610,#611,#612,#613));
#156=EDGE_LOOP('',(#614,#615,#616,#617));
#157=EDGE_LOOP('',(#618,#619,#620,#621));
#158=EDGE_LOOP('',(#622,#623,#624,#625));
#159=EDGE_LOOP('',(#626,#627,#628,#629,#630,#631));
#160=EDGE_LOOP('',(#632));
#161=EDGE_LOOP('',(#633,#634,#635,#636,#637,#638));
#162=EDGE_LOOP('',(#639,#640,#641,#642,#643,#644));
#163=EDGE_LOOP('',(#645,#646,#647,#648));
#164=EDGE_LOOP('',(#649,#650,#651,#652));
#165=EDGE_LOOP('',(#653,#654,#655,#656));
#166=EDGE_LOOP('',(#657));
#167=EDGE_LOOP('',(#658,#659,#660,#661));
#168=EDGE_LOOP('',(#662));
#169=EDGE_LOOP('',(#663));
#170=EDGE_LOOP('',(#664,#665,#666,#667));
#171=EDGE_LOOP('',(#668,#669,#670,#671));
#172=EDGE_LOOP('',(#672,#673,#674,#675));
#173=EDGE_LOOP('',(#676,#677,#678,#679));
#174=ELLIPSE('',#734,2.03542253231284,1.92305147064937);
#175=LINE('',#1060,#240);
#176=LINE('',#1106,#241);
#177=LINE('',#1123,#242);
#178=LINE('',#1125,#243);
#179=LINE('',#1126,#244);
#180=LINE('',#1246,#245);
#181=LINE('',#1249,#246);
#182=LINE('',#1251,#247);
#183=LINE('',#1255,#248);
#184=LINE('',#1259,#249);
#185=LINE('',#1261,#250);
#186=LINE('',#1263,#251);
#187=LINE('',#1264,#252);
#188=LINE('',#1266,#253);
#189=LINE('',#1270,#254);
#190=LINE('',#1272,#255);
#191=LINE('',#1273,#256);
#192=LINE('',#1274,#257);
#193=LINE('',#1278,#258);
#194=LINE('',#1281,#259);
#195=LINE('',#1282,#260);
#196=LINE('',#1285,#261);
#197=LINE('',#1286,#262);
#198=LINE('',#1292,#263);
#199=LINE('',#1294,#264);
#200=LINE('',#1296,#265);
#201=LINE('',#1297,#266);
#202=LINE('',#1303,#267);
#203=LINE('',#1306,#268);
#204=LINE('',#1309,#269);
#205=LINE('',#1312,#270);
#206=LINE('',#1315,#271);
#207=LINE('',#1318,#272);
#208=LINE('',#1322,#273);
#209=LINE('',#1324,#274);
#210=LINE('',#1326,#275);
#211=LINE('',#1327,#276);
#212=LINE('',#1330,#277);
#213=LINE('',#1332,#278);
#214=LINE('',#1334,#279);
#215=LINE('',#1335,#280);
#216=LINE('',#1336,#281);
#217=LINE('',#1341,#282);
#218=LINE('',#1345,#283);
#219=LINE('',#1350,#284);
#220=LINE('',#1354,#285);
#221=LINE('',#1356,#286);
#222=LINE('',#1358,#287);
#223=LINE('',#1359,#288);
#224=LINE('',#1360,#289);
#225=LINE('',#1363,#290);
#226=LINE('',#1365,#291);
#227=LINE('',#1374,#292);
#228=LINE('',#1376,#293);
#229=LINE('',#1379,#294);
#230=LINE('',#1381,#295);
#231=LINE('',#1383,#296);
#232=LINE('',#1384,#297);
#233=LINE('',#1386,#298);
#234=LINE('',#1387,#299);
#235=LINE('',#1389,#300);
#236=LINE('',#1397,#301);
#237=LINE('',#1409,#302);
#238=LINE('',#1413,#303);
#239=LINE('',#1416,#304);
#240=VECTOR('',#801,10.);
#241=VECTOR('',#804,10.);
#242=VECTOR('',#807,10.);
#243=VECTOR('',#808,10.);
#244=VECTOR('',#809,10.);
#245=VECTOR('',#818,10.);
#246=VECTOR('',#821,10.);
#247=VECTOR('',#824,10.);
#248=VECTOR('',#827,10.);
#249=VECTOR('',#830,10.);
#250=VECTOR('',#831,10.);
#251=VECTOR('',#832,10.);
#252=VECTOR('',#833,10.);
#253=VECTOR('',#836,10.);
#254=VECTOR('',#839,10.);
#255=VECTOR('',#840,10.);
#256=VECTOR('',#841,10.);
#257=VECTOR('',#842,10.);
#258=VECTOR('',#847,10.);
#259=VECTOR('',#850,10.);
#260=VECTOR('',#851,10.);
#261=VECTOR('',#854,10.);
#262=VECTOR('',#855,10.);
#263=VECTOR('',#864,10.);
#264=VECTOR('',#865,10.);
#265=VECTOR('',#866,10.);
#266=VECTOR('',#867,10.);
#267=VECTOR('',#872,10.);
#268=VECTOR('',#875,10.);
#269=VECTOR('',#878,10.);
#270=VECTOR('',#881,10.);
#271=VECTOR('',#884,10.);
#272=VECTOR('',#887,10.);
#273=VECTOR('',#890,10.);
#274=VECTOR('',#891,10.);
#275=VECTOR('',#892,10.);
#276=VECTOR('',#893,10.);
#277=VECTOR('',#894,10.);
#278=VECTOR('',#895,10.);
#279=VECTOR('',#896,10.);
#280=VECTOR('',#897,10.);
#281=VECTOR('',#898,10.);
#282=VECTOR('',#903,10.);
#283=VECTOR('',#908,10.);
#284=VECTOR('',#915,10.);
#285=VECTOR('',#918,10.);
#286=VECTOR('',#919,10.);
#287=VECTOR('',#920,10.);
#288=VECTOR('',#921,10.);
#289=VECTOR('',#922,10.);
#290=VECTOR('',#925,10.);
#291=VECTOR('',#928,10.);
#292=VECTOR('',#939,10.);
#293=VECTOR('',#942,10.);
#294=VECTOR('',#943,10.);
#295=VECTOR('',#944,10.);
#296=VECTOR('',#945,10.);
#297=VECTOR('',#946,10.);
#298=VECTOR('',#949,10.);
#299=VECTOR('',#950,10.);
#300=VECTOR('',#953,10.);
#301=VECTOR('',#964,10.);
#302=VECTOR('',#981,1.40000000000001);
#303=VECTOR('',#988,10.);
#304=VECTOR('',#993,3.3);
#305=B_SPLINE_CURVE_WITH_KNOTS('',3,(#1025,#1026,#1027,#1028,#1029,#1030,
#1031,#1032,#1033,#1034,#1035,#1036,#1037,#1038,#1039,#1040,#1041,#1042,
#1043,#1044,#1045,#1046,#1047,#1048,#1049,#1050,#1051,#1052,#1053,#1054,
#1055,#1056,#1057,#1058),.UNSPECIFIED.,.F.,.F.,(4,3,3,3,3,3,3,3,3,3,3,4),
(-0.00278256975611829,0.,0.0573298620738667,0.114659724147733,0.166672776977163,
0.20464026053714,0.251811678586272,0.297862963267708,0.344171177408467,
0.387581271867421,0.390479391549226,0.411893945913457),.UNSPECIFIED.);
#306=B_SPLINE_CURVE_WITH_KNOTS('',3,(#1091,#1092,#1093,#1094,#1095,#1096,
#1097,#1098,#1099,#1100,#1101,#1102,#1103,#1104),.UNSPECIFIED.,.F.,.F.,
(4,2,2,2,2,2,4),(2.13480867757133,2.14451851149059,2.22486517513345,2.30352109023163,
2.3791918328024,2.42029536219281,2.44112029341378),.UNSPECIFIED.);
#307=B_SPLINE_CURVE_WITH_KNOTS('',3,(#1107,#1108,#1109,#1110,#1111,#1112,
#1113,#1114,#1115,#1116,#1117,#1118,#1119,#1120),.UNSPECIFIED.,.F.,.F.,
(4,2,2,2,2,2,4),(2.13480867757178,2.14451851149103,2.22486517513377,2.30352109023184,
2.37919183280249,2.42029536219284,2.44112029341378),.UNSPECIFIED.);
#308=B_SPLINE_CURVE_WITH_KNOTS('',3,(#1191,#1192,#1193,#1194,#1195,#1196,
#1197,#1198,#1199,#1200,#1201,#1202,#1203,#1204,#1205,#1206,#1207,#1208),
 .UNSPECIFIED.,.F.,.F.,(4,2,2,2,2,2,2,2,4),(-0.541747531806324,-0.476362700258464,
-0.413117884097525,-0.339350365584989,-0.270873964744013,-0.195081913977047,
-0.115162934344585,-0.0565281902605637,-1.00000003422362E-6),
 .UNSPECIFIED.);
#309=B_SPLINE_CURVE_WITH_KNOTS('',3,(#1210,#1211,#1212,#1213,#1214,#1215,
#1216,#1217,#1218,#1219,#1220,#1221,#1222,#1223),.UNSPECIFIED.,.F.,.F.,
(4,2,2,2,2,2,4),(9.99999882302055E-7,0.186096895366707,0.254593147602909,
0.395112454197889,0.458563376616424,0.485836024746222,0.510897888437459),
 .UNSPECIFIED.);
#310=B_SPLINE_CURVE_WITH_KNOTS('',3,(#1224,#1225,#1226,#1227,#1228,#1229,
#1230,#1231,#1232,#1233,#1234,#1235,#1236,#1237),.UNSPECIFIED.,.F.,.F.,
(4,2,2,2,2,2,4),(1.0000000449099E-6,0.0191060804132039,0.0388800093868453,
0.0802729890263394,0.154334420517911,0.229818009204617,0.308666876053426),
 .UNSPECIFIED.);
#311=VERTEX_POINT('',#1023);
#312=VERTEX_POINT('',#1024);
#313=VERTEX_POINT('',#1059);
#314=VERTEX_POINT('',#1090);
#315=VERTEX_POINT('',#1105);
#316=VERTEX_POINT('',#1122);
#317=VERTEX_POINT('',#1124);
#318=VERTEX_POINT('',#1190);
#319=VERTEX_POINT('',#1209);
#320=VERTEX_POINT('',#1238);
#321=VERTEX_POINT('',#1242);
#322=VERTEX_POINT('',#1243);
#323=VERTEX_POINT('',#1245);
#324=VERTEX_POINT('',#1247);
#325=VERTEX_POINT('',#1252);
#326=VERTEX_POINT('',#1254);
#327=VERTEX_POINT('',#1256);
#328=VERTEX_POINT('',#1258);
#329=VERTEX_POINT('',#1260);
#330=VERTEX_POINT('',#1262);
#331=VERTEX_POINT('',#1268);
#332=VERTEX_POINT('',#1269);
#333=VERTEX_POINT('',#1271);
#334=VERTEX_POINT('',#1276);
#335=VERTEX_POINT('',#1280);
#336=VERTEX_POINT('',#1284);
#337=VERTEX_POINT('',#1291);
#338=VERTEX_POINT('',#1293);
#339=VERTEX_POINT('',#1295);
#340=VERTEX_POINT('',#1299);
#341=VERTEX_POINT('',#1300);
#342=VERTEX_POINT('',#1302);
#343=VERTEX_POINT('',#1304);
#344=VERTEX_POINT('',#1308);
#345=VERTEX_POINT('',#1310);
#346=VERTEX_POINT('',#1314);
#347=VERTEX_POINT('',#1316);
#348=VERTEX_POINT('',#1320);
#349=VERTEX_POINT('',#1321);
#350=VERTEX_POINT('',#1323);
#351=VERTEX_POINT('',#1325);
#352=VERTEX_POINT('',#1328);
#353=VERTEX_POINT('',#1329);
#354=VERTEX_POINT('',#1331);
#355=VERTEX_POINT('',#1333);
#356=VERTEX_POINT('',#1338);
#357=VERTEX_POINT('',#1340);
#358=VERTEX_POINT('',#1344);
#359=VERTEX_POINT('',#1348);
#360=VERTEX_POINT('',#1352);
#361=VERTEX_POINT('',#1353);
#362=VERTEX_POINT('',#1355);
#363=VERTEX_POINT('',#1357);
#364=VERTEX_POINT('',#1361);
#365=VERTEX_POINT('',#1366);
#366=VERTEX_POINT('',#1368);
#367=VERTEX_POINT('',#1372);
#368=VERTEX_POINT('',#1377);
#369=VERTEX_POINT('',#1378);
#370=VERTEX_POINT('',#1380);
#371=VERTEX_POINT('',#1382);
#372=VERTEX_POINT('',#1390);
#373=VERTEX_POINT('',#1393);
#374=VERTEX_POINT('',#1401);
#375=VERTEX_POINT('',#1405);
#376=VERTEX_POINT('',#1408);
#377=EDGE_CURVE('',#311,#312,#305,.T.);
#378=EDGE_CURVE('',#311,#313,#175,.T.);
#379=EDGE_CURVE('',#313,#312,#174,.T.);
#380=EDGE_CURVE('',#314,#311,#306,.T.);
#381=EDGE_CURVE('',#314,#315,#176,.T.);
#382=EDGE_CURVE('',#315,#313,#307,.T.);
#383=EDGE_CURVE('',#316,#314,#177,.T.);
#384=EDGE_CURVE('',#316,#317,#178,.T.);
#385=EDGE_CURVE('',#317,#315,#179,.T.);
#386=EDGE_CURVE('',#312,#318,#308,.T.);
#387=EDGE_CURVE('',#318,#319,#309,.T.);
#388=EDGE_CURVE('',#311,#319,#310,.T.);
#389=EDGE_CURVE('',#320,#311,#37,.T.);
#390=EDGE_CURVE('',#320,#320,#38,.T.);
#391=EDGE_CURVE('',#321,#322,#39,.T.);
#392=EDGE_CURVE('',#321,#323,#180,.T.);
#393=EDGE_CURVE('',#323,#324,#40,.T.);
#394=EDGE_CURVE('',#324,#322,#181,.T.);
#395=EDGE_CURVE('',#318,#322,#182,.T.);
#396=EDGE_CURVE('',#325,#317,#41,.T.);
#397=EDGE_CURVE('',#326,#325,#183,.T.);
#398=EDGE_CURVE('',#327,#326,#42,.T.);
#399=EDGE_CURVE('',#328,#327,#184,.T.);
#400=EDGE_CURVE('',#329,#328,#185,.T.);
#401=EDGE_CURVE('',#330,#329,#186,.T.);
#402=EDGE_CURVE('',#321,#330,#187,.T.);
#403=EDGE_CURVE('',#319,#324,#188,.T.);
#404=EDGE_CURVE('',#331,#332,#189,.T.);
#405=EDGE_CURVE('',#333,#331,#190,.T.);
#406=EDGE_CURVE('',#333,#326,#191,.T.);
#407=EDGE_CURVE('',#332,#325,#192,.T.);
#408=EDGE_CURVE('',#334,#333,#43,.T.);
#409=EDGE_CURVE('',#334,#327,#193,.T.);
#410=EDGE_CURVE('',#335,#334,#194,.T.);
#411=EDGE_CURVE('',#335,#328,#195,.T.);
#412=EDGE_CURVE('',#336,#335,#196,.T.);
#413=EDGE_CURVE('',#336,#329,#197,.T.);
#414=EDGE_CURVE('',#332,#316,#44,.T.);
#415=EDGE_CURVE('',#331,#331,#45,.T.);
#416=EDGE_CURVE('',#323,#337,#198,.T.);
#417=EDGE_CURVE('',#337,#338,#199,.T.);
#418=EDGE_CURVE('',#338,#339,#200,.T.);
#419=EDGE_CURVE('',#339,#336,#201,.T.);
#420=EDGE_CURVE('',#340,#341,#46,.T.);
#421=EDGE_CURVE('',#340,#342,#202,.T.);
#422=EDGE_CURVE('',#343,#342,#47,.T.);
#423=EDGE_CURVE('',#343,#341,#203,.T.);
#424=EDGE_CURVE('',#344,#342,#204,.T.);
#425=EDGE_CURVE('',#344,#345,#48,.T.);
#426=EDGE_CURVE('',#343,#345,#205,.T.);
#427=EDGE_CURVE('',#346,#344,#206,.T.);
#428=EDGE_CURVE('',#347,#346,#49,.T.);
#429=EDGE_CURVE('',#345,#347,#207,.T.);
#430=EDGE_CURVE('',#348,#349,#208,.T.);
#431=EDGE_CURVE('',#350,#349,#209,.T.);
#432=EDGE_CURVE('',#350,#351,#210,.T.);
#433=EDGE_CURVE('',#351,#348,#211,.T.);
#434=EDGE_CURVE('',#352,#353,#212,.T.);
#435=EDGE_CURVE('',#352,#354,#213,.T.);
#436=EDGE_CURVE('',#354,#355,#214,.T.);
#437=EDGE_CURVE('',#353,#355,#215,.T.);
#438=EDGE_CURVE('',#347,#341,#216,.T.);
#439=EDGE_CURVE('',#356,#353,#50,.T.);
#440=EDGE_CURVE('',#356,#357,#217,.T.);
#441=EDGE_CURVE('',#352,#357,#51,.T.);
#442=EDGE_CURVE('',#357,#358,#218,.T.);
#443=EDGE_CURVE('',#358,#354,#52,.T.);
#444=EDGE_CURVE('',#355,#359,#53,.T.);
#445=EDGE_CURVE('',#359,#358,#219,.T.);
#446=EDGE_CURVE('',#360,#361,#220,.T.);
#447=EDGE_CURVE('',#361,#362,#221,.T.);
#448=EDGE_CURVE('',#362,#363,#222,.T.);
#449=EDGE_CURVE('',#360,#363,#223,.T.);
#450=EDGE_CURVE('',#346,#340,#224,.T.);
#451=EDGE_CURVE('',#364,#364,#54,.T.);
#452=EDGE_CURVE('',#359,#356,#225,.T.);
#453=EDGE_CURVE('',#361,#348,#226,.T.);
#454=EDGE_CURVE('',#365,#360,#55,.T.);
#455=EDGE_CURVE('',#366,#365,#56,.T.);
#456=EDGE_CURVE('',#349,#366,#57,.T.);
#457=EDGE_CURVE('',#363,#367,#58,.T.);
#458=EDGE_CURVE('',#367,#365,#227,.T.);
#459=EDGE_CURVE('',#351,#362,#228,.T.);
#460=EDGE_CURVE('',#368,#369,#229,.T.);
#461=EDGE_CURVE('',#368,#370,#230,.T.);
#462=EDGE_CURVE('',#371,#370,#231,.T.);
#463=EDGE_CURVE('',#371,#369,#232,.T.);
#464=EDGE_CURVE('',#338,#369,#233,.T.);
#465=EDGE_CURVE('',#368,#337,#234,.T.);
#466=EDGE_CURVE('',#330,#370,#235,.T.);
#467=EDGE_CURVE('',#372,#372,#59,.T.);
#468=EDGE_CURVE('',#373,#350,#60,.T.);
#469=EDGE_CURVE('',#367,#373,#61,.T.);
#470=EDGE_CURVE('',#371,#339,#236,.T.);
#471=EDGE_CURVE('',#331,#374,#62,.T.);
#472=EDGE_CURVE('',#374,#374,#63,.T.);
#473=EDGE_CURVE('',#375,#375,#64,.T.);
#474=EDGE_CURVE('',#375,#376,#237,.T.);
#475=EDGE_CURVE('',#376,#376,#65,.T.);
#476=EDGE_CURVE('',#366,#373,#238,.T.);
#477=EDGE_CURVE('',#364,#372,#239,.T.);
#478=ORIENTED_EDGE('',*,*,#377,.F.);
#479=ORIENTED_EDGE('',*,*,#378,.T.);
#480=ORIENTED_EDGE('',*,*,#379,.T.);
#481=ORIENTED_EDGE('',*,*,#380,.F.);
#482=ORIENTED_EDGE('',*,*,#381,.T.);
#483=ORIENTED_EDGE('',*,*,#382,.T.);
#484=ORIENTED_EDGE('',*,*,#378,.F.);
#485=ORIENTED_EDGE('',*,*,#383,.F.);
#486=ORIENTED_EDGE('',*,*,#384,.T.);
#487=ORIENTED_EDGE('',*,*,#385,.T.);
#488=ORIENTED_EDGE('',*,*,#381,.F.);
#489=ORIENTED_EDGE('',*,*,#377,.T.);
#490=ORIENTED_EDGE('',*,*,#386,.T.);
#491=ORIENTED_EDGE('',*,*,#387,.T.);
#492=ORIENTED_EDGE('',*,*,#388,.F.);
#493=ORIENTED_EDGE('',*,*,#389,.F.);
#494=ORIENTED_EDGE('',*,*,#390,.F.);
#495=ORIENTED_EDGE('',*,*,#389,.T.);
#496=ORIENTED_EDGE('',*,*,#391,.F.);
#497=ORIENTED_EDGE('',*,*,#392,.T.);
#498=ORIENTED_EDGE('',*,*,#393,.T.);
#499=ORIENTED_EDGE('',*,*,#394,.T.);
#500=ORIENTED_EDGE('',*,*,#391,.T.);
#501=ORIENTED_EDGE('',*,*,#395,.F.);
#502=ORIENTED_EDGE('',*,*,#386,.F.);
#503=ORIENTED_EDGE('',*,*,#379,.F.);
#504=ORIENTED_EDGE('',*,*,#382,.F.);
#505=ORIENTED_EDGE('',*,*,#385,.F.);
#506=ORIENTED_EDGE('',*,*,#396,.F.);
#507=ORIENTED_EDGE('',*,*,#397,.F.);
#508=ORIENTED_EDGE('',*,*,#398,.F.);
#509=ORIENTED_EDGE('',*,*,#399,.F.);
#510=ORIENTED_EDGE('',*,*,#400,.F.);
#511=ORIENTED_EDGE('',*,*,#401,.F.);
#512=ORIENTED_EDGE('',*,*,#402,.F.);
#513=ORIENTED_EDGE('',*,*,#394,.F.);
#514=ORIENTED_EDGE('',*,*,#403,.F.);
#515=ORIENTED_EDGE('',*,*,#387,.F.);
#516=ORIENTED_EDGE('',*,*,#395,.T.);
#517=ORIENTED_EDGE('',*,*,#404,.F.);
#518=ORIENTED_EDGE('',*,*,#405,.F.);
#519=ORIENTED_EDGE('',*,*,#406,.T.);
#520=ORIENTED_EDGE('',*,*,#397,.T.);
#521=ORIENTED_EDGE('',*,*,#407,.F.);
#522=ORIENTED_EDGE('',*,*,#408,.F.);
#523=ORIENTED_EDGE('',*,*,#409,.T.);
#524=ORIENTED_EDGE('',*,*,#398,.T.);
#525=ORIENTED_EDGE('',*,*,#406,.F.);
#526=ORIENTED_EDGE('',*,*,#410,.F.);
#527=ORIENTED_EDGE('',*,*,#411,.T.);
#528=ORIENTED_EDGE('',*,*,#399,.T.);
#529=ORIENTED_EDGE('',*,*,#409,.F.);
#530=ORIENTED_EDGE('',*,*,#412,.F.);
#531=ORIENTED_EDGE('',*,*,#413,.T.);
#532=ORIENTED_EDGE('',*,*,#400,.T.);
#533=ORIENTED_EDGE('',*,*,#411,.F.);
#534=ORIENTED_EDGE('',*,*,#414,.F.);
#535=ORIENTED_EDGE('',*,*,#407,.T.);
#536=ORIENTED_EDGE('',*,*,#396,.T.);
#537=ORIENTED_EDGE('',*,*,#384,.F.);
#538=ORIENTED_EDGE('',*,*,#412,.T.);
#539=ORIENTED_EDGE('',*,*,#410,.T.);
#540=ORIENTED_EDGE('',*,*,#408,.T.);
#541=ORIENTED_EDGE('',*,*,#405,.T.);
#542=ORIENTED_EDGE('',*,*,#415,.F.);
#543=ORIENTED_EDGE('',*,*,#404,.T.);
#544=ORIENTED_EDGE('',*,*,#414,.T.);
#545=ORIENTED_EDGE('',*,*,#383,.T.);
#546=ORIENTED_EDGE('',*,*,#380,.T.);
#547=ORIENTED_EDGE('',*,*,#388,.T.);
#548=ORIENTED_EDGE('',*,*,#403,.T.);
#549=ORIENTED_EDGE('',*,*,#393,.F.);
#550=ORIENTED_EDGE('',*,*,#416,.T.);
#551=ORIENTED_EDGE('',*,*,#417,.T.);
#552=ORIENTED_EDGE('',*,*,#418,.T.);
#553=ORIENTED_EDGE('',*,*,#419,.T.);
#554=ORIENTED_EDGE('',*,*,#420,.F.);
#555=ORIENTED_EDGE('',*,*,#421,.T.);
#556=ORIENTED_EDGE('',*,*,#422,.F.);
#557=ORIENTED_EDGE('',*,*,#423,.T.);
#558=ORIENTED_EDGE('',*,*,#422,.T.);
#559=ORIENTED_EDGE('',*,*,#424,.F.);
#560=ORIENTED_EDGE('',*,*,#425,.T.);
#561=ORIENTED_EDGE('',*,*,#426,.F.);
#562=ORIENTED_EDGE('',*,*,#425,.F.);
#563=ORIENTED_EDGE('',*,*,#427,.F.);
#564=ORIENTED_EDGE('',*,*,#428,.F.);
#565=ORIENTED_EDGE('',*,*,#429,.F.);
#566=ORIENTED_EDGE('',*,*,#430,.T.);
#567=ORIENTED_EDGE('',*,*,#431,.F.);
#568=ORIENTED_EDGE('',*,*,#432,.T.);
#569=ORIENTED_EDGE('',*,*,#433,.T.);
#570=ORIENTED_EDGE('',*,*,#434,.F.);
#571=ORIENTED_EDGE('',*,*,#435,.T.);
#572=ORIENTED_EDGE('',*,*,#436,.T.);
#573=ORIENTED_EDGE('',*,*,#437,.F.);
#574=ORIENTED_EDGE('',*,*,#426,.T.);
#575=ORIENTED_EDGE('',*,*,#429,.T.);
#576=ORIENTED_EDGE('',*,*,#438,.T.);
#577=ORIENTED_EDGE('',*,*,#423,.F.);
#578=ORIENTED_EDGE('',*,*,#439,.F.);
#579=ORIENTED_EDGE('',*,*,#440,.T.);
#580=ORIENTED_EDGE('',*,*,#441,.F.);
#581=ORIENTED_EDGE('',*,*,#434,.T.);
#582=ORIENTED_EDGE('',*,*,#441,.T.);
#583=ORIENTED_EDGE('',*,*,#442,.T.);
#584=ORIENTED_EDGE('',*,*,#443,.T.);
#585=ORIENTED_EDGE('',*,*,#435,.F.);
#586=ORIENTED_EDGE('',*,*,#444,.F.);
#587=ORIENTED_EDGE('',*,*,#436,.F.);
#588=ORIENTED_EDGE('',*,*,#443,.F.);
#589=ORIENTED_EDGE('',*,*,#445,.F.);
#590=ORIENTED_EDGE('',*,*,#446,.T.);
#591=ORIENTED_EDGE('',*,*,#447,.T.);
#592=ORIENTED_EDGE('',*,*,#448,.T.);
#593=ORIENTED_EDGE('',*,*,#449,.F.);
#594=ORIENTED_EDGE('',*,*,#424,.T.);
#595=ORIENTED_EDGE('',*,*,#421,.F.);
#596=ORIENTED_EDGE('',*,*,#450,.F.);
#597=ORIENTED_EDGE('',*,*,#427,.T.);
#598=ORIENTED_EDGE('',*,*,#451,.T.);
#599=ORIENTED_EDGE('',*,*,#452,.F.);
#600=ORIENTED_EDGE('',*,*,#445,.T.);
#601=ORIENTED_EDGE('',*,*,#442,.F.);
#602=ORIENTED_EDGE('',*,*,#440,.F.);
#603=ORIENTED_EDGE('',*,*,#453,.F.);
#604=ORIENTED_EDGE('',*,*,#446,.F.);
#605=ORIENTED_EDGE('',*,*,#454,.F.);
#606=ORIENTED_EDGE('',*,*,#455,.F.);
#607=ORIENTED_EDGE('',*,*,#456,.F.);
#608=ORIENTED_EDGE('',*,*,#430,.F.);
#609=ORIENTED_EDGE('',*,*,#390,.T.);
#610=ORIENTED_EDGE('',*,*,#454,.T.);
#611=ORIENTED_EDGE('',*,*,#449,.T.);
#612=ORIENTED_EDGE('',*,*,#457,.T.);
#613=ORIENTED_EDGE('',*,*,#458,.T.);
#614=ORIENTED_EDGE('',*,*,#453,.T.);
#615=ORIENTED_EDGE('',*,*,#433,.F.);
#616=ORIENTED_EDGE('',*,*,#459,.T.);
#617=ORIENTED_EDGE('',*,*,#447,.F.);
#618=ORIENTED_EDGE('',*,*,#460,.F.);
#619=ORIENTED_EDGE('',*,*,#461,.T.);
#620=ORIENTED_EDGE('',*,*,#462,.F.);
#621=ORIENTED_EDGE('',*,*,#463,.T.);
#622=ORIENTED_EDGE('',*,*,#464,.F.);
#623=ORIENTED_EDGE('',*,*,#417,.F.);
#624=ORIENTED_EDGE('',*,*,#465,.F.);
#625=ORIENTED_EDGE('',*,*,#460,.T.);
#626=ORIENTED_EDGE('',*,*,#392,.F.);
#627=ORIENTED_EDGE('',*,*,#402,.T.);
#628=ORIENTED_EDGE('',*,*,#466,.T.);
#629=ORIENTED_EDGE('',*,*,#461,.F.);
#630=ORIENTED_EDGE('',*,*,#465,.T.);
#631=ORIENTED_EDGE('',*,*,#416,.F.);
#632=ORIENTED_EDGE('',*,*,#467,.T.);
#633=ORIENTED_EDGE('',*,*,#459,.F.);
#634=ORIENTED_EDGE('',*,*,#432,.F.);
#635=ORIENTED_EDGE('',*,*,#468,.F.);
#636=ORIENTED_EDGE('',*,*,#469,.F.);
#637=ORIENTED_EDGE('',*,*,#457,.F.);
#638=ORIENTED_EDGE('',*,*,#448,.F.);
#639=ORIENTED_EDGE('',*,*,#466,.F.);
#640=ORIENTED_EDGE('',*,*,#401,.T.);
#641=ORIENTED_EDGE('',*,*,#413,.F.);
#642=ORIENTED_EDGE('',*,*,#419,.F.);
#643=ORIENTED_EDGE('',*,*,#470,.F.);
#644=ORIENTED_EDGE('',*,*,#462,.T.);
#645=ORIENTED_EDGE('',*,*,#420,.T.);
#646=ORIENTED_EDGE('',*,*,#438,.F.);
#647=ORIENTED_EDGE('',*,*,#428,.T.);
#648=ORIENTED_EDGE('',*,*,#450,.T.);
#649=ORIENTED_EDGE('',*,*,#439,.T.);
#650=ORIENTED_EDGE('',*,*,#437,.T.);
#651=ORIENTED_EDGE('',*,*,#444,.T.);
#652=ORIENTED_EDGE('',*,*,#452,.T.);
#653=ORIENTED_EDGE('',*,*,#415,.T.);
#654=ORIENTED_EDGE('',*,*,#471,.T.);
#655=ORIENTED_EDGE('',*,*,#472,.F.);
#656=ORIENTED_EDGE('',*,*,#471,.F.);
#657=ORIENTED_EDGE('',*,*,#473,.F.);
#658=ORIENTED_EDGE('',*,*,#473,.T.);
#659=ORIENTED_EDGE('',*,*,#474,.T.);
#660=ORIENTED_EDGE('',*,*,#475,.F.);
#661=ORIENTED_EDGE('',*,*,#474,.F.);
#662=ORIENTED_EDGE('',*,*,#472,.T.);
#663=ORIENTED_EDGE('',*,*,#475,.T.);
#664=ORIENTED_EDGE('',*,*,#455,.T.);
#665=ORIENTED_EDGE('',*,*,#458,.F.);
#666=ORIENTED_EDGE('',*,*,#469,.T.);
#667=ORIENTED_EDGE('',*,*,#476,.F.);
#668=ORIENTED_EDGE('',*,*,#456,.T.);
#669=ORIENTED_EDGE('',*,*,#476,.T.);
#670=ORIENTED_EDGE('',*,*,#468,.T.);
#671=ORIENTED_EDGE('',*,*,#431,.T.);
#672=ORIENTED_EDGE('',*,*,#451,.F.);
#673=ORIENTED_EDGE('',*,*,#477,.T.);
#674=ORIENTED_EDGE('',*,*,#467,.F.);
#675=ORIENTED_EDGE('',*,*,#477,.F.);
#676=ORIENTED_EDGE('',*,*,#464,.T.);
#677=ORIENTED_EDGE('',*,*,#463,.F.);
#678=ORIENTED_EDGE('',*,*,#470,.T.);
#679=ORIENTED_EDGE('',*,*,#418,.F.);
#680=B_SPLINE_SURFACE_WITH_KNOTS('',3,1,((#997,#998),(#999,#1000),(#1001,
#1002),(#1003,#1004),(#1005,#1006),(#1007,#1008),(#1009,#1010),(#1011,#1012),
(#1013,#1014),(#1015,#1016),(#1017,#1018),(#1019,#1020),(#1021,#1022)),
 .UNSPECIFIED.,.F.,.F.,.F.,(4,3,2,2,2,4),(2,2),(1.21056495593242,1.23055533748136,
1.30169952889499,1.37450342529362,1.45169954509738,1.51494864501287),(0.,
0.576000000000001),.UNSPECIFIED.);
#681=B_SPLINE_SURFACE_WITH_KNOTS('',3,1,((#1062,#1063),(#1064,#1065),(#1066,
#1067),(#1068,#1069),(#1070,#1071),(#1072,#1073),(#1074,#1075),(#1076,#1077),
(#1078,#1079),(#1080,#1081),(#1082,#1083),(#1084,#1085),(#1086,#1087),(#1088,
#1089)),.UNSPECIFIED.,.F.,.F.,.F.,(4,2,2,2,2,2,4),(2,2),(2.13480867757178,
2.14451851149103,2.22486517513377,2.30352109023184,2.37919183280249,2.42029536219284,
2.44112029341378),(0.,0.576000000000001),.UNSPECIFIED.);
#682=ADVANCED_FACE('',(#89),#680,.F.);
#683=ADVANCED_FACE('',(#90),#681,.F.);
#684=ADVANCED_FACE('',(#91),#67,.F.);
#685=ADVANCED_FACE('',(#92),#66,.F.);
#686=ADVANCED_FACE('',(#93),#25,.F.);
#687=ADVANCED_FACE('',(#94),#68,.T.);
#688=ADVANCED_FACE('',(#95),#69,.F.);
#689=ADVANCED_FACE('',(#96),#70,.F.);
#690=ADVANCED_FACE('',(#97),#26,.T.);
#691=ADVANCED_FACE('',(#98),#71,.F.);
#692=ADVANCED_FACE('',(#99),#72,.F.);
#693=ADVANCED_FACE('',(#100),#27,.T.);
#694=ADVANCED_FACE('',(#101),#73,.T.);
#695=ADVANCED_FACE('',(#102),#74,.F.);
#696=ADVANCED_FACE('',(#103),#28,.F.);
#697=ADVANCED_FACE('',(#104),#75,.F.);
#698=ADVANCED_FACE('',(#105,#16,#17),#76,.T.);
#699=ADVANCED_FACE('',(#106),#77,.F.);
#700=ADVANCED_FACE('',(#107),#29,.F.);
#701=ADVANCED_FACE('',(#108),#78,.F.);
#702=ADVANCED_FACE('',(#109,#18,#19,#20),#79,.T.);
#703=ADVANCED_FACE('',(#110,#21),#80,.T.);
#704=ADVANCED_FACE('',(#111),#30,.T.);
#705=ADVANCED_FACE('',(#112,#22),#81,.T.);
#706=ADVANCED_FACE('',(#113),#82,.T.);
#707=ADVANCED_FACE('',(#114,#23),#83,.T.);
#708=ADVANCED_FACE('',(#115),#84,.T.);
#709=ADVANCED_FACE('',(#116),#85,.T.);
#710=ADVANCED_FACE('',(#117),#31,.T.);
#711=ADVANCED_FACE('',(#118),#32,.T.);
#712=ADVANCED_FACE('',(#119),#15,.F.);
#713=ADVANCED_FACE('',(#120),#86,.T.);
#714=ADVANCED_FACE('',(#121),#33,.F.);
#715=ADVANCED_FACE('',(#122,#24),#87,.T.);
#716=ADVANCED_FACE('',(#123),#34,.F.);
#717=ADVANCED_FACE('',(#124),#35,.T.);
#718=ADVANCED_FACE('',(#125),#36,.F.);
#719=ADVANCED_FACE('',(#126),#88,.T.);
#720=CLOSED_SHELL('',(#682,#683,#684,#685,#686,#687,#688,#689,#690,#691,
#692,#693,#694,#695,#696,#697,#698,#699,#700,#701,#702,#703,#704,#705,#706,
#707,#708,#709,#710,#711,#712,#713,#714,#715,#716,#717,#718,#719));
#721=DERIVED_UNIT_ELEMENT(#723,1.);
#722=DERIVED_UNIT_ELEMENT(#1423,-3.);
#723=(
MASS_UNIT()
NAMED_UNIT(*)
SI_UNIT(.KILO.,.GRAM.)
);
#724=DERIVED_UNIT((#721,#722));
#725=MEASURE_REPRESENTATION_ITEM('density measure',
POSITIVE_RATIO_MEASURE(7850.),#724);
#726=PROPERTY_DEFINITION_REPRESENTATION(#731,#728);
#727=PROPERTY_DEFINITION_REPRESENTATION(#732,#729);
#728=REPRESENTATION('material name',(#730),#1420);
#729=REPRESENTATION('density',(#725),#1420);
#730=DESCRIPTIVE_REPRESENTATION_ITEM('Steel','Steel');
#731=PROPERTY_DEFINITION('material property','material name',#1430);
#732=PROPERTY_DEFINITION('material property','density of part',#1430);
#733=AXIS2_PLACEMENT_3D('',#996,#799,#800);
#734=AXIS2_PLACEMENT_3D('',#1061,#802,#803);
#735=AXIS2_PLACEMENT_3D('',#1121,#805,#806);
#736=AXIS2_PLACEMENT_3D('',#1239,#810,#811);
#737=AXIS2_PLACEMENT_3D('',#1240,#812,#813);
#738=AXIS2_PLACEMENT_3D('',#1241,#814,#815);
#739=AXIS2_PLACEMENT_3D('',#1244,#816,#817);
#740=AXIS2_PLACEMENT_3D('',#1248,#819,#820);
#741=AXIS2_PLACEMENT_3D('',#1250,#822,#823);
#742=AXIS2_PLACEMENT_3D('',#1253,#825,#826);
#743=AXIS2_PLACEMENT_3D('',#1257,#828,#829);
#744=AXIS2_PLACEMENT_3D('',#1265,#834,#835);
#745=AXIS2_PLACEMENT_3D('',#1267,#837,#838);
#746=AXIS2_PLACEMENT_3D('',#1275,#843,#844);
#747=AXIS2_PLACEMENT_3D('',#1277,#845,#846);
#748=AXIS2_PLACEMENT_3D('',#1279,#848,#849);
#749=AXIS2_PLACEMENT_3D('',#1283,#852,#853);
#750=AXIS2_PLACEMENT_3D('',#1287,#856,#857);
#751=AXIS2_PLACEMENT_3D('',#1288,#858,#859);
#752=AXIS2_PLACEMENT_3D('',#1289,#860,#861);
#753=AXIS2_PLACEMENT_3D('',#1290,#862,#863);
#754=AXIS2_PLACEMENT_3D('',#1298,#868,#869);
#755=AXIS2_PLACEMENT_3D('',#1301,#870,#871);
#756=AXIS2_PLACEMENT_3D('',#1305,#873,#874);
#757=AXIS2_PLACEMENT_3D('',#1307,#876,#877);
#758=AXIS2_PLACEMENT_3D('',#1311,#879,#880);
#759=AXIS2_PLACEMENT_3D('',#1313,#882,#883);
#760=AXIS2_PLACEMENT_3D('',#1317,#885,#886);
#761=AXIS2_PLACEMENT_3D('',#1319,#888,#889);
#762=AXIS2_PLACEMENT_3D('',#1337,#899,#900);
#763=AXIS2_PLACEMENT_3D('',#1339,#901,#902);
#764=AXIS2_PLACEMENT_3D('',#1342,#904,#905);
#765=AXIS2_PLACEMENT_3D('',#1343,#906,#907);
#766=AXIS2_PLACEMENT_3D('',#1346,#909,#910);
#767=AXIS2_PLACEMENT_3D('',#1347,#911,#912);
#768=AXIS2_PLACEMENT_3D('',#1349,#913,#914);
#769=AXIS2_PLACEMENT_3D('',#1351,#916,#917);
#770=AXIS2_PLACEMENT_3D('',#1362,#923,#924);
#771=AXIS2_PLACEMENT_3D('',#1364,#926,#927);
#772=AXIS2_PLACEMENT_3D('',#1367,#929,#930);
#773=AXIS2_PLACEMENT_3D('',#1369,#931,#932);
#774=AXIS2_PLACEMENT_3D('',#1370,#933,#934);
#775=AXIS2_PLACEMENT_3D('',#1371,#935,#936);
#776=AXIS2_PLACEMENT_3D('',#1373,#937,#938);
#777=AXIS2_PLACEMENT_3D('',#1375,#940,#941);
#778=AXIS2_PLACEMENT_3D('',#1385,#947,#948);
#779=AXIS2_PLACEMENT_3D('',#1388,#951,#952);
#780=AXIS2_PLACEMENT_3D('',#1391,#954,#955);
#781=AXIS2_PLACEMENT_3D('',#1392,#956,#957);
#782=AXIS2_PLACEMENT_3D('',#1394,#958,#959);
#783=AXIS2_PLACEMENT_3D('',#1395,#960,#961);
#784=AXIS2_PLACEMENT_3D('',#1396,#962,#963);
#785=AXIS2_PLACEMENT_3D('',#1398,#965,#966);
#786=AXIS2_PLACEMENT_3D('',#1399,#967,#968);
#787=AXIS2_PLACEMENT_3D('',#1400,#969,#970);
#788=AXIS2_PLACEMENT_3D('',#1402,#971,#972);
#789=AXIS2_PLACEMENT_3D('',#1403,#973,#974);
#790=AXIS2_PLACEMENT_3D('',#1404,#975,#976);
#791=AXIS2_PLACEMENT_3D('',#1406,#977,#978);
#792=AXIS2_PLACEMENT_3D('',#1407,#979,#980);
#793=AXIS2_PLACEMENT_3D('',#1410,#982,#983);
#794=AXIS2_PLACEMENT_3D('',#1411,#984,#985);
#795=AXIS2_PLACEMENT_3D('',#1412,#986,#987);
#796=AXIS2_PLACEMENT_3D('',#1414,#989,#990);
#797=AXIS2_PLACEMENT_3D('',#1415,#991,#992);
#798=AXIS2_PLACEMENT_3D('',#1417,#994,#995);
#799=DIRECTION('axis',(0.,0.,1.));
#800=DIRECTION('refdir',(1.,0.,0.));
#801=DIRECTION('',(1.,0.,-2.22044604925031E-16));
#802=DIRECTION('center_axis',(1.,-7.21375440043418E-14,2.61470161558193E-13));
#803=DIRECTION('ref_axis',(2.70119933700823E-13,0.177391765357012,-0.984140316003527));
#804=DIRECTION('',(1.,0.,-2.22044604925031E-16));
#805=DIRECTION('center_axis',(1.32822595864913E-28,-1.,5.98179793243604E-13));
#806=DIRECTION('ref_axis',(-2.22044604925031E-16,-5.98179793243604E-13,
-1.));
#807=DIRECTION('',(-2.22044604925031E-16,0.,-1.));
#808=DIRECTION('',(1.,0.,-2.22044604925031E-16));
#809=DIRECTION('',(-2.22044604925031E-16,-5.98179793243604E-13,-1.));
#810=DIRECTION('center_axis',(-2.22044604925031E-16,0.,-1.));
#811=DIRECTION('ref_axis',(0.916147466937861,-0.400841388610684,-2.03425602349285E-16));
#812=DIRECTION('center_axis',(-6.66133814775094E-16,-1.,1.4791141972894E-31));
#813=DIRECTION('ref_axis',(2.22044604925031E-16,0.,1.));
#814=DIRECTION('center_axis',(1.,0.,-2.46519032881566E-31));
#815=DIRECTION('ref_axis',(1.54074395550979E-31,0.707106781186549,0.707106781186546));
#816=DIRECTION('center_axis',(-1.,0.,2.22044604925031E-16));
#817=DIRECTION('ref_axis',(1.57009245868377E-16,0.707106781186549,0.707106781186546));
#818=DIRECTION('',(-1.,0.,2.46519032881566E-31));
#819=DIRECTION('center_axis',(-1.,0.,2.46519032881566E-31));
#820=DIRECTION('ref_axis',(1.54074395550979E-31,0.707106781186549,0.707106781186546));
#821=DIRECTION('',(1.,0.,-2.46519032881566E-31));
#822=DIRECTION('center_axis',(-1.,0.,2.22044604925031E-16));
#823=DIRECTION('ref_axis',(-2.22044604925031E-16,0.,-1.));
#824=DIRECTION('',(2.22044604925031E-16,0.,1.));
#825=DIRECTION('center_axis',(-1.,0.,2.22044604925031E-16));
#826=DIRECTION('ref_axis',(2.22044604925031E-16,2.2204460492503E-15,1.));
#827=DIRECTION('',(0.,1.,0.));
#828=DIRECTION('center_axis',(-1.,0.,2.22044604925031E-16));
#829=DIRECTION('ref_axis',(0.,-1.,0.));
#830=DIRECTION('',(2.22044604925031E-16,-2.09962260096098E-16,1.));
#831=DIRECTION('',(0.,1.,0.));
#832=DIRECTION('',(-2.22044604925031E-16,-6.93889390390721E-17,-1.));
#833=DIRECTION('',(0.,-1.,0.));
#834=DIRECTION('center_axis',(0.,1.,0.));
#835=DIRECTION('ref_axis',(2.22044604925031E-16,0.,1.));
#836=DIRECTION('',(2.46519032881566E-31,0.,1.));
#837=DIRECTION('center_axis',(-2.22044604925031E-16,0.,-1.));
#838=DIRECTION('ref_axis',(0.,1.,0.));
#839=DIRECTION('',(0.,1.,0.));
#840=DIRECTION('',(0.,1.,0.));
#841=DIRECTION('',(1.,0.,-2.22044604925031E-16));
#842=DIRECTION('',(1.,0.,-2.22044604925031E-16));
#843=DIRECTION('center_axis',(1.,0.,-2.22044604925031E-16));
#844=DIRECTION('ref_axis',(0.,-1.,0.));
#845=DIRECTION('center_axis',(-1.,0.,2.46519032881566E-31));
#846=DIRECTION('ref_axis',(0.,-1.,0.));
#847=DIRECTION('',(1.,0.,-2.22044604925031E-16));
#848=DIRECTION('center_axis',(4.66209870922047E-32,1.,2.09962260096098E-16));
#849=DIRECTION('ref_axis',(2.22044604925031E-16,-2.09962260096098E-16,1.));
#850=DIRECTION('',(2.46519032881566E-31,-2.09962260096098E-16,1.));
#851=DIRECTION('',(1.,0.,-2.22044604925031E-16));
#852=DIRECTION('center_axis',(-2.22044604925031E-16,0.,-1.));
#853=DIRECTION('ref_axis',(0.,1.,0.));
#854=DIRECTION('',(0.,1.,0.));
#855=DIRECTION('',(1.,0.,-2.22044604925031E-16));
#856=DIRECTION('center_axis',(1.,0.,-2.22044604925031E-16));
#857=DIRECTION('ref_axis',(2.22044604925031E-16,2.2204460492503E-15,1.));
#858=DIRECTION('center_axis',(-1.,0.,2.46519032881566E-31));
#859=DIRECTION('ref_axis',(2.46519032881565E-31,2.2204460492503E-15,1.));
#860=DIRECTION('center_axis',(-1.,0.,2.46519032881566E-31));
#861=DIRECTION('ref_axis',(2.46519032881566E-31,0.,1.));
#862=DIRECTION('center_axis',(-1.,0.,2.46519032881566E-31));
#863=DIRECTION('ref_axis',(-2.46519032881566E-31,0.,-1.));
#864=DIRECTION('',(0.,1.,0.));
#865=DIRECTION('',(-2.46519032881566E-31,0.,-1.));
#866=DIRECTION('',(0.,-1.,0.));
#867=DIRECTION('',(2.46519032881566E-31,0.,1.));
#868=DIRECTION('center_axis',(0.,1.,0.));
#869=DIRECTION('ref_axis',(1.,0.,-2.46519032881566E-31));
#870=DIRECTION('center_axis',(0.,-1.,0.));
#871=DIRECTION('ref_axis',(-1.,0.,1.09900865063904E-16));
#872=DIRECTION('',(-1.,0.,2.46519032881566E-31));
#873=DIRECTION('center_axis',(0.,1.,0.));
#874=DIRECTION('ref_axis',(-1.,0.,1.20189281564925E-16));
#875=DIRECTION('',(1.,0.,-2.46519032881566E-31));
#876=DIRECTION('center_axis',(0.,-1.,0.));
#877=DIRECTION('ref_axis',(-1.,0.,1.20189281564925E-16));
#878=DIRECTION('',(0.,1.,0.));
#879=DIRECTION('center_axis',(0.,-1.,0.));
#880=DIRECTION('ref_axis',(-1.,0.,1.20189281564925E-16));
#881=DIRECTION('',(0.,-1.,0.));
#882=DIRECTION('center_axis',(0.,-1.,0.));
#883=DIRECTION('ref_axis',(-1.,0.,2.46519032881566E-31));
#884=DIRECTION('',(-1.,0.,2.46519032881566E-31));
#885=DIRECTION('center_axis',(0.,1.,0.));
#886=DIRECTION('ref_axis',(-1.,0.,1.09900865063904E-16));
#887=DIRECTION('',(1.,0.,-2.46519032881566E-31));
#888=DIRECTION('center_axis',(-2.46519032881566E-31,0.,-1.));
#889=DIRECTION('ref_axis',(-1.,0.,2.46519032881566E-31));
#890=DIRECTION('',(1.,0.,-2.46519032881566E-31));
#891=DIRECTION('',(0.,1.,0.));
#892=DIRECTION('',(-1.,0.,2.46519032881566E-31));
#893=DIRECTION('',(0.,1.,0.));
#894=DIRECTION('',(1.,0.,-2.46519032881566E-31));
#895=DIRECTION('',(0.,-1.,0.));
#896=DIRECTION('',(1.,0.,-2.46519032881566E-31));
#897=DIRECTION('',(0.,-1.,0.));
#898=DIRECTION('',(0.,1.,0.));
#899=DIRECTION('center_axis',(0.,1.,0.));
#900=DIRECTION('ref_axis',(1.,0.,-2.46519032881566E-31));
#901=DIRECTION('center_axis',(0.,-1.,0.));
#902=DIRECTION('ref_axis',(-1.,0.,1.09900865063904E-16));
#903=DIRECTION('',(-1.,0.,2.46519032881566E-31));
#904=DIRECTION('center_axis',(0.,1.,0.));
#905=DIRECTION('ref_axis',(-1.,0.,1.20189281564925E-16));
#906=DIRECTION('center_axis',(0.,-1.,0.));
#907=DIRECTION('ref_axis',(-1.,0.,1.20189281564925E-16));
#908=DIRECTION('',(0.,-1.,0.));
#909=DIRECTION('center_axis',(0.,-1.,0.));
#910=DIRECTION('ref_axis',(-1.,0.,1.20189281564925E-16));
#911=DIRECTION('center_axis',(0.,-1.,0.));
#912=DIRECTION('ref_axis',(-1.,0.,2.46519032881566E-31));
#913=DIRECTION('center_axis',(0.,1.,0.));
#914=DIRECTION('ref_axis',(-1.,0.,1.09900865063904E-16));
#915=DIRECTION('',(-1.,0.,2.46519032881566E-31));
#916=DIRECTION('center_axis',(2.46519032881566E-31,0.,1.));
#917=DIRECTION('ref_axis',(1.,0.,-2.46519032881566E-31));
#918=DIRECTION('',(-1.,0.,2.46519032881566E-31));
#919=DIRECTION('',(0.,-1.,0.));
#920=DIRECTION('',(1.,0.,-2.46519032881566E-31));
#921=DIRECTION('',(0.,-1.,0.));
#922=DIRECTION('',(0.,1.,0.));
#923=DIRECTION('center_axis',(-2.46519032881566E-31,0.,-1.));
#924=DIRECTION('ref_axis',(0.,-1.,0.));
#925=DIRECTION('',(0.,1.,0.));
#926=DIRECTION('center_axis',(0.,1.,0.));
#927=DIRECTION('ref_axis',(2.46519032881566E-31,0.,1.));
#928=DIRECTION('',(-2.46519032881566E-31,0.,-1.));
#929=DIRECTION('center_axis',(0.,-1.,0.));
#930=DIRECTION('ref_axis',(0.875189948987373,0.,0.483779446846887));
#931=DIRECTION('center_axis',(0.,1.,0.));
#932=DIRECTION('ref_axis',(-0.786195761102737,0.,-0.617977528089888));
#933=DIRECTION('center_axis',(0.,-1.,0.));
#934=DIRECTION('ref_axis',(0.875189948987373,0.,-0.483779446846887));
#935=DIRECTION('center_axis',(0.,1.,0.));
#936=DIRECTION('ref_axis',(0.875189948987373,0.,0.483779446846887));
#937=DIRECTION('center_axis',(0.,1.,0.));
#938=DIRECTION('ref_axis',(0.875189948987373,0.,0.483779446846887));
#939=DIRECTION('',(0.,1.,0.));
#940=DIRECTION('center_axis',(-1.,0.,2.46519032881566E-31));
#941=DIRECTION('ref_axis',(2.46519032881566E-31,0.,1.));
#942=DIRECTION('',(2.46519032881566E-31,0.,1.));
#943=DIRECTION('',(-2.46519032881566E-31,0.,-1.));
#944=DIRECTION('',(0.,-1.,0.));
#945=DIRECTION('',(8.88178419700125E-16,0.,1.));
#946=DIRECTION('',(0.,1.,0.));
#947=DIRECTION('center_axis',(0.,-1.,0.));
#948=DIRECTION('ref_axis',(-1.,0.,2.22044604925031E-16));
#949=DIRECTION('',(-1.,0.,2.46519032881566E-31));
#950=DIRECTION('',(1.,0.,-2.46519032881566E-31));
#951=DIRECTION('center_axis',(-2.46519032881566E-31,0.,-1.));
#952=DIRECTION('ref_axis',(-1.,0.,2.46519032881566E-31));
#953=DIRECTION('',(-1.,0.,2.46519032881566E-31));
#954=DIRECTION('center_axis',(2.46519032881566E-31,0.,1.));
#955=DIRECTION('ref_axis',(0.,-1.,0.));
#956=DIRECTION('center_axis',(0.,-1.,0.));
#957=DIRECTION('ref_axis',(-2.46519032881566E-31,0.,-1.));
#958=DIRECTION('center_axis',(0.,1.,0.));
#959=DIRECTION('ref_axis',(0.875189948987373,0.,-0.483779446846887));
#960=DIRECTION('center_axis',(0.,-1.,0.));
#961=DIRECTION('ref_axis',(-0.786195761102737,0.,-0.617977528089888));
#962=DIRECTION('center_axis',(0.,1.,0.));
#963=DIRECTION('ref_axis',(1.,0.,-2.22044604925031E-16));
#964=DIRECTION('',(1.,0.,-2.46519032881566E-31));
#965=DIRECTION('center_axis',(0.,-1.,0.));
#966=DIRECTION('ref_axis',(-1.,0.,1.09900865063904E-16));
#967=DIRECTION('center_axis',(0.,-1.,0.));
#968=DIRECTION('ref_axis',(-1.,0.,1.09900865063904E-16));
#969=DIRECTION('center_axis',(1.,0.,-2.46519032881566E-31));
#970=DIRECTION('ref_axis',(0.,0.,-1.));
#971=DIRECTION('center_axis',(0.,1.,0.));
#972=DIRECTION('ref_axis',(0.,0.,1.));
#973=DIRECTION('center_axis',(-1.,0.,2.46519032881566E-31));
#974=DIRECTION('ref_axis',(-2.46519032881565E-31,0.,-1.));
#975=DIRECTION('center_axis',(-1.,0.,2.46519032881566E-31));
#976=DIRECTION('ref_axis',(2.46519032881566E-31,0.,1.));
#977=DIRECTION('center_axis',(1.,0.,-2.46519032881566E-31));
#978=DIRECTION('ref_axis',(-2.2010627935854E-31,0.,-1.));
#979=DIRECTION('center_axis',(-1.,0.,2.46519032881566E-31));
#980=DIRECTION('ref_axis',(-2.2010627935854E-31,0.,-1.));
#981=DIRECTION('',(-1.,0.,2.46519032881566E-31));
#982=DIRECTION('center_axis',(1.,0.,-2.46519032881566E-31));
#983=DIRECTION('ref_axis',(-2.2010627935854E-31,0.,-1.));
#984=DIRECTION('center_axis',(-1.,0.,2.46519032881566E-31));
#985=DIRECTION('ref_axis',(-2.46519032881566E-31,0.,-1.));
#986=DIRECTION('center_axis',(0.,1.,0.));
#987=DIRECTION('ref_axis',(-0.786195761102737,0.,-0.617977528089888));
#988=DIRECTION('',(0.,-1.,0.));
#989=DIRECTION('center_axis',(0.,1.,0.));
#990=DIRECTION('ref_axis',(0.875189948987373,0.,-0.483779446846887));
#991=DIRECTION('center_axis',(-2.46519032881566E-31,0.,-1.));
#992=DIRECTION('ref_axis',(0.,-1.,0.));
#993=DIRECTION('',(-2.46519032881566E-31,0.,-1.));
#994=DIRECTION('center_axis',(2.46519032881566E-31,0.,1.));
#995=DIRECTION('ref_axis',(1.,0.,-2.46519032881566E-31));
#996=CARTESIAN_POINT('',(0.,0.,0.));
#997=CARTESIAN_POINT('Ctrl Pts',(125.010387348706,16.2999998835398,9.32806278361985));
#998=CARTESIAN_POINT('Ctrl Pts',(130.770387348706,16.2999998835398,9.32806278361985));
#999=CARTESIAN_POINT('Ctrl Pts',(125.010387348706,16.3665074642714,9.32806275954185));
#1000=CARTESIAN_POINT('Ctrl Pts',(130.770387348706,16.3665074642714,9.32806275954185));
#1001=CARTESIAN_POINT('Ctrl Pts',(125.010387348706,16.4330162666134,9.33169912243784));
#1002=CARTESIAN_POINT('Ctrl Pts',(130.770387348706,16.4330162666134,9.33169912243784));
#1003=CARTESIAN_POINT('Ctrl Pts',(125.010387348706,16.4992507465776,9.33899050564886));
#1004=CARTESIAN_POINT('Ctrl Pts',(130.770387348706,16.4992507465776,9.33899050564886));
#1005=CARTESIAN_POINT('Ctrl Pts',(125.010387348706,16.7349740372618,9.36493996346986));
#1006=CARTESIAN_POINT('Ctrl Pts',(130.770387348706,16.7349740372618,9.36493996346986));
#1007=CARTESIAN_POINT('Ctrl Pts',(125.010387348706,16.9626623180732,9.43666166656485));
#1008=CARTESIAN_POINT('Ctrl Pts',(130.770387348706,16.9626623180732,9.43666166656484));
#1009=CARTESIAN_POINT('Ctrl Pts',(125.010387348706,17.3843757520781,9.66590422513985));
#1010=CARTESIAN_POINT('Ctrl Pts',(130.770387348706,17.3843757520781,9.66590422513985));
#1011=CARTESIAN_POINT('Ctrl Pts',(125.010387348706,17.5722663615463,9.82249780274085));
#1012=CARTESIAN_POINT('Ctrl Pts',(130.770387348706,17.5722663615463,9.82249780274085));
#1013=CARTESIAN_POINT('Ctrl Pts',(125.010387348706,17.8907335050952,10.2086387691199));
#1014=CARTESIAN_POINT('Ctrl Pts',(130.770387348706,17.8907335050952,10.2086387691198));
#1015=CARTESIAN_POINT('Ctrl Pts',(125.010387348706,18.0139110666321,10.4380001336408));
#1016=CARTESIAN_POINT('Ctrl Pts',(130.770387348706,18.0139110666321,10.4380001336408));
#1017=CARTESIAN_POINT('Ctrl Pts',(125.010387348706,18.1563369255645,10.8848010501369));
#1018=CARTESIAN_POINT('Ctrl Pts',(130.770387348706,18.1563369255645,10.8848010501369));
#1019=CARTESIAN_POINT('Ctrl Pts',(125.010387348706,18.1897158322512,11.0949185293349));
#1020=CARTESIAN_POINT('Ctrl Pts',(130.770387348706,18.1897158322512,11.0949185293349));
#1021=CARTESIAN_POINT('Ctrl Pts',(125.010387348706,18.1919117744121,11.3057907569709));
#1022=CARTESIAN_POINT('Ctrl Pts',(130.770387348706,18.1919117744121,11.3057907569708));
#1023=CARTESIAN_POINT('',(125.010387348706,16.2999998835399,9.32806278361985));
#1024=CARTESIAN_POINT('',(129.010387348706,17.2332321129334,9.58531569153484));
#1025=CARTESIAN_POINT('Ctrl Pts',(125.010387348706,16.2999998835399,9.32806278361985));
#1026=CARTESIAN_POINT('Ctrl Pts',(125.01956339955,16.3013526692663,9.3280627831301));
#1027=CARTESIAN_POINT('Ctrl Pts',(125.029118719224,16.302767465947,9.328064372035));
#1028=CARTESIAN_POINT('Ctrl Pts',(125.038293165358,16.3041310886636,9.32806745921284));
#1029=CARTESIAN_POINT('Ctrl Pts',(125.22731618277,16.3322260904479,9.32813106497847));
#1030=CARTESIAN_POINT('Ctrl Pts',(125.415916065077,16.3625741839683,9.32884490293362));
#1031=CARTESIAN_POINT('Ctrl Pts',(125.603953296595,16.3951177459178,9.33054559363707));
#1032=CARTESIAN_POINT('Ctrl Pts',(125.791990528114,16.4276613078674,9.33224628434052));
#1033=CARTESIAN_POINT('Ctrl Pts',(125.979465108842,16.4624009051363,9.33493391283861));
#1034=CARTESIAN_POINT('Ctrl Pts',(126.166237523096,16.4992507465777,9.33899050564886));
#1035=CARTESIAN_POINT('Ctrl Pts',(126.335688540389,16.5326831094041,9.34267088736465));
#1036=CARTESIAN_POINT('Ctrl Pts',(126.504562296958,16.5678518704126,9.34747755389767));
#1037=CARTESIAN_POINT('Ctrl Pts',(126.67275676635,16.6046977841839,9.35373504854421));
#1038=CARTESIAN_POINT('Ctrl Pts',(126.795532116077,16.6315938525603,9.35830277360927));
#1039=CARTESIAN_POINT('Ctrl Pts',(126.917945512661,16.6593830074957,9.3636443339903));
#1040=CARTESIAN_POINT('Ctrl Pts',(127.039957272488,16.6880296779946,9.3698983825271));
#1041=CARTESIAN_POINT('Ctrl Pts',(127.191546663991,16.7236207665555,9.37766851397558));
#1042=CARTESIAN_POINT('Ctrl Pts',(127.343331808872,16.7607188942569,9.38688563748855));
#1043=CARTESIAN_POINT('Ctrl Pts',(127.494852969905,16.7992214554226,9.39787437369801));
#1044=CARTESIAN_POINT('Ctrl Pts',(127.642776106637,16.8368097340569,9.40860217117367));
#1045=CARTESIAN_POINT('Ctrl Pts',(127.790447647798,16.875736908285,9.42101860783344));
#1046=CARTESIAN_POINT('Ctrl Pts',(127.9374398354,16.9158683657054,9.43545342155874));
#1047=CARTESIAN_POINT('Ctrl Pts',(128.085252122236,16.956223724668,9.4499687700381));
#1048=CARTESIAN_POINT('Ctrl Pts',(128.232377453863,16.9977974808782,9.46652513244964));
#1049=CARTESIAN_POINT('Ctrl Pts',(128.378380872629,17.0404048995582,9.48548472670433));
#1050=CARTESIAN_POINT('Ctrl Pts',(128.515246919346,17.080345806455,9.50325776746547));
#1051=CARTESIAN_POINT('Ctrl Pts',(128.651127085006,17.1211950773178,9.52314296004398));
#1052=CARTESIAN_POINT('Ctrl Pts',(128.785663071041,17.1627547539378,9.5454591658766));
#1053=CARTESIAN_POINT('Ctrl Pts',(128.794644884924,17.1655293370914,9.54694902753557));
#1054=CARTESIAN_POINT('Ctrl Pts',(128.80362070768,17.1683070684735,9.54844973148745));
#1055=CARTESIAN_POINT('Ctrl Pts',(128.812590432693,17.1710878812503,9.54996137561468));
#1056=CARTESIAN_POINT('Ctrl Pts',(128.878868807994,17.1916356408065,9.56113109560416));
#1057=CARTESIAN_POINT('Ctrl Pts',(128.944815439255,17.2123581745349,9.57290090028567));
#1058=CARTESIAN_POINT('Ctrl Pts',(129.010387348706,17.2332321129339,9.58531569153526));
#1059=CARTESIAN_POINT('',(129.010387348706,16.2999998835398,9.32806278361985));
#1060=CARTESIAN_POINT('',(125.010387348706,16.2999998835398,9.32806278361985));
#1061=CARTESIAN_POINT('Origin',(129.010387348705,16.2617277959574,11.3600439407679));
#1062=CARTESIAN_POINT('Ctrl Pts',(125.010387348706,14.3767730747812,11.3057907569669));
#1063=CARTESIAN_POINT('Ctrl Pts',(130.770387348706,14.3767730747812,11.3057907569669));
#1064=CARTESIAN_POINT('Ctrl Pts',(125.010387348706,14.3771217120272,11.2734239140629));
#1065=CARTESIAN_POINT('Ctrl Pts',(130.770387348706,14.3771217120272,11.2734239140629));
#1066=CARTESIAN_POINT('Ctrl Pts',(125.010387348706,14.3782306587476,11.2410419102778));
#1067=CARTESIAN_POINT('Ctrl Pts',(130.770387348706,14.3782306587476,11.2410419102778));
#1068=CARTESIAN_POINT('Ctrl Pts',(125.010387348706,14.395596058624,10.9408271091978));
#1069=CARTESIAN_POINT('Ctrl Pts',(130.770387348706,14.395596058624,10.9408271091978));
#1070=CARTESIAN_POINT('Ctrl Pts',(125.010387348706,14.4631113565709,10.6781577253208));
#1071=CARTESIAN_POINT('Ctrl Pts',(130.770387348706,14.4631113565709,10.6781577253208));
#1072=CARTESIAN_POINT('Ctrl Pts',(125.010387348706,14.693261376271,10.1998796588248));
#1073=CARTESIAN_POINT('Ctrl Pts',(130.770387348706,14.693261376271,10.1998796588248));
#1074=CARTESIAN_POINT('Ctrl Pts',(125.010387348706,14.8519747751981,9.98737234987884));
#1075=CARTESIAN_POINT('Ctrl Pts',(130.770387348706,14.8519747751981,9.98737234987883));
#1076=CARTESIAN_POINT('Ctrl Pts',(125.010387348706,15.2358559767237,9.64433951815986));
#1077=CARTESIAN_POINT('Ctrl Pts',(130.770387348706,15.2358559767237,9.64433951815986));
#1078=CARTESIAN_POINT('Ctrl Pts',(125.010387348706,15.4548048947231,9.51416439015786));
#1079=CARTESIAN_POINT('Ctrl Pts',(130.770387348706,15.4548048947231,9.51416439015785));
#1080=CARTESIAN_POINT('Ctrl Pts',(125.010387348706,15.8224301256691,9.38612918339086));
#1081=CARTESIAN_POINT('Ctrl Pts',(130.770387348706,15.8224301256691,9.38612918339085));
#1082=CARTESIAN_POINT('Ctrl Pts',(125.010387348706,15.9563325540833,9.35541739573186));
#1083=CARTESIAN_POINT('Ctrl Pts',(130.770387348706,15.9563325540833,9.35541739573185));
#1084=CARTESIAN_POINT('Ctrl Pts',(125.010387348706,16.1614329892553,9.33200912454085));
#1085=CARTESIAN_POINT('Ctrl Pts',(130.770387348706,16.1614329892553,9.33200912454085));
#1086=CARTESIAN_POINT('Ctrl Pts',(125.010387348706,16.2307157735285,9.32806278200884));
#1087=CARTESIAN_POINT('Ctrl Pts',(130.770387348706,16.2307157735285,9.32806278200884));
#1088=CARTESIAN_POINT('Ctrl Pts',(125.010387348706,16.2999998835398,9.32806278361985));
#1089=CARTESIAN_POINT('Ctrl Pts',(130.770387348706,16.2999998835398,9.32806278361985));
#1090=CARTESIAN_POINT('',(125.010387348706,14.3767730747809,11.3057907569709));
#1091=CARTESIAN_POINT('Ctrl Pts',(125.010387348706,14.3767730747812,11.3057907569669));
#1092=CARTESIAN_POINT('Ctrl Pts',(125.010387348706,14.3771217120272,11.2734239140629));
#1093=CARTESIAN_POINT('Ctrl Pts',(125.010387348706,14.3782306587476,11.2410419102778));
#1094=CARTESIAN_POINT('Ctrl Pts',(125.010387348706,14.395596058624,10.9408271091978));
#1095=CARTESIAN_POINT('Ctrl Pts',(125.010387348706,14.4631113565709,10.6781577253208));
#1096=CARTESIAN_POINT('Ctrl Pts',(125.010387348706,14.693261376271,10.1998796588248));
#1097=CARTESIAN_POINT('Ctrl Pts',(125.010387348706,14.8519747751981,9.98737234987884));
#1098=CARTESIAN_POINT('Ctrl Pts',(125.010387348706,15.2358559767237,9.64433951815986));
#1099=CARTESIAN_POINT('Ctrl Pts',(125.010387348706,15.4548048947231,9.51416439015786));
#1100=CARTESIAN_POINT('Ctrl Pts',(125.010387348706,15.8224301256691,9.38612918339086));
#1101=CARTESIAN_POINT('Ctrl Pts',(125.010387348706,15.9563325540833,9.35541739573186));
#1102=CARTESIAN_POINT('Ctrl Pts',(125.010387348706,16.1614329892553,9.33200912454085));
#1103=CARTESIAN_POINT('Ctrl Pts',(125.010387348706,16.2307157735285,9.32806278200884));
#1104=CARTESIAN_POINT('Ctrl Pts',(125.010387348706,16.2999998835398,9.32806278361985));
#1105=CARTESIAN_POINT('',(129.010387348706,14.3767730747809,11.3057907569709));
#1106=CARTESIAN_POINT('',(125.010387348706,14.3767730747809,11.3057907569709));
#1107=CARTESIAN_POINT('Ctrl Pts',(129.010387348706,14.3767730747812,11.3057907569669));
#1108=CARTESIAN_POINT('Ctrl Pts',(129.010387348706,14.3771217120272,11.2734239140629));
#1109=CARTESIAN_POINT('Ctrl Pts',(129.010387348706,14.3782306587476,11.2410419102778));
#1110=CARTESIAN_POINT('Ctrl Pts',(129.010387348706,14.395596058624,10.9408271091978));
#1111=CARTESIAN_POINT('Ctrl Pts',(129.010387348706,14.4631113565709,10.6781577253208));
#1112=CARTESIAN_POINT('Ctrl Pts',(129.010387348706,14.693261376271,10.1998796588248));
#1113=CARTESIAN_POINT('Ctrl Pts',(129.010387348706,14.8519747751981,9.98737234987884));
#1114=CARTESIAN_POINT('Ctrl Pts',(129.010387348706,15.2358559767237,9.64433951815986));
#1115=CARTESIAN_POINT('Ctrl Pts',(129.010387348706,15.4548048947231,9.51416439015786));
#1116=CARTESIAN_POINT('Ctrl Pts',(129.010387348706,15.8224301256691,9.38612918339086));
#1117=CARTESIAN_POINT('Ctrl Pts',(129.010387348706,15.9563325540833,9.35541739573186));
#1118=CARTESIAN_POINT('Ctrl Pts',(129.010387348706,16.1614329892553,9.33200912454085));
#1119=CARTESIAN_POINT('Ctrl Pts',(129.010387348706,16.2307157735285,9.32806278200884));
#1120=CARTESIAN_POINT('Ctrl Pts',(129.010387348706,16.2999998835398,9.32806278361985));
#1121=CARTESIAN_POINT('Origin',(125.010387348706,14.3767730747809,11.3280627836198));
#1122=CARTESIAN_POINT('',(125.010387349294,14.3767730747809,11.3280627836198));
#1123=CARTESIAN_POINT('',(125.010387348706,14.3767730747809,11.3280627836198));
#1124=CARTESIAN_POINT('',(129.010387348706,14.3767730747809,11.3280627836198));
#1125=CARTESIAN_POINT('',(125.010387348706,14.3767730747809,11.3280627836198));
#1126=CARTESIAN_POINT('',(129.010387348706,14.3767730747809,11.3057907569709));
#1127=CARTESIAN_POINT('Ctrl Pts',(132.610387348706,23.,9.32806278361985));
#1128=CARTESIAN_POINT('Ctrl Pts',(128.41995587531,13.4225130218349,9.32806278361985));
#1129=CARTESIAN_POINT('Ctrl Pts',(118.358554500949,16.2608532294497,9.32806278361985));
#1130=CARTESIAN_POINT('Ctrl Pts',(108.297153126589,19.0991934370645,9.32806278361985));
#1131=CARTESIAN_POINT('Ctrl Pts',(109.72984103334,29.4546450502003,9.32806278361985));
#1132=CARTESIAN_POINT('Ctrl Pts',(111.162528940091,39.8100966633362,9.32806278361985));
#1133=CARTESIAN_POINT('Ctrl Pts',(121.616617745441,39.8100966633392,9.32806278361985));
#1134=CARTESIAN_POINT('Ctrl Pts',(134.610387348706,23.,9.32806278361985));
#1135=CARTESIAN_POINT('Ctrl Pts',(130.41995587531,11.6801648876111,9.32806278361985));
#1136=CARTESIAN_POINT('Ctrl Pts',(118.632645898761,14.2797237774336,9.32806278361985));
#1137=CARTESIAN_POINT('Ctrl Pts',(106.845335922212,16.8792826672562,9.32806278361985));
#1138=CARTESIAN_POINT('Ctrl Pts',(107.804967127694,28.911634509451,9.32806278361985));
#1139=CARTESIAN_POINT('Ctrl Pts',(108.764598333176,40.9439863516457,9.32806278361985));
#1140=CARTESIAN_POINT('Ctrl Pts',(120.814934968219,41.6423915972147,9.32806278361985));
#1141=CARTESIAN_POINT('Ctrl Pts',(134.610387348706,23.,11.3280627836198));
#1142=CARTESIAN_POINT('Ctrl Pts',(130.41995587531,11.6801648876111,11.3280627836198));
#1143=CARTESIAN_POINT('Ctrl Pts',(118.632645898761,14.2797237774336,11.3280627836198));
#1144=CARTESIAN_POINT('Ctrl Pts',(106.845335922212,16.8792826672562,11.3280627836198));
#1145=CARTESIAN_POINT('Ctrl Pts',(107.804967127694,28.911634509451,11.3280627836198));
#1146=CARTESIAN_POINT('Ctrl Pts',(108.764598333176,40.9439863516457,11.3280627836198));
#1147=CARTESIAN_POINT('Ctrl Pts',(120.814934968219,41.6423915972147,11.3280627836198));
#1148=CARTESIAN_POINT('Ctrl Pts',(134.610387348706,23.,13.3280627836198));
#1149=CARTESIAN_POINT('Ctrl Pts',(130.41995587531,11.6801648876111,13.3280627836198));
#1150=CARTESIAN_POINT('Ctrl Pts',(118.632645898761,14.2797237774336,13.3280627836198));
#1151=CARTESIAN_POINT('Ctrl Pts',(106.845335922212,16.8792826672562,13.3280627836198));
#1152=CARTESIAN_POINT('Ctrl Pts',(107.804967127694,28.911634509451,13.3280627836198));
#1153=CARTESIAN_POINT('Ctrl Pts',(108.764598333176,40.9439863516457,13.3280627836198));
#1154=CARTESIAN_POINT('Ctrl Pts',(120.814934968219,41.6423915972147,13.3280627836198));
#1155=CARTESIAN_POINT('Ctrl Pts',(132.610387348706,23.,13.3280627836198));
#1156=CARTESIAN_POINT('Ctrl Pts',(128.41995587531,13.4225130218349,13.3280627836198));
#1157=CARTESIAN_POINT('Ctrl Pts',(118.358554500949,16.2608532294497,13.3280627836198));
#1158=CARTESIAN_POINT('Ctrl Pts',(108.297153126589,19.0991934370645,13.3280627836198));
#1159=CARTESIAN_POINT('Ctrl Pts',(109.72984103334,29.4546450502003,13.3280627836198));
#1160=CARTESIAN_POINT('Ctrl Pts',(111.162528940091,39.8100966633362,13.3280627836198));
#1161=CARTESIAN_POINT('Ctrl Pts',(121.616617745441,39.8100966633392,13.3280627836198));
#1162=CARTESIAN_POINT('Ctrl Pts',(130.610387348706,23.,13.3280627836198));
#1163=CARTESIAN_POINT('Ctrl Pts',(126.41995587531,15.1648611560588,13.3280627836198));
#1164=CARTESIAN_POINT('Ctrl Pts',(118.084463103137,18.2419826814658,13.3280627836198));
#1165=CARTESIAN_POINT('Ctrl Pts',(109.748970330965,21.3191042068727,13.3280627836198));
#1166=CARTESIAN_POINT('Ctrl Pts',(111.654714938985,29.9976555909497,13.3280627836198));
#1167=CARTESIAN_POINT('Ctrl Pts',(113.560459547006,38.6762069750267,13.3280627836198));
#1168=CARTESIAN_POINT('Ctrl Pts',(122.418300522663,37.9778017294637,13.3280627836198));
#1169=CARTESIAN_POINT('Ctrl Pts',(130.610387348706,23.,11.3280627836198));
#1170=CARTESIAN_POINT('Ctrl Pts',(126.41995587531,15.1648611560588,11.3280627836198));
#1171=CARTESIAN_POINT('Ctrl Pts',(118.084463103137,18.2419826814658,11.3280627836198));
#1172=CARTESIAN_POINT('Ctrl Pts',(109.748970330965,21.3191042068727,11.3280627836198));
#1173=CARTESIAN_POINT('Ctrl Pts',(111.654714938985,29.9976555909497,11.3280627836198));
#1174=CARTESIAN_POINT('Ctrl Pts',(113.560459547006,38.6762069750267,11.3280627836198));
#1175=CARTESIAN_POINT('Ctrl Pts',(122.418300522663,37.9778017294637,11.3280627836198));
#1176=CARTESIAN_POINT('Ctrl Pts',(130.610387348706,23.,9.32806278361985));
#1177=CARTESIAN_POINT('Ctrl Pts',(126.41995587531,15.1648611560588,9.32806278361985));
#1178=CARTESIAN_POINT('Ctrl Pts',(118.084463103137,18.2419826814658,9.32806278361985));
#1179=CARTESIAN_POINT('Ctrl Pts',(109.748970330965,21.3191042068727,9.32806278361985));
#1180=CARTESIAN_POINT('Ctrl Pts',(111.654714938985,29.9976555909497,9.32806278361985));
#1181=CARTESIAN_POINT('Ctrl Pts',(113.560459547006,38.6762069750267,9.32806278361985));
#1182=CARTESIAN_POINT('Ctrl Pts',(122.418300522663,37.9778017294637,9.32806278361985));
#1183=CARTESIAN_POINT('Ctrl Pts',(132.610387348706,23.,9.32806278361985));
#1184=CARTESIAN_POINT('Ctrl Pts',(128.41995587531,13.4225130218349,9.32806278361985));
#1185=CARTESIAN_POINT('Ctrl Pts',(118.358554500949,16.2608532294497,9.32806278361985));
#1186=CARTESIAN_POINT('Ctrl Pts',(108.297153126589,19.0991934370645,9.32806278361985));
#1187=CARTESIAN_POINT('Ctrl Pts',(109.72984103334,29.4546450502003,9.32806278361985));
#1188=CARTESIAN_POINT('Ctrl Pts',(111.162528940091,39.8100966633362,9.32806278361985));
#1189=CARTESIAN_POINT('Ctrl Pts',(121.616617745441,39.8100966633392,9.32806278361985));
#1190=CARTESIAN_POINT('',(129.010387348706,18.1919117744121,13.3229032156359));
#1191=CARTESIAN_POINT('Ctrl Pts',(129.010387348706,17.2332321129337,9.58531569153545));
#1192=CARTESIAN_POINT('Ctrl Pts',(129.010387348706,17.0383777327665,9.68221758288821));
#1193=CARTESIAN_POINT('Ctrl Pts',(129.010387348706,16.8580942930815,9.80603605925049));
#1194=CARTESIAN_POINT('Ctrl Pts',(129.010387348706,16.5473609600779,10.0999187427319));
#1195=CARTESIAN_POINT('Ctrl Pts',(129.010387348735,16.4175267367143,10.266453104998));
#1196=CARTESIAN_POINT('Ctrl Pts',(129.010387348735,16.2003303780551,10.6664348859586));
#1197=CARTESIAN_POINT('Ctrl Pts',(129.010387348706,16.1264372857904,10.901351393684));
#1198=CARTESIAN_POINT('Ctrl Pts',(129.010387348706,16.0785382870802,11.3710332094753));
#1199=CARTESIAN_POINT('Ctrl Pts',(129.010387347506,16.0984049426158,11.5985129418776));
#1200=CARTESIAN_POINT('Ctrl Pts',(129.010387347506,16.2275955610802,12.0596998521882));
#1201=CARTESIAN_POINT('Ctrl Pts',(129.010387348409,16.3442166706802,12.2845440529389));
#1202=CARTESIAN_POINT('Ctrl Pts',(129.010387348409,16.6648389808683,12.6908968655705));
#1203=CARTESIAN_POINT('Ctrl Pts',(129.010387349119,16.8691223959184,12.8643489072592));
#1204=CARTESIAN_POINT('Ctrl Pts',(129.010387349119,17.2677194712176,13.0968147450861));
#1205=CARTESIAN_POINT('Ctrl Pts',(129.010387348706,17.4485610477307,13.1730705949678));
#1206=CARTESIAN_POINT('Ctrl Pts',(129.010387348706,17.8172347216152,13.2795937086806));
#1207=CARTESIAN_POINT('Ctrl Pts',(129.010387348706,18.0038499979628,13.3112146690255));
#1208=CARTESIAN_POINT('Ctrl Pts',(129.010387348706,18.1919117744121,13.3229032156365));
#1209=CARTESIAN_POINT('',(125.010387329801,18.191911781086,11.3503346689404));
#1210=CARTESIAN_POINT('Ctrl Pts',(129.010387348706,18.1919117744121,13.3229032156365));
#1211=CARTESIAN_POINT('Ctrl Pts',(128.390774371484,18.1919117744121,13.3525074119978));
#1212=CARTESIAN_POINT('Ctrl Pts',(127.751450579056,18.1919117744121,13.2528975921279));
#1213=CARTESIAN_POINT('Ctrl Pts',(126.942954587477,18.1919117744121,12.9982233357925));
#1214=CARTESIAN_POINT('Ctrl Pts',(126.727569090147,18.1919117744222,12.9165893534221));
#1215=CARTESIAN_POINT('Ctrl Pts',(126.094049581729,18.1919117744222,12.6309453772437));
#1216=CARTESIAN_POINT('Ctrl Pts',(125.713572325736,18.1919117744121,12.3941340839979));
#1217=CARTESIAN_POINT('Ctrl Pts',(125.32080965131,18.1919117744121,12.0249081820553));
#1218=CARTESIAN_POINT('Ctrl Pts',(125.205310456342,18.1919117744121,11.8916862667653));
#1219=CARTESIAN_POINT('Ctrl Pts',(125.089881451254,18.1919117744121,11.6812182245831));
#1220=CARTESIAN_POINT('Ctrl Pts',(125.0612649109,18.1919117744121,11.614764793107));
#1221=CARTESIAN_POINT('Ctrl Pts',(125.02300155591,18.1919117744121,11.4816537231924));
#1222=CARTESIAN_POINT('Ctrl Pts',(125.012344095419,18.1919117744121,11.4166368582459));
#1223=CARTESIAN_POINT('Ctrl Pts',(125.010387292004,18.1919117744121,11.3503346700559));
#1224=CARTESIAN_POINT('Ctrl Pts',(125.010387348706,16.2999998835399,9.32806278361985));
#1225=CARTESIAN_POINT('Ctrl Pts',(125.010387348706,16.3636838971783,9.32806278361985));
#1226=CARTESIAN_POINT('Ctrl Pts',(125.010387348706,16.4273034616555,9.33139624787177));
#1227=CARTESIAN_POINT('Ctrl Pts',(125.010387348706,16.5561888573446,9.34496332556638));
#1228=CARTESIAN_POINT('Ctrl Pts',(125.010387348589,16.6213030759362,9.35542135722896));
#1229=CARTESIAN_POINT('Ctrl Pts',(125.010387348589,16.8205589834714,9.39865175085218));
#1230=CARTESIAN_POINT('Ctrl Pts',(125.010387348706,16.9514953484487,9.44313569307457));
#1231=CARTESIAN_POINT('Ctrl Pts',(125.010387348706,17.2996835734498,9.60714298135709));
#1232=CARTESIAN_POINT('Ctrl Pts',(125.010387347699,17.4989908555656,9.75600611943355));
#1233=CARTESIAN_POINT('Ctrl Pts',(125.010387347699,17.8346586516111,10.125077750638));
#1234=CARTESIAN_POINT('Ctrl Pts',(125.010387348706,17.9662452545984,10.3426998741165));
#1235=CARTESIAN_POINT('Ctrl Pts',(125.010387348706,18.1487709424125,10.824481871514));
#1236=CARTESIAN_POINT('Ctrl Pts',(125.010387348706,18.1946534592479,11.0870619768919));
#1237=CARTESIAN_POINT('Ctrl Pts',(125.010387348706,18.1919117944294,11.3503346690793));
#1238=CARTESIAN_POINT('',(132.610387348706,23.,9.32806278361985));
#1239=CARTESIAN_POINT('Origin',(121.616617745444,27.8100966633313,9.32806278361985));
#1240=CARTESIAN_POINT('Origin',(132.610387348706,23.,11.3280627836198));
#1241=CARTESIAN_POINT('Origin',(125.010387348706,14.1919117744121,15.3280627836198));
#1242=CARTESIAN_POINT('',(129.010387348706,14.1919117744121,19.3280627836199));
#1243=CARTESIAN_POINT('',(129.010387348706,18.1919117744121,15.3280627836198));
#1244=CARTESIAN_POINT('Origin',(129.010387348706,14.1919117744121,15.3280627836198));
#1245=CARTESIAN_POINT('',(125.010387348706,14.1919117744121,19.3280627836199));
#1246=CARTESIAN_POINT('',(125.010387348706,14.1919117744121,19.3280627836199));
#1247=CARTESIAN_POINT('',(125.010387348706,18.1919117744121,15.3280627836198));
#1248=CARTESIAN_POINT('Origin',(125.010387348706,14.1919117744121,15.3280627836198));
#1249=CARTESIAN_POINT('',(125.010387348706,18.1919117744121,15.3280627836198));
#1250=CARTESIAN_POINT('Origin',(129.010387348706,3.,11.3280627836198));
#1251=CARTESIAN_POINT('',(129.010387348706,18.1919117744121,11.3057907569709));
#1252=CARTESIAN_POINT('',(129.010387348706,10.3767730747809,15.3280627836198));
#1253=CARTESIAN_POINT('Origin',(129.010387348706,10.3767730747809,11.3280627836198));
#1254=CARTESIAN_POINT('',(129.010387348706,-8.,15.3280627836198));
#1255=CARTESIAN_POINT('',(129.010387348706,10.3767730747809,15.3280627836198));
#1256=CARTESIAN_POINT('',(129.010387348706,-12.,11.3280627836198));
#1257=CARTESIAN_POINT('Origin',(129.010387348706,-7.99999999999999,11.3280627836198));
#1258=CARTESIAN_POINT('',(129.010387348706,-12.,8.68419949095685));
#1259=CARTESIAN_POINT('',(129.010387348706,-12.,11.3280627836198));
#1260=CARTESIAN_POINT('',(129.010387348706,-16.,8.68419949095685));
#1261=CARTESIAN_POINT('',(129.010387348706,-12.,8.68419949095685));
#1262=CARTESIAN_POINT('',(129.010387348706,-16.,19.3280627836199));
#1263=CARTESIAN_POINT('',(129.010387348706,-16.,3.32806278361986));
#1264=CARTESIAN_POINT('',(129.010387348706,-16.,19.3280627836199));
#1265=CARTESIAN_POINT('Origin',(125.010387348706,18.1919117744121,11.3503346668779));
#1266=CARTESIAN_POINT('',(125.010387348706,18.1919117744121,7.33919872524885));
#1267=CARTESIAN_POINT('Origin',(125.010387348706,-8.,15.3280627836198));
#1268=CARTESIAN_POINT('',(125.010387348706,10.3,15.3280627836198));
#1269=CARTESIAN_POINT('',(125.010387348706,10.3767730747809,15.3280627836198));
#1270=CARTESIAN_POINT('',(125.010387348706,-11.5,15.3280627836198));
#1271=CARTESIAN_POINT('',(125.010387348706,-8.,15.3280627836198));
#1272=CARTESIAN_POINT('',(125.010387348706,-11.5,15.3280627836198));
#1273=CARTESIAN_POINT('',(125.010387348706,-8.,15.3280627836198));
#1274=CARTESIAN_POINT('',(125.010387348706,10.3767730747809,15.3280627836198));
#1275=CARTESIAN_POINT('Origin',(125.010387348706,-7.99999999999999,11.3280627836198));
#1276=CARTESIAN_POINT('',(125.010387348706,-12.,11.3280627836198));
#1277=CARTESIAN_POINT('Origin',(125.010387348706,-7.99999999999999,11.3280627836198));
#1278=CARTESIAN_POINT('',(125.010387348706,-12.,11.3280627836198));
#1279=CARTESIAN_POINT('Origin',(125.010387348706,-12.,8.68419949095685));
#1280=CARTESIAN_POINT('',(125.010387348706,-12.,8.68419949095685));
#1281=CARTESIAN_POINT('',(125.010387348706,-12.,6.00613113728784));
#1282=CARTESIAN_POINT('',(125.010387348706,-12.,8.68419949095685));
#1283=CARTESIAN_POINT('Origin',(125.010387348706,-16.,8.68419949095685));
#1284=CARTESIAN_POINT('',(125.010387348706,-16.,8.68419949095685));
#1285=CARTESIAN_POINT('',(125.010387348706,-15.5,8.68419949095685));
#1286=CARTESIAN_POINT('',(125.010387348706,-16.,8.68419949095685));
#1287=CARTESIAN_POINT('Origin',(125.010387348706,10.3767730747809,11.3280627836198));
#1288=CARTESIAN_POINT('Origin',(125.010387348706,10.3767730747809,11.3280627836198));
#1289=CARTESIAN_POINT('Origin',(125.010387348706,-15.,3.32806278361986));
#1290=CARTESIAN_POINT('Origin',(125.010387348706,10.3,11.3280627836198));
#1291=CARTESIAN_POINT('',(125.010387348706,22.,19.3280627836199));
#1292=CARTESIAN_POINT('',(125.010387348706,-15.,19.3280627836199));
#1293=CARTESIAN_POINT('',(125.010387348706,22.,3.32806278361986));
#1294=CARTESIAN_POINT('',(125.010387348706,22.,7.32806278361986));
#1295=CARTESIAN_POINT('',(125.010387348706,-16.,3.32806278361986));
#1296=CARTESIAN_POINT('',(125.010387348706,-15.,3.32806278361986));
#1297=CARTESIAN_POINT('',(125.010387348706,-16.,7.32806278361986));
#1298=CARTESIAN_POINT('Origin',(131.010387348706,16.,11.3280627836198));
#1299=CARTESIAN_POINT('',(136.347094846901,16.,22.3280627836198));
#1300=CARTESIAN_POINT('',(136.347094846901,16.,0.328062783619867));
#1301=CARTESIAN_POINT('Origin',(152.810387348706,16.,11.3280627836198));
#1302=CARTESIAN_POINT('',(133.989122779076,16.,22.3280627836198));
#1303=CARTESIAN_POINT('',(123.510387348706,16.,22.3280627836198));
#1304=CARTESIAN_POINT('',(133.989122779076,16.,0.328062783619867));
#1305=CARTESIAN_POINT('Origin',(152.810387348706,16.,11.3280627836198));
#1306=CARTESIAN_POINT('',(134.913245074892,16.,0.328062783619867));
#1307=CARTESIAN_POINT('Origin',(152.810387348706,15.5,11.3280627836198));
#1308=CARTESIAN_POINT('',(133.989122779076,4.,22.3280627836198));
#1309=CARTESIAN_POINT('',(133.989122779076,15.5,22.3280627836198));
#1310=CARTESIAN_POINT('',(133.989122779076,4.,0.328062783619867));
#1311=CARTESIAN_POINT('Origin',(152.810387348706,4.,11.3280627836198));
#1312=CARTESIAN_POINT('',(133.989122779076,10.,0.328062783619867));
#1313=CARTESIAN_POINT('Origin',(133.010387348706,4.,11.3280627836198));
#1314=CARTESIAN_POINT('',(136.347094846901,4.,22.3280627836198));
#1315=CARTESIAN_POINT('',(124.510387348706,4.,22.3280627836198));
#1316=CARTESIAN_POINT('',(136.347094846901,4.,0.328062783619867));
#1317=CARTESIAN_POINT('Origin',(152.810387348706,4.,11.3280627836198));
#1318=CARTESIAN_POINT('',(135.913245074892,4.,0.328062783619867));
#1319=CARTESIAN_POINT('Origin',(138.816102801077,-15.,0.328062783619867));
#1320=CARTESIAN_POINT('',(114.010387348706,23.,0.328062783619867));
#1321=CARTESIAN_POINT('',(136.890588355,23.,0.328062783619867));
#1322=CARTESIAN_POINT('',(132.383295326465,23.,0.328062783619867));
#1323=CARTESIAN_POINT('',(136.890588355,-17.,0.328062783619867));
#1324=CARTESIAN_POINT('',(136.890588355,-15.,0.328062783619867));
#1325=CARTESIAN_POINT('',(114.010387348706,-17.,0.328062783619867));
#1326=CARTESIAN_POINT('',(132.383295326465,-17.,0.328062783619867));
#1327=CARTESIAN_POINT('',(114.010387348706,25.,0.328062783619867));
#1328=CARTESIAN_POINT('',(133.989122779076,-3.,0.328062783619867));
#1329=CARTESIAN_POINT('',(136.347094846901,-3.,0.328062783619867));
#1330=CARTESIAN_POINT('',(134.913245074892,-3.,0.328062783619867));
#1331=CARTESIAN_POINT('',(133.989122779076,-15.,0.328062783619867));
#1332=CARTESIAN_POINT('',(133.989122779076,-5.5,0.328062783619867));
#1333=CARTESIAN_POINT('',(136.347094846901,-15.,0.328062783619867));
#1334=CARTESIAN_POINT('',(135.913245074892,-15.,0.328062783619867));
#1335=CARTESIAN_POINT('',(136.347094846901,-5.5,0.328062783619867));
#1336=CARTESIAN_POINT('',(136.347094846901,15.5,0.328062783619867));
#1337=CARTESIAN_POINT('Origin',(131.010387348706,-3.,11.3280627836198));
#1338=CARTESIAN_POINT('',(136.347094846901,-3.,22.3280627836198));
#1339=CARTESIAN_POINT('Origin',(152.810387348706,-3.,11.3280627836198));
#1340=CARTESIAN_POINT('',(133.989122779076,-3.,22.3280627836198));
#1341=CARTESIAN_POINT('',(123.510387348706,-3.,22.3280627836198));
#1342=CARTESIAN_POINT('Origin',(152.810387348706,-3.,11.3280627836198));
#1343=CARTESIAN_POINT('Origin',(152.810387348706,-5.5,11.3280627836198));
#1344=CARTESIAN_POINT('',(133.989122779076,-15.,22.3280627836198));
#1345=CARTESIAN_POINT('',(133.989122779076,-5.5,22.3280627836198));
#1346=CARTESIAN_POINT('Origin',(152.810387348706,-15.,11.3280627836198));
#1347=CARTESIAN_POINT('Origin',(133.010387348706,-15.,11.3280627836198));
#1348=CARTESIAN_POINT('',(136.347094846901,-15.,22.3280627836198));
#1349=CARTESIAN_POINT('Origin',(152.810387348706,-15.,11.3280627836198));
#1350=CARTESIAN_POINT('',(124.510387348706,-15.,22.3280627836198));
#1351=CARTESIAN_POINT('Origin',(116.010387348706,-15.,22.3280627836198));
#1352=CARTESIAN_POINT('',(136.890588355,23.,22.3280627836198));
#1353=CARTESIAN_POINT('',(114.010387348706,23.,22.3280627836198));
#1354=CARTESIAN_POINT('',(120.980437600279,23.,22.3280627836198));
#1355=CARTESIAN_POINT('',(114.010387348706,-17.,22.3280627836198));
#1356=CARTESIAN_POINT('',(114.010387348706,-15.,22.3280627836198));
#1357=CARTESIAN_POINT('',(136.890588355,-17.,22.3280627836198));
#1358=CARTESIAN_POINT('',(120.980437600279,-17.,22.3280627836198));
#1359=CARTESIAN_POINT('',(136.890588355,-15.,22.3280627836198));
#1360=CARTESIAN_POINT('',(136.347094846901,15.5,22.3280627836198));
#1361=CARTESIAN_POINT('',(118.010387348706,20.3,22.3280627836198));
#1362=CARTESIAN_POINT('Origin',(118.010387348706,17.,22.3280627836198));
#1363=CARTESIAN_POINT('',(136.347094846901,-5.5,22.3280627836198));
#1364=CARTESIAN_POINT('Origin',(125.950487851853,23.,11.3280627836198));
#1365=CARTESIAN_POINT('',(114.010387348706,23.,5.82806278361986));
#1366=CARTESIAN_POINT('',(137.737386173814,23.,20.7961478900028));
#1367=CARTESIAN_POINT('Origin',(136.890588355,23.,21.3280627836198));
#1368=CARTESIAN_POINT('',(137.737386173814,23.,1.85997767723686));
#1369=CARTESIAN_POINT('Origin',(152.810387348706,23.,11.3280627836198));
#1370=CARTESIAN_POINT('Origin',(136.890588355,23.,1.32806278361986));
#1371=CARTESIAN_POINT('Origin',(136.890588355,-15.,21.3280627836198));
#1372=CARTESIAN_POINT('',(137.737386173814,-17.,20.7961478900028));
#1373=CARTESIAN_POINT('Origin',(136.890588355,-17.,21.3280627836198));
#1374=CARTESIAN_POINT('',(137.737386173814,-15.,20.7961478900028));
#1375=CARTESIAN_POINT('Origin',(114.010387348706,-15.,0.328062783619867));
#1376=CARTESIAN_POINT('',(114.010387348706,-17.,5.82806278361986));
#1377=CARTESIAN_POINT('',(114.010387348706,22.,19.3280627836199));
#1378=CARTESIAN_POINT('',(114.010387348706,22.,3.32806278361986));
#1379=CARTESIAN_POINT('',(114.010387348706,22.,19.3280627836199));
#1380=CARTESIAN_POINT('',(114.010387348706,-16.,19.3280627836199));
#1381=CARTESIAN_POINT('',(114.010387348706,-15.,19.3280627836199));
#1382=CARTESIAN_POINT('',(114.010387348706,-16.,3.32806278361986));
#1383=CARTESIAN_POINT('',(114.010387348706,-16.,22.3280627836198));
#1384=CARTESIAN_POINT('',(114.010387348706,-14.5,3.32806278361986));
#1385=CARTESIAN_POINT('Origin',(125.950487851853,22.,11.3280627836198));
#1386=CARTESIAN_POINT('',(120.980437600279,22.,3.32806278361986));
#1387=CARTESIAN_POINT('',(125.480437600279,22.,19.3280627836199));
#1388=CARTESIAN_POINT('Origin',(125.010387348706,-15.,19.3280627836199));
#1389=CARTESIAN_POINT('',(125.480437600279,-16.,19.3280627836199));
#1390=CARTESIAN_POINT('',(118.010387348706,20.3,19.3280627836199));
#1391=CARTESIAN_POINT('Origin',(118.010387348706,17.,19.3280627836199));
#1392=CARTESIAN_POINT('Origin',(125.950487851853,-17.,11.3280627836198));
#1393=CARTESIAN_POINT('',(137.737386173814,-17.,1.85997767723686));
#1394=CARTESIAN_POINT('Origin',(136.890588355,-17.,1.32806278361986));
#1395=CARTESIAN_POINT('Origin',(152.810387348706,-17.,11.3280627836198));
#1396=CARTESIAN_POINT('Origin',(125.950487851853,-16.,11.3280627836198));
#1397=CARTESIAN_POINT('',(120.980437600279,-16.,3.32806278361986));
#1398=CARTESIAN_POINT('Origin',(152.810387348706,15.5,11.3280627836198));
#1399=CARTESIAN_POINT('Origin',(152.810387348706,-5.5,11.3280627836198));
#1400=CARTESIAN_POINT('Origin',(124.010387348706,10.3,11.3280627836198));
#1401=CARTESIAN_POINT('',(124.010387348706,10.3,14.3280627836199));
#1402=CARTESIAN_POINT('Origin',(124.010387348706,10.3,15.3280627836199));
#1403=CARTESIAN_POINT('Origin',(124.010387348706,10.3,11.3280627836198));
#1404=CARTESIAN_POINT('Origin',(128.510387348706,-15.,3.32806278361986));
#1405=CARTESIAN_POINT('',(128.510387348706,10.3,12.7280627836199));
#1406=CARTESIAN_POINT('Origin',(128.510387348706,10.3,11.3280627836198));
#1407=CARTESIAN_POINT('Origin',(125.010387348706,10.3,11.3280627836198));
#1408=CARTESIAN_POINT('',(124.010387348706,10.3,12.7280627836199));
#1409=CARTESIAN_POINT('',(125.010387348706,10.3,12.7280627836199));
#1410=CARTESIAN_POINT('Origin',(124.010387348706,10.3,11.3280627836198));
#1411=CARTESIAN_POINT('Origin',(124.010387348706,5.,11.3280627836198));
#1412=CARTESIAN_POINT('Origin',(152.810387348706,-15.,11.3280627836198));
#1413=CARTESIAN_POINT('',(137.737386173814,-15.,1.85997767723686));
#1414=CARTESIAN_POINT('Origin',(136.890588355,-15.,1.32806278361986));
#1415=CARTESIAN_POINT('Origin',(118.010387348706,17.,22.3280627836198));
#1416=CARTESIAN_POINT('',(118.010387348706,20.3,22.3280627836198));
#1417=CARTESIAN_POINT('Origin',(116.010387348706,-15.,3.32806278361986));
#1418=UNCERTAINTY_MEASURE_WITH_UNIT(LENGTH_MEASURE(0.01),#1422,
'DISTANCE_ACCURACY_VALUE',
'Maximum model space distance between geometric entities at asserted c
onnectivities');
#1419=UNCERTAINTY_MEASURE_WITH_UNIT(LENGTH_MEASURE(0.01),#1422,
'DISTANCE_ACCURACY_VALUE',
'Maximum model space distance between geometric entities at asserted c
onnectivities');
#1420=(
GEOMETRIC_REPRESENTATION_CONTEXT(3)
GLOBAL_UNCERTAINTY_ASSIGNED_CONTEXT((#1418))
GLOBAL_UNIT_ASSIGNED_CONTEXT((#1422,#1424,#1425))
REPRESENTATION_CONTEXT('','3D')
);
#1421=(
GEOMETRIC_REPRESENTATION_CONTEXT(3)
GLOBAL_UNCERTAINTY_ASSIGNED_CONTEXT((#1419))
GLOBAL_UNIT_ASSIGNED_CONTEXT((#1422,#1424,#1425))
REPRESENTATION_CONTEXT('','3D')
);
#1422=(
LENGTH_UNIT()
NAMED_UNIT(*)
SI_UNIT(.MILLI.,.METRE.)
);
#1423=(
LENGTH_UNIT()
NAMED_UNIT(*)
SI_UNIT($,.METRE.)
);
#1424=(
NAMED_UNIT(*)
PLANE_ANGLE_UNIT()
SI_UNIT($,.RADIAN.)
);
#1425=(
NAMED_UNIT(*)
SI_UNIT($,.STERADIAN.)
SOLID_ANGLE_UNIT()
);
#1426=SHAPE_DEFINITION_REPRESENTATION(#1427,#1428);
#1427=PRODUCT_DEFINITION_SHAPE('',$,#1430);
#1428=SHAPE_REPRESENTATION('',(#733),#1420);
#1429=PRODUCT_DEFINITION_CONTEXT('part definition',#1434,'design');
#1430=PRODUCT_DEFINITION('bike trip computer','(Unsaved)',#1431,#1429);
#1431=PRODUCT_DEFINITION_FORMATION('',$,#1436);
#1432=PRODUCT_RELATED_PRODUCT_CATEGORY('(Unsaved)','(Unsaved)',(#1436));
#1433=APPLICATION_PROTOCOL_DEFINITION('international standard',
'automotive_design',2009,#1434);
#1434=APPLICATION_CONTEXT(
'Core Data for Automotive Mechanical Design Process');
#1435=PRODUCT_CONTEXT('part definition',#1434,'mechanical');
#1436=PRODUCT('bike trip computer','(Unsaved)',$,(#1435));
#1437=PRESENTATION_STYLE_ASSIGNMENT((#1439));
#1438=PRESENTATION_STYLE_ASSIGNMENT((#1440));
#1439=SURFACE_STYLE_USAGE(.BOTH.,#1441);
#1440=SURFACE_STYLE_USAGE(.BOTH.,#1442);
#1441=SURFACE_SIDE_STYLE('',(#1443));
#1442=SURFACE_SIDE_STYLE('',(#1444));
#1443=SURFACE_STYLE_FILL_AREA(#1445);
#1444=SURFACE_STYLE_FILL_AREA(#1446);
#1445=FILL_AREA_STYLE('Steel - Satin',(#1447));
#1446=FILL_AREA_STYLE('Opaque(160,160,160)',(#1448));
#1447=FILL_AREA_STYLE_COLOUR('Steel - Satin',#1449);
#1448=FILL_AREA_STYLE_COLOUR('Opaque(160,160,160)',#1450);
#1449=COLOUR_RGB('Steel - Satin',0.627450980392157,0.627450980392157,0.627450980392157);
#1450=COLOUR_RGB('Opaque(160,160,160)',0.627450980392157,0.627450980392157,
0.627450980392157);
ENDSEC;
END-ISO-10303-21;
