ISO-10303-21;
HEADER;
/* Generated by software containing ST-Developer
 * from STEP Tools, Inc. (www.steptools.com) 
 */

FILE_DESCRIPTION(
/* description */ (''),
/* implementation_level */ '2;1');

FILE_NAME(
/* name */ 'magnet holder1.step',
/* time_stamp */ '2026-09-22T16:46:07+03:00',
/* author */ (''),
/* organization */ (''),
/* preprocessor_version */ 'ST-DEVELOPER v20.2',
/* originating_system */ 'Autodesk Translation Framework v15.15.0.0',
/* authorisation */ '');

FILE_SCHEMA (('AUTOMOTIVE_DESIGN { 1 0 10303 214 3 1 1 }'));
ENDSEC;

DATA;
#10=MECHANICAL_DESIGN_GEOMETRIC_PRESENTATION_REPRESENTATION('',(#13),#324);
#11=SHAPE_REPRESENTATION_RELATIONSHIP('SRR','None',#331,#12);
#12=ADVANCED_BREP_SHAPE_REPRESENTATION('',(#14),#323);
#13=STYLED_ITEM('',(#341),#14);
#14=MANIFOLD_SOLID_BREP('Body2',#164);
#15=B_SPLINE_CURVE_WITH_KNOTS('',3,(#260,#261,#262,#263,#264,#265,#266,
#267,#268,#269,#270,#271,#272,#273,#274,#275,#276,#277),.UNSPECIFIED.,.F.,
 .F.,(4,2,2,2,2,2,2,2,4),(-0.317204837186998,-0.279718490953433,-0.242232144719867,
-0.202241967942349,-0.16225179116483,-0.119083639644551,-0.0759154881242727,
-0.0379577440621363,0.),.UNSPECIFIED.);
#16=B_SPLINE_CURVE_WITH_KNOTS('',3,(#281,#282,#283,#284,#285,#286,#287,
#288,#289,#290,#291,#292,#293,#294,#295,#296,#297,#298),.UNSPECIFIED.,.F.,
 .F.,(4,2,2,2,2,2,2,2,4),(-0.634409674373997,-0.596451930311861,-0.558494186249724,
-0.515326034729446,-0.472157883209167,-0.432167706431648,-0.392177529654129,
-0.354691183420564,-0.317204837186998),.UNSPECIFIED.);
#17=CYLINDRICAL_SURFACE('',#182,5.);
#18=CYLINDRICAL_SURFACE('',#187,1.);
#19=CYLINDRICAL_SURFACE('',#188,5.);
#20=CYLINDRICAL_SURFACE('',#190,1.8);
#21=FACE_BOUND('',#33,.T.);
#22=FACE_BOUND('',#41,.T.);
#23=FACE_OUTER_BOUND('',#32,.T.);
#24=FACE_OUTER_BOUND('',#34,.T.);
#25=FACE_OUTER_BOUND('',#35,.T.);
#26=FACE_OUTER_BOUND('',#36,.T.);
#27=FACE_OUTER_BOUND('',#37,.T.);
#28=FACE_OUTER_BOUND('',#38,.T.);
#29=FACE_OUTER_BOUND('',#39,.T.);
#30=FACE_OUTER_BOUND('',#40,.T.);
#31=FACE_OUTER_BOUND('',#42,.T.);
#32=EDGE_LOOP('',(#108,#109,#110,#111));
#33=EDGE_LOOP('',(#112));
#34=EDGE_LOOP('',(#113,#114,#115,#116,#117,#118,#119,#120));
#35=EDGE_LOOP('',(#121,#122));
#36=EDGE_LOOP('',(#123,#124,#125,#126));
#37=EDGE_LOOP('',(#127,#128,#129,#130));
#38=EDGE_LOOP('',(#131,#132,#133,#134));
#39=EDGE_LOOP('',(#135,#136,#137,#138));
#40=EDGE_LOOP('',(#139,#140,#141,#142,#143,#144));
#41=EDGE_LOOP('',(#145));
#42=EDGE_LOOP('',(#146,#147,#148,#149));
#43=LINE('',#248,#54);
#44=LINE('',#251,#55);
#45=LINE('',#256,#56);
#46=LINE('',#301,#57);
#47=LINE('',#303,#58);
#48=LINE('',#305,#59);
#49=LINE('',#308,#60);
#50=LINE('',#311,#61);
#51=LINE('',#314,#62);
#52=LINE('',#317,#63);
#53=LINE('',#319,#64);
#54=VECTOR('',#201,10.);
#55=VECTOR('',#204,10.);
#56=VECTOR('',#209,10.);
#57=VECTOR('',#216,10.);
#58=VECTOR('',#219,10.);
#59=VECTOR('',#222,10.);
#60=VECTOR('',#225,10.);
#61=VECTOR('',#228,10.);
#62=VECTOR('',#231,1.8);
#63=VECTOR('',#236,10.);
#64=VECTOR('',#239,10.);
#65=CIRCLE('',#179,5.);
#66=CIRCLE('',#180,5.);
#67=CIRCLE('',#181,1.8);
#68=CIRCLE('',#183,5.);
#69=CIRCLE('',#184,5.);
#70=CIRCLE('',#185,5.);
#71=CIRCLE('',#189,5.);
#72=CIRCLE('',#191,1.8);
#73=VERTEX_POINT('',#244);
#74=VERTEX_POINT('',#245);
#75=VERTEX_POINT('',#247);
#76=VERTEX_POINT('',#249);
#77=VERTEX_POINT('',#252);
#78=VERTEX_POINT('',#255);
#79=VERTEX_POINT('',#257);
#80=VERTEX_POINT('',#259);
#81=VERTEX_POINT('',#278);
#82=VERTEX_POINT('',#280);
#83=VERTEX_POINT('',#299);
#84=VERTEX_POINT('',#307);
#85=VERTEX_POINT('',#309);
#86=VERTEX_POINT('',#313);
#87=EDGE_CURVE('',#73,#74,#65,.T.);
#88=EDGE_CURVE('',#74,#75,#43,.T.);
#89=EDGE_CURVE('',#75,#76,#66,.T.);
#90=EDGE_CURVE('',#76,#73,#44,.T.);
#91=EDGE_CURVE('',#77,#77,#67,.T.);
#92=EDGE_CURVE('',#73,#78,#45,.T.);
#93=EDGE_CURVE('',#78,#79,#68,.T.);
#94=EDGE_CURVE('',#79,#80,#15,.T.);
#95=EDGE_CURVE('',#80,#81,#69,.T.);
#96=EDGE_CURVE('',#81,#82,#16,.T.);
#97=EDGE_CURVE('',#82,#83,#70,.T.);
#98=EDGE_CURVE('',#83,#74,#46,.T.);
#99=EDGE_CURVE('',#80,#81,#47,.T.);
#100=EDGE_CURVE('',#79,#82,#48,.T.);
#101=EDGE_CURVE('',#84,#75,#49,.T.);
#102=EDGE_CURVE('',#85,#84,#71,.T.);
#103=EDGE_CURVE('',#85,#76,#50,.T.);
#104=EDGE_CURVE('',#77,#86,#51,.T.);
#105=EDGE_CURVE('',#86,#86,#72,.T.);
#106=EDGE_CURVE('',#83,#84,#52,.T.);
#107=EDGE_CURVE('',#85,#78,#53,.T.);
#108=ORIENTED_EDGE('',*,*,#87,.T.);
#109=ORIENTED_EDGE('',*,*,#88,.T.);
#110=ORIENTED_EDGE('',*,*,#89,.T.);
#111=ORIENTED_EDGE('',*,*,#90,.T.);
#112=ORIENTED_EDGE('',*,*,#91,.T.);
#113=ORIENTED_EDGE('',*,*,#92,.T.);
#114=ORIENTED_EDGE('',*,*,#93,.T.);
#115=ORIENTED_EDGE('',*,*,#94,.T.);
#116=ORIENTED_EDGE('',*,*,#95,.T.);
#117=ORIENTED_EDGE('',*,*,#96,.T.);
#118=ORIENTED_EDGE('',*,*,#97,.T.);
#119=ORIENTED_EDGE('',*,*,#98,.T.);
#120=ORIENTED_EDGE('',*,*,#87,.F.);
#121=ORIENTED_EDGE('',*,*,#95,.F.);
#122=ORIENTED_EDGE('',*,*,#99,.T.);
#123=ORIENTED_EDGE('',*,*,#94,.F.);
#124=ORIENTED_EDGE('',*,*,#100,.T.);
#125=ORIENTED_EDGE('',*,*,#96,.F.);
#126=ORIENTED_EDGE('',*,*,#99,.F.);
#127=ORIENTED_EDGE('',*,*,#101,.F.);
#128=ORIENTED_EDGE('',*,*,#102,.F.);
#129=ORIENTED_EDGE('',*,*,#103,.T.);
#130=ORIENTED_EDGE('',*,*,#89,.F.);
#131=ORIENTED_EDGE('',*,*,#91,.F.);
#132=ORIENTED_EDGE('',*,*,#104,.T.);
#133=ORIENTED_EDGE('',*,*,#105,.F.);
#134=ORIENTED_EDGE('',*,*,#104,.F.);
#135=ORIENTED_EDGE('',*,*,#98,.F.);
#136=ORIENTED_EDGE('',*,*,#106,.T.);
#137=ORIENTED_EDGE('',*,*,#101,.T.);
#138=ORIENTED_EDGE('',*,*,#88,.F.);
#139=ORIENTED_EDGE('',*,*,#93,.F.);
#140=ORIENTED_EDGE('',*,*,#107,.F.);
#141=ORIENTED_EDGE('',*,*,#102,.T.);
#142=ORIENTED_EDGE('',*,*,#106,.F.);
#143=ORIENTED_EDGE('',*,*,#97,.F.);
#144=ORIENTED_EDGE('',*,*,#100,.F.);
#145=ORIENTED_EDGE('',*,*,#105,.T.);
#146=ORIENTED_EDGE('',*,*,#92,.F.);
#147=ORIENTED_EDGE('',*,*,#90,.F.);
#148=ORIENTED_EDGE('',*,*,#103,.F.);
#149=ORIENTED_EDGE('',*,*,#107,.T.);
#150=PLANE('',#178);
#151=PLANE('',#186);
#152=PLANE('',#192);
#153=PLANE('',#193);
#154=PLANE('',#194);
#155=ADVANCED_FACE('',(#23,#21),#150,.T.);
#156=ADVANCED_FACE('',(#24),#17,.T.);
#157=ADVANCED_FACE('',(#25),#151,.T.);
#158=ADVANCED_FACE('',(#26),#18,.F.);
#159=ADVANCED_FACE('',(#27),#19,.T.);
#160=ADVANCED_FACE('',(#28),#20,.F.);
#161=ADVANCED_FACE('',(#29),#152,.T.);
#162=ADVANCED_FACE('',(#30,#22),#153,.T.);
#163=ADVANCED_FACE('',(#31),#154,.F.);
#164=CLOSED_SHELL('',(#155,#156,#157,#158,#159,#160,#161,#162,#163));
#165=DERIVED_UNIT_ELEMENT(#167,1.);
#166=DERIVED_UNIT_ELEMENT(#326,-3.);
#167=(
MASS_UNIT()
NAMED_UNIT(*)
SI_UNIT(.KILO.,.GRAM.)
);
#168=DERIVED_UNIT((#165,#166));
#169=MEASURE_REPRESENTATION_ITEM('density measure',
POSITIVE_RATIO_MEASURE(7850.),#168);
#170=PROPERTY_DEFINITION_REPRESENTATION(#175,#172);
#171=PROPERTY_DEFINITION_REPRESENTATION(#176,#173);
#172=REPRESENTATION('material name',(#174),#323);
#173=REPRESENTATION('density',(#169),#323);
#174=DESCRIPTIVE_REPRESENTATION_ITEM('Steel','Steel');
#175=PROPERTY_DEFINITION('material property','material name',#333);
#176=PROPERTY_DEFINITION('material property','density of part',#333);
#177=AXIS2_PLACEMENT_3D('',#242,#195,#196);
#178=AXIS2_PLACEMENT_3D('',#243,#197,#198);
#179=AXIS2_PLACEMENT_3D('',#246,#199,#200);
#180=AXIS2_PLACEMENT_3D('',#250,#202,#203);
#181=AXIS2_PLACEMENT_3D('',#253,#205,#206);
#182=AXIS2_PLACEMENT_3D('',#254,#207,#208);
#183=AXIS2_PLACEMENT_3D('',#258,#210,#211);
#184=AXIS2_PLACEMENT_3D('',#279,#212,#213);
#185=AXIS2_PLACEMENT_3D('',#300,#214,#215);
#186=AXIS2_PLACEMENT_3D('',#302,#217,#218);
#187=AXIS2_PLACEMENT_3D('',#304,#220,#221);
#188=AXIS2_PLACEMENT_3D('',#306,#223,#224);
#189=AXIS2_PLACEMENT_3D('',#310,#226,#227);
#190=AXIS2_PLACEMENT_3D('',#312,#229,#230);
#191=AXIS2_PLACEMENT_3D('',#315,#232,#233);
#192=AXIS2_PLACEMENT_3D('',#316,#234,#235);
#193=AXIS2_PLACEMENT_3D('',#318,#237,#238);
#194=AXIS2_PLACEMENT_3D('',#320,#240,#241);
#195=DIRECTION('axis',(0.,0.,1.));
#196=DIRECTION('refdir',(1.,0.,0.));
#197=DIRECTION('center_axis',(0.,2.22044604925031E-16,-1.));
#198=DIRECTION('ref_axis',(1.,0.,0.));
#199=DIRECTION('center_axis',(0.,2.22044604925031E-16,-1.));
#200=DIRECTION('ref_axis',(0.707106781186548,-0.707106781186548,-1.57009245868377E-16));
#201=DIRECTION('',(-1.,0.,0.));
#202=DIRECTION('center_axis',(0.,2.22044604925031E-16,-1.));
#203=DIRECTION('ref_axis',(1.,0.,0.));
#204=DIRECTION('',(1.,0.,0.));
#205=DIRECTION('center_axis',(0.,-2.22044604925031E-16,1.));
#206=DIRECTION('ref_axis',(1.,0.,0.));
#207=DIRECTION('center_axis',(0.,-2.22044604925031E-16,1.));
#208=DIRECTION('ref_axis',(0.707106781186548,-0.707106781186548,-1.57009245868377E-16));
#209=DIRECTION('',(0.,-2.22044604925031E-16,1.));
#210=DIRECTION('center_axis',(0.,2.22044604925031E-16,-1.));
#211=DIRECTION('ref_axis',(0.707106781186548,0.707106781186548,1.57009245868377E-16));
#212=DIRECTION('center_axis',(0.,2.22044604925031E-16,-1.));
#213=DIRECTION('ref_axis',(0.707106781186548,-0.707106781186548,-1.57009245868377E-16));
#214=DIRECTION('center_axis',(0.,2.22044604925031E-16,-1.));
#215=DIRECTION('ref_axis',(0.707106781186548,-0.707106781186548,-1.57009245868377E-16));
#216=DIRECTION('',(0.,2.22044604925031E-16,-1.));
#217=DIRECTION('center_axis',(0.,-2.22044604925031E-16,1.));
#218=DIRECTION('ref_axis',(-1.,0.,0.));
#219=DIRECTION('',(0.,-1.,-2.22044604925031E-16));
#220=DIRECTION('center_axis',(0.,-1.,-2.22044604925031E-16));
#221=DIRECTION('ref_axis',(1.,0.,0.));
#222=DIRECTION('',(0.,-1.,-2.22044604925031E-16));
#223=DIRECTION('center_axis',(0.,-2.22044604925031E-16,1.));
#224=DIRECTION('ref_axis',(-1.,-1.22464679914735E-16,-2.71926214689377E-32));
#225=DIRECTION('',(0.,2.22044604925031E-16,-1.));
#226=DIRECTION('center_axis',(0.,-2.22044604925031E-16,1.));
#227=DIRECTION('ref_axis',(1.,0.,0.));
#228=DIRECTION('',(0.,2.22044604925031E-16,-1.));
#229=DIRECTION('center_axis',(0.,-2.22044604925031E-16,1.));
#230=DIRECTION('ref_axis',(1.,0.,0.));
#231=DIRECTION('',(0.,-2.22044604925031E-16,1.));
#232=DIRECTION('center_axis',(0.,2.22044604925031E-16,-1.));
#233=DIRECTION('ref_axis',(1.,0.,0.));
#234=DIRECTION('center_axis',(0.,-1.,-2.22044604925031E-16));
#235=DIRECTION('ref_axis',(1.,0.,0.));
#236=DIRECTION('',(-1.,0.,0.));
#237=DIRECTION('center_axis',(0.,-2.22044604925031E-16,1.));
#238=DIRECTION('ref_axis',(-1.,0.,0.));
#239=DIRECTION('',(1.,0.,0.));
#240=DIRECTION('center_axis',(0.,-1.,-2.22044604925031E-16));
#241=DIRECTION('ref_axis',(1.,0.,0.));
#242=CARTESIAN_POINT('',(0.,0.,0.));
#243=CARTESIAN_POINT('Origin',(-3.5,1.11022302462516E-15,2.22044604925031E-15));
#244=CARTESIAN_POINT('',(-2.,5.,3.33066907387547E-15));
#245=CARTESIAN_POINT('',(-2.,-5.,1.11022302462516E-15));
#246=CARTESIAN_POINT('Origin',(-2.,1.11022302462516E-15,2.22044604925031E-15));
#247=CARTESIAN_POINT('',(-3.5,-5.,1.11022302462516E-15));
#248=CARTESIAN_POINT('',(-3.5,-5.,1.11022302462516E-15));
#249=CARTESIAN_POINT('',(-3.5,5.,3.33066907387547E-15));
#250=CARTESIAN_POINT('Origin',(-3.5,1.11022302462516E-15,2.22044604925031E-15));
#251=CARTESIAN_POINT('',(-3.5,5.,3.33066907387547E-15));
#252=CARTESIAN_POINT('',(-5.3,1.11022302462516E-15,2.22044604925031E-15));
#253=CARTESIAN_POINT('Origin',(-3.5,1.11022302462516E-15,2.22044604925031E-15));
#254=CARTESIAN_POINT('Origin',(-2.,-2.22044604925031E-15,2.75));
#255=CARTESIAN_POINT('',(-2.,5.,5.));
#256=CARTESIAN_POINT('',(-2.,5.,2.75));
#257=CARTESIAN_POINT('',(-1.,4.89897948556635,5.));
#258=CARTESIAN_POINT('Origin',(-2.,-2.22044604925031E-15,5.));
#259=CARTESIAN_POINT('',(1.,4.,5.));
#260=CARTESIAN_POINT('Ctrl Pts',(-1.,4.89897948556635,5.));
#261=CARTESIAN_POINT('Ctrl Pts',(-1.,4.89897948556635,4.87504551255479));
#262=CARTESIAN_POINT('Ctrl Pts',(-0.975110005040263,4.89410327334824,4.74190328648327));
#263=CARTESIAN_POINT('Ctrl Pts',(-0.874630709840507,4.87198012823905,4.49753160275209));
#264=CARTESIAN_POINT('Ctrl Pts',(-0.799054054358092,4.85444892272378,4.38632276457296));
#265=CARTESIAN_POINT('Ctrl Pts',(-0.621033508037924,4.8070254607112,4.20533827633764));
#266=CARTESIAN_POINT('Ctrl Pts',(-0.505057881085323,4.77310548631589,4.12643750897589));
#267=CARTESIAN_POINT('Ctrl Pts',(-0.255551884421229,4.687674127895,4.02384013763805));
#268=CARTESIAN_POINT('Ctrl Pts',(-0.122172008091764,4.6358959306592,4.));
#269=CARTESIAN_POINT('Ctrl Pts',(0.131880881301999,4.52501815959547,4.));
#270=CARTESIAN_POINT('Ctrl Pts',(0.269937136642919,4.45735014609828,4.02740580521134));
#271=CARTESIAN_POINT('Ctrl Pts',(0.521798028484766,4.3198518059636,4.13597898514342));
#272=CARTESIAN_POINT('Ctrl Pts',(0.635764520434594,4.25021813571207,4.21701975994616));
#273=CARTESIAN_POINT('Ctrl Pts',(0.80550548294078,4.13982059327639,4.39626031458638));
#274=CARTESIAN_POINT('Ctrl Pts',(0.877205984377603,4.08965606822766,4.50291238353667));
#275=CARTESIAN_POINT('Ctrl Pts',(0.974530089962537,4.01942433069972,4.74139355734397));
#276=CARTESIAN_POINT('Ctrl Pts',(1.,4.,4.87347418645955));
#277=CARTESIAN_POINT('Ctrl Pts',(1.,4.,5.));
#278=CARTESIAN_POINT('',(1.,-4.,5.));
#279=CARTESIAN_POINT('Origin',(-2.,-2.22044604925031E-15,5.));
#280=CARTESIAN_POINT('',(-1.,-4.89897948556635,5.));
#281=CARTESIAN_POINT('Ctrl Pts',(1.,-4.,5.));
#282=CARTESIAN_POINT('Ctrl Pts',(1.,-4.,4.87347418645955));
#283=CARTESIAN_POINT('Ctrl Pts',(0.974530089962538,-4.01942433069972,4.74139355734397));
#284=CARTESIAN_POINT('Ctrl Pts',(0.877205984377604,-4.08965606822767,4.50291238353667));
#285=CARTESIAN_POINT('Ctrl Pts',(0.80550548294078,-4.13982059327639,4.39626031458638));
#286=CARTESIAN_POINT('Ctrl Pts',(0.635764520434594,-4.25021813571207,4.21701975994616));
#287=CARTESIAN_POINT('Ctrl Pts',(0.521798028484767,-4.3198518059636,4.13597898514342));
#288=CARTESIAN_POINT('Ctrl Pts',(0.269937136642919,-4.45735014609828,4.02740580521134));
#289=CARTESIAN_POINT('Ctrl Pts',(0.131880881302,-4.52501815959547,4.));
#290=CARTESIAN_POINT('Ctrl Pts',(-0.122172008091764,-4.6358959306592,4.));
#291=CARTESIAN_POINT('Ctrl Pts',(-0.255551884421229,-4.68767412789501,4.02384013763804));
#292=CARTESIAN_POINT('Ctrl Pts',(-0.505057881085323,-4.7731054863159,4.12643750897589));
#293=CARTESIAN_POINT('Ctrl Pts',(-0.621033508037924,-4.80702546071121,4.20533827633764));
#294=CARTESIAN_POINT('Ctrl Pts',(-0.799054054358092,-4.85444892272378,4.38632276457296));
#295=CARTESIAN_POINT('Ctrl Pts',(-0.874630709840507,-4.87198012823905,4.49753160275209));
#296=CARTESIAN_POINT('Ctrl Pts',(-0.975110005040263,-4.89410327334825,4.74190328648327));
#297=CARTESIAN_POINT('Ctrl Pts',(-1.,-4.89897948556636,4.87504551255478));
#298=CARTESIAN_POINT('Ctrl Pts',(-1.,-4.89897948556636,5.));
#299=CARTESIAN_POINT('',(-2.,-5.,5.));
#300=CARTESIAN_POINT('Origin',(-2.,-2.22044604925031E-15,5.));
#301=CARTESIAN_POINT('',(-2.,-5.,2.75));
#302=CARTESIAN_POINT('Origin',(3.,5.,5.));
#303=CARTESIAN_POINT('',(1.,5.,5.));
#304=CARTESIAN_POINT('Origin',(0.,5.,5.));
#305=CARTESIAN_POINT('',(-1.,5.,5.));
#306=CARTESIAN_POINT('Origin',(-3.5,-1.11022302462516E-15,2.));
#307=CARTESIAN_POINT('',(-3.5,-5.,5.));
#308=CARTESIAN_POINT('',(-3.5,-5.,3.));
#309=CARTESIAN_POINT('',(-3.5,5.,5.));
#310=CARTESIAN_POINT('Origin',(-3.5,-2.22044604925031E-15,5.));
#311=CARTESIAN_POINT('',(-3.5,5.,2.));
#312=CARTESIAN_POINT('Origin',(-3.5,-1.11022302462516E-15,2.));
#313=CARTESIAN_POINT('',(-5.3,-2.22044604925031E-15,5.));
#314=CARTESIAN_POINT('',(-5.3,-1.33065944847168E-15,2.));
#315=CARTESIAN_POINT('Origin',(-3.5,-2.22044604925031E-15,5.));
#316=CARTESIAN_POINT('Origin',(-3.5,-5.,3.5));
#317=CARTESIAN_POINT('',(-10.,-5.,5.));
#318=CARTESIAN_POINT('Origin',(-1.,5.,5.));
#319=CARTESIAN_POINT('',(-10.,5.,5.));
#320=CARTESIAN_POINT('Origin',(-3.5,5.,3.5));
#321=UNCERTAINTY_MEASURE_WITH_UNIT(LENGTH_MEASURE(0.01),#325,
'DISTANCE_ACCURACY_VALUE',
'Maximum model space distance between geometric entities at asserted c
onnectivities');
#322=UNCERTAINTY_MEASURE_WITH_UNIT(LENGTH_MEASURE(0.01),#325,
'DISTANCE_ACCURACY_VALUE',
'Maximum model space distance between geometric entities at asserted c
onnectivities');
#323=(
GEOMETRIC_REPRESENTATION_CONTEXT(3)
GLOBAL_UNCERTAINTY_ASSIGNED_CONTEXT((#321))
GLOBAL_UNIT_ASSIGNED_CONTEXT((#325,#327,#328))
REPRESENTATION_CONTEXT('','3D')
);
#324=(
GEOMETRIC_REPRESENTATION_CONTEXT(3)
GLOBAL_UNCERTAINTY_ASSIGNED_CONTEXT((#322))
GLOBAL_UNIT_ASSIGNED_CONTEXT((#325,#327,#328))
REPRESENTATION_CONTEXT('','3D')
);
#325=(
LENGTH_UNIT()
NAMED_UNIT(*)
SI_UNIT(.MILLI.,.METRE.)
);
#326=(
LENGTH_UNIT()
NAMED_UNIT(*)
SI_UNIT($,.METRE.)
);
#327=(
NAMED_UNIT(*)
PLANE_ANGLE_UNIT()
SI_UNIT($,.RADIAN.)
);
#328=(
NAMED_UNIT(*)
SI_UNIT($,.STERADIAN.)
SOLID_ANGLE_UNIT()
);
#329=SHAPE_DEFINITION_REPRESENTATION(#330,#331);
#330=PRODUCT_DEFINITION_SHAPE('',$,#333);
#331=SHAPE_REPRESENTATION('',(#177),#323);
#332=PRODUCT_DEFINITION_CONTEXT('part definition',#337,'design');
#333=PRODUCT_DEFINITION('2026-08-16-12-43-42-450','(Unsaved)',#334,#332);
#334=PRODUCT_DEFINITION_FORMATION('',$,#339);
#335=PRODUCT_RELATED_PRODUCT_CATEGORY('(Unsaved)','(Unsaved)',(#339));
#336=APPLICATION_PROTOCOL_DEFINITION('international standard',
'automotive_design',2009,#337);
#337=APPLICATION_CONTEXT(
'Core Data for Automotive Mechanical Design Process');
#338=PRODUCT_CONTEXT('part definition',#337,'mechanical');
#339=PRODUCT('2026-08-16-12-43-42-450','(Unsaved)',$,(#338));
#340=PRESENTATION_STYLE_ASSIGNMENT((#342));
#341=PRESENTATION_STYLE_ASSIGNMENT((#343));
#342=SURFACE_STYLE_USAGE(.BOTH.,#344);
#343=SURFACE_STYLE_USAGE(.BOTH.,#345);
#344=SURFACE_SIDE_STYLE('',(#346));
#345=SURFACE_SIDE_STYLE('',(#347));
#346=SURFACE_STYLE_FILL_AREA(#348);
#347=SURFACE_STYLE_FILL_AREA(#349);
#348=FILL_AREA_STYLE('Steel - Satin',(#350));
#349=FILL_AREA_STYLE('Opaque(160,160,160)',(#351));
#350=FILL_AREA_STYLE_COLOUR('Steel - Satin',#352);
#351=FILL_AREA_STYLE_COLOUR('Opaque(160,160,160)',#353);
#352=COLOUR_RGB('Steel - Satin',0.627450980392157,0.627450980392157,0.627450980392157);
#353=COLOUR_RGB('Opaque(160,160,160)',0.627450980392157,0.627450980392157,
0.627450980392157);
ENDSEC;
END-ISO-10303-21;
