ISO-10303-21;
HEADER;
/* Generated by software containing ST-Developer
 * from STEP Tools, Inc. (www.steptools.com) 
 */

FILE_DESCRIPTION(
/* description */ (''),
/* implementation_level */ '2;1');

FILE_NAME(
/* name */ 'magnet holder2.step',
/* time_stamp */ '2026-09-22T16:46:22+03:00',
/* author */ (''),
/* organization */ (''),
/* preprocessor_version */ 'ST-DEVELOPER v20.2',
/* originating_system */ 'Autodesk Translation Framework v15.15.0.0',
/* authorisation */ '');

FILE_SCHEMA (('AUTOMOTIVE_DESIGN { 1 0 10303 214 3 1 1 }'));
ENDSEC;

DATA;
#10=MECHANICAL_DESIGN_GEOMETRIC_PRESENTATION_REPRESENTATION('',(#13),#324);
#11=SHAPE_REPRESENTATION_RELATIONSHIP('SRR','None',#331,#12);
#12=ADVANCED_BREP_SHAPE_REPRESENTATION('',(#14),#323);
#13=STYLED_ITEM('',(#341),#14);
#14=MANIFOLD_SOLID_BREP('Body1',#164);
#15=B_SPLINE_CURVE_WITH_KNOTS('',3,(#266,#267,#268,#269,#270,#271,#272,
#273,#274,#275,#276,#277,#278,#279,#280,#281,#282,#283),.UNSPECIFIED.,.F.,
 .F.,(4,2,2,2,2,2,2,2,4),(0.,0.0379577440621363,0.0759154881242727,0.119083639644551,
0.16225179116483,0.202241967942349,0.242232144719867,0.279718490953433,
0.317204837186998),.UNSPECIFIED.);
#16=B_SPLINE_CURVE_WITH_KNOTS('',3,(#286,#287,#288,#289,#290,#291,#292,
#293,#294,#295,#296,#297,#298,#299,#300,#301,#302,#303),.UNSPECIFIED.,.F.,
 .F.,(4,2,2,2,2,2,2,2,4),(0.317204837186998,0.354691183420564,0.392177529654129,
0.432167706431648,0.472157883209167,0.515326034729446,0.558494186249724,
0.596451930311861,0.634409674373997),.UNSPECIFIED.);
#17=CYLINDRICAL_SURFACE('',#184,1.);
#18=CYLINDRICAL_SURFACE('',#185,5.);
#19=CYLINDRICAL_SURFACE('',#189,1.4);
#20=CYLINDRICAL_SURFACE('',#191,5.);
#21=FACE_BOUND('',#42,.T.);
#22=FACE_BOUND('',#49,.T.);
#23=CIRCLE('',#180,5.);
#24=CIRCLE('',#181,5.);
#25=CIRCLE('',#182,5.);
#26=CIRCLE('',#183,1.4);
#27=CIRCLE('',#186,5.);
#28=CIRCLE('',#187,5.);
#29=CIRCLE('',#190,1.4);
#30=CIRCLE('',#192,5.);
#31=FACE_OUTER_BOUND('',#40,.T.);
#32=FACE_OUTER_BOUND('',#41,.T.);
#33=FACE_OUTER_BOUND('',#43,.T.);
#34=FACE_OUTER_BOUND('',#44,.T.);
#35=FACE_OUTER_BOUND('',#45,.T.);
#36=FACE_OUTER_BOUND('',#46,.T.);
#37=FACE_OUTER_BOUND('',#47,.T.);
#38=FACE_OUTER_BOUND('',#48,.T.);
#39=FACE_OUTER_BOUND('',#50,.T.);
#40=EDGE_LOOP('',(#108,#109,#110,#111));
#41=EDGE_LOOP('',(#112,#113,#114,#115,#116,#117));
#42=EDGE_LOOP('',(#118));
#43=EDGE_LOOP('',(#119,#120,#121,#122));
#44=EDGE_LOOP('',(#123,#124,#125,#126,#127,#128,#129,#130));
#45=EDGE_LOOP('',(#131,#132,#133,#134));
#46=EDGE_LOOP('',(#135,#136,#137,#138));
#47=EDGE_LOOP('',(#139,#140,#141,#142));
#48=EDGE_LOOP('',(#143,#144,#145,#146));
#49=EDGE_LOOP('',(#147));
#50=EDGE_LOOP('',(#148,#149));
#51=LINE('',#246,#62);
#52=LINE('',#248,#63);
#53=LINE('',#250,#64);
#54=LINE('',#251,#65);
#55=LINE('',#256,#66);
#56=LINE('',#260,#67);
#57=LINE('',#285,#68);
#58=LINE('',#307,#69);
#59=LINE('',#311,#70);
#60=LINE('',#312,#71);
#61=LINE('',#315,#72);
#62=VECTOR('',#199,10.);
#63=VECTOR('',#200,10.);
#64=VECTOR('',#201,10.);
#65=VECTOR('',#202,10.);
#66=VECTOR('',#207,10.);
#67=VECTOR('',#210,10.);
#68=VECTOR('',#217,10.);
#69=VECTOR('',#222,10.);
#70=VECTOR('',#227,10.);
#71=VECTOR('',#228,10.);
#72=VECTOR('',#231,1.4);
#73=VERTEX_POINT('',#244);
#74=VERTEX_POINT('',#245);
#75=VERTEX_POINT('',#247);
#76=VERTEX_POINT('',#249);
#77=VERTEX_POINT('',#253);
#78=VERTEX_POINT('',#255);
#79=VERTEX_POINT('',#257);
#80=VERTEX_POINT('',#259);
#81=VERTEX_POINT('',#262);
#82=VERTEX_POINT('',#265);
#83=VERTEX_POINT('',#284);
#84=VERTEX_POINT('',#305);
#85=VERTEX_POINT('',#310);
#86=VERTEX_POINT('',#314);
#87=EDGE_CURVE('',#73,#74,#51,.T.);
#88=EDGE_CURVE('',#75,#73,#52,.T.);
#89=EDGE_CURVE('',#76,#75,#53,.T.);
#90=EDGE_CURVE('',#74,#76,#54,.T.);
#91=EDGE_CURVE('',#77,#73,#23,.T.);
#92=EDGE_CURVE('',#77,#78,#55,.T.);
#93=EDGE_CURVE('',#79,#78,#24,.T.);
#94=EDGE_CURVE('',#80,#79,#56,.T.);
#95=EDGE_CURVE('',#80,#75,#25,.T.);
#96=EDGE_CURVE('',#81,#81,#26,.T.);
#97=EDGE_CURVE('',#82,#77,#15,.T.);
#98=EDGE_CURVE('',#82,#83,#57,.T.);
#99=EDGE_CURVE('',#78,#83,#16,.T.);
#100=EDGE_CURVE('',#74,#84,#27,.T.);
#101=EDGE_CURVE('',#84,#79,#58,.T.);
#102=EDGE_CURVE('',#83,#82,#28,.T.);
#103=EDGE_CURVE('',#84,#85,#59,.T.);
#104=EDGE_CURVE('',#85,#80,#60,.T.);
#105=EDGE_CURVE('',#81,#86,#61,.T.);
#106=EDGE_CURVE('',#86,#86,#29,.T.);
#107=EDGE_CURVE('',#76,#85,#30,.T.);
#108=ORIENTED_EDGE('',*,*,#87,.F.);
#109=ORIENTED_EDGE('',*,*,#88,.F.);
#110=ORIENTED_EDGE('',*,*,#89,.F.);
#111=ORIENTED_EDGE('',*,*,#90,.F.);
#112=ORIENTED_EDGE('',*,*,#91,.F.);
#113=ORIENTED_EDGE('',*,*,#92,.T.);
#114=ORIENTED_EDGE('',*,*,#93,.F.);
#115=ORIENTED_EDGE('',*,*,#94,.F.);
#116=ORIENTED_EDGE('',*,*,#95,.T.);
#117=ORIENTED_EDGE('',*,*,#88,.T.);
#118=ORIENTED_EDGE('',*,*,#96,.T.);
#119=ORIENTED_EDGE('',*,*,#97,.F.);
#120=ORIENTED_EDGE('',*,*,#98,.T.);
#121=ORIENTED_EDGE('',*,*,#99,.F.);
#122=ORIENTED_EDGE('',*,*,#92,.F.);
#123=ORIENTED_EDGE('',*,*,#100,.T.);
#124=ORIENTED_EDGE('',*,*,#101,.T.);
#125=ORIENTED_EDGE('',*,*,#93,.T.);
#126=ORIENTED_EDGE('',*,*,#99,.T.);
#127=ORIENTED_EDGE('',*,*,#102,.T.);
#128=ORIENTED_EDGE('',*,*,#97,.T.);
#129=ORIENTED_EDGE('',*,*,#91,.T.);
#130=ORIENTED_EDGE('',*,*,#87,.T.);
#131=ORIENTED_EDGE('',*,*,#101,.F.);
#132=ORIENTED_EDGE('',*,*,#103,.T.);
#133=ORIENTED_EDGE('',*,*,#104,.T.);
#134=ORIENTED_EDGE('',*,*,#94,.T.);
#135=ORIENTED_EDGE('',*,*,#96,.F.);
#136=ORIENTED_EDGE('',*,*,#105,.T.);
#137=ORIENTED_EDGE('',*,*,#106,.F.);
#138=ORIENTED_EDGE('',*,*,#105,.F.);
#139=ORIENTED_EDGE('',*,*,#107,.F.);
#140=ORIENTED_EDGE('',*,*,#89,.T.);
#141=ORIENTED_EDGE('',*,*,#95,.F.);
#142=ORIENTED_EDGE('',*,*,#104,.F.);
#143=ORIENTED_EDGE('',*,*,#100,.F.);
#144=ORIENTED_EDGE('',*,*,#90,.T.);
#145=ORIENTED_EDGE('',*,*,#107,.T.);
#146=ORIENTED_EDGE('',*,*,#103,.F.);
#147=ORIENTED_EDGE('',*,*,#106,.T.);
#148=ORIENTED_EDGE('',*,*,#102,.F.);
#149=ORIENTED_EDGE('',*,*,#98,.F.);
#150=PLANE('',#178);
#151=PLANE('',#179);
#152=PLANE('',#188);
#153=PLANE('',#193);
#154=PLANE('',#194);
#155=ADVANCED_FACE('',(#31),#150,.F.);
#156=ADVANCED_FACE('',(#32,#21),#151,.T.);
#157=ADVANCED_FACE('',(#33),#17,.F.);
#158=ADVANCED_FACE('',(#34),#18,.T.);
#159=ADVANCED_FACE('',(#35),#152,.T.);
#160=ADVANCED_FACE('',(#36),#19,.F.);
#161=ADVANCED_FACE('',(#37),#20,.T.);
#162=ADVANCED_FACE('',(#38,#22),#153,.T.);
#163=ADVANCED_FACE('',(#39),#154,.T.);
#164=CLOSED_SHELL('',(#155,#156,#157,#158,#159,#160,#161,#162,#163));
#165=DERIVED_UNIT_ELEMENT(#167,1.);
#166=DERIVED_UNIT_ELEMENT(#326,-3.);
#167=(
MASS_UNIT()
NAMED_UNIT(*)
SI_UNIT(.KILO.,.GRAM.)
);
#168=DERIVED_UNIT((#165,#166));
#169=MEASURE_REPRESENTATION_ITEM('density measure',
POSITIVE_RATIO_MEASURE(7850.),#168);
#170=PROPERTY_DEFINITION_REPRESENTATION(#175,#172);
#171=PROPERTY_DEFINITION_REPRESENTATION(#176,#173);
#172=REPRESENTATION('material name',(#174),#323);
#173=REPRESENTATION('density',(#169),#323);
#174=DESCRIPTIVE_REPRESENTATION_ITEM('Steel','Steel');
#175=PROPERTY_DEFINITION('material property','material name',#333);
#176=PROPERTY_DEFINITION('material property','density of part',#333);
#177=AXIS2_PLACEMENT_3D('',#242,#195,#196);
#178=AXIS2_PLACEMENT_3D('',#243,#197,#198);
#179=AXIS2_PLACEMENT_3D('',#252,#203,#204);
#180=AXIS2_PLACEMENT_3D('',#254,#205,#206);
#181=AXIS2_PLACEMENT_3D('',#258,#208,#209);
#182=AXIS2_PLACEMENT_3D('',#261,#211,#212);
#183=AXIS2_PLACEMENT_3D('',#263,#213,#214);
#184=AXIS2_PLACEMENT_3D('',#264,#215,#216);
#185=AXIS2_PLACEMENT_3D('',#304,#218,#219);
#186=AXIS2_PLACEMENT_3D('',#306,#220,#221);
#187=AXIS2_PLACEMENT_3D('',#308,#223,#224);
#188=AXIS2_PLACEMENT_3D('',#309,#225,#226);
#189=AXIS2_PLACEMENT_3D('',#313,#229,#230);
#190=AXIS2_PLACEMENT_3D('',#316,#232,#233);
#191=AXIS2_PLACEMENT_3D('',#317,#234,#235);
#192=AXIS2_PLACEMENT_3D('',#318,#236,#237);
#193=AXIS2_PLACEMENT_3D('',#319,#238,#239);
#194=AXIS2_PLACEMENT_3D('',#320,#240,#241);
#195=DIRECTION('axis',(0.,0.,1.));
#196=DIRECTION('refdir',(1.,0.,0.));
#197=DIRECTION('center_axis',(0.,1.,-2.22044604925031E-16));
#198=DIRECTION('ref_axis',(1.,0.,0.));
#199=DIRECTION('',(0.,-2.22044604925031E-16,-1.));
#200=DIRECTION('',(1.,0.,0.));
#201=DIRECTION('',(0.,2.22044604925031E-16,1.));
#202=DIRECTION('',(-1.,0.,0.));
#203=DIRECTION('center_axis',(0.,2.22044604925031E-16,1.));
#204=DIRECTION('ref_axis',(1.,0.,0.));
#205=DIRECTION('center_axis',(0.,-2.22044604925031E-16,-1.));
#206=DIRECTION('ref_axis',(0.707106781186548,-0.707106781186548,1.57009245868377E-16));
#207=DIRECTION('',(0.,1.,-2.22044604925031E-16));
#208=DIRECTION('center_axis',(0.,-2.22044604925031E-16,-1.));
#209=DIRECTION('ref_axis',(0.707106781186548,0.707106781186548,-1.57009245868377E-16));
#210=DIRECTION('',(1.,0.,0.));
#211=DIRECTION('center_axis',(0.,2.22044604925031E-16,1.));
#212=DIRECTION('ref_axis',(1.,0.,0.));
#213=DIRECTION('center_axis',(0.,-2.22044604925031E-16,-1.));
#214=DIRECTION('ref_axis',(1.,0.,0.));
#215=DIRECTION('center_axis',(0.,1.,-2.22044604925031E-16));
#216=DIRECTION('ref_axis',(1.,0.,0.));
#217=DIRECTION('',(0.,1.,-2.22044604925031E-16));
#218=DIRECTION('center_axis',(0.,-2.22044604925031E-16,-1.));
#219=DIRECTION('ref_axis',(0.707106781186548,0.707106781186548,-1.57009245868377E-16));
#220=DIRECTION('center_axis',(0.,2.22044604925031E-16,1.));
#221=DIRECTION('ref_axis',(0.707106781186548,0.707106781186548,-1.57009245868377E-16));
#222=DIRECTION('',(0.,2.22044604925031E-16,1.));
#223=DIRECTION('center_axis',(0.,-2.22044604925031E-16,-1.));
#224=DIRECTION('ref_axis',(0.707106781186548,-0.707106781186548,1.57009245868377E-16));
#225=DIRECTION('center_axis',(0.,1.,-2.22044604925031E-16));
#226=DIRECTION('ref_axis',(1.,0.,0.));
#227=DIRECTION('',(-1.,0.,0.));
#228=DIRECTION('',(0.,2.22044604925031E-16,1.));
#229=DIRECTION('center_axis',(0.,-2.22044604925031E-16,-1.));
#230=DIRECTION('ref_axis',(1.,0.,0.));
#231=DIRECTION('',(0.,-2.22044604925031E-16,-1.));
#232=DIRECTION('center_axis',(0.,2.22044604925031E-16,1.));
#233=DIRECTION('ref_axis',(1.,0.,0.));
#234=DIRECTION('center_axis',(0.,-2.22044604925031E-16,-1.));
#235=DIRECTION('ref_axis',(-1.,-1.22464679914735E-16,2.71926214689377E-32));
#236=DIRECTION('center_axis',(0.,-2.22044604925031E-16,-1.));
#237=DIRECTION('ref_axis',(1.,0.,0.));
#238=DIRECTION('center_axis',(0.,-2.22044604925031E-16,-1.));
#239=DIRECTION('ref_axis',(-1.,0.,0.));
#240=DIRECTION('center_axis',(0.,2.22044604925031E-16,1.));
#241=DIRECTION('ref_axis',(1.,0.,0.));
#242=CARTESIAN_POINT('',(0.,0.,0.));
#243=CARTESIAN_POINT('Origin',(-3.5,-4.88266992815611,1.51687718580702));
#244=CARTESIAN_POINT('',(-2.,-4.88266992815611,3.01687718580702));
#245=CARTESIAN_POINT('',(-2.,-4.88266992815611,0.0168771858070155));
#246=CARTESIAN_POINT('',(-2.,-4.88266992815611,2.26687718580702));
#247=CARTESIAN_POINT('',(-3.5,-4.88266992815611,3.01687718580702));
#248=CARTESIAN_POINT('',(-10.,-4.88266992815611,3.01687718580702));
#249=CARTESIAN_POINT('',(-3.5,-4.88266992815611,0.0168771858070155));
#250=CARTESIAN_POINT('',(-3.5,-4.88266992815611,6.01687718580702));
#251=CARTESIAN_POINT('',(3.,-4.88266992815611,0.0168771858070155));
#252=CARTESIAN_POINT('Origin',(-10.,-4.88266992815611,3.01687718580702));
#253=CARTESIAN_POINT('',(-1.,-4.78164941372246,3.01687718580702));
#254=CARTESIAN_POINT('Origin',(-2.,0.117330071843892,3.01687718580701));
#255=CARTESIAN_POINT('',(-1.,5.01630955741024,3.01687718580701));
#256=CARTESIAN_POINT('',(-1.,-4.88266992815611,3.01687718580702));
#257=CARTESIAN_POINT('',(-2.,5.11733007184389,3.01687718580701));
#258=CARTESIAN_POINT('Origin',(-2.,0.117330071843892,3.01687718580701));
#259=CARTESIAN_POINT('',(-3.5,5.11733007184389,3.01687718580701));
#260=CARTESIAN_POINT('',(-10.,5.11733007184389,3.01687718580701));
#261=CARTESIAN_POINT('Origin',(-3.5,0.117330071843892,3.01687718580701));
#262=CARTESIAN_POINT('',(-4.9,0.117330071843892,3.01687718580701));
#263=CARTESIAN_POINT('Origin',(-3.5,0.117330071843892,3.01687718580701));
#264=CARTESIAN_POINT('Origin',(0.,-4.88266992815611,3.01687718580702));
#265=CARTESIAN_POINT('',(1.,-3.88266992815611,3.01687718580702));
#266=CARTESIAN_POINT('Ctrl Pts',(1.,-3.88266992815611,3.01687718580702));
#267=CARTESIAN_POINT('Ctrl Pts',(1.,-3.88266992815611,2.89035137226656));
#268=CARTESIAN_POINT('Ctrl Pts',(0.974530089962537,-3.90209425885583,2.75827074315099));
#269=CARTESIAN_POINT('Ctrl Pts',(0.877205984377603,-3.97232599638377,2.51978956934368));
#270=CARTESIAN_POINT('Ctrl Pts',(0.80550548294078,-4.0224905214325,2.41313750039339));
#271=CARTESIAN_POINT('Ctrl Pts',(0.635764520434594,-4.13288806386818,2.23389694575317));
#272=CARTESIAN_POINT('Ctrl Pts',(0.521798028484766,-4.20252173411971,2.15285617095044));
#273=CARTESIAN_POINT('Ctrl Pts',(0.269937136642919,-4.34002007425439,2.04428299101835));
#274=CARTESIAN_POINT('Ctrl Pts',(0.131880881301999,-4.40768808775158,2.01687718580702));
#275=CARTESIAN_POINT('Ctrl Pts',(-0.122172008091764,-4.51856585881531,2.01687718580702));
#276=CARTESIAN_POINT('Ctrl Pts',(-0.255551884421229,-4.57034405605111,2.04071732344506));
#277=CARTESIAN_POINT('Ctrl Pts',(-0.505057881085323,-4.655775414472,2.1433146947829));
#278=CARTESIAN_POINT('Ctrl Pts',(-0.621033508037924,-4.68969538886731,2.22221546214465));
#279=CARTESIAN_POINT('Ctrl Pts',(-0.799054054358092,-4.73711885087989,2.40319995037997));
#280=CARTESIAN_POINT('Ctrl Pts',(-0.874630709840507,-4.75465005639516,2.5144087885591));
#281=CARTESIAN_POINT('Ctrl Pts',(-0.975110005040263,-4.77677320150435,2.75878047229028));
#282=CARTESIAN_POINT('Ctrl Pts',(-1.,-4.78164941372246,2.8919226983618));
#283=CARTESIAN_POINT('Ctrl Pts',(-1.,-4.78164941372246,3.01687718580702));
#284=CARTESIAN_POINT('',(1.,4.11733007184389,3.01687718580701));
#285=CARTESIAN_POINT('',(1.,-4.88266992815611,3.01687718580702));
#286=CARTESIAN_POINT('Ctrl Pts',(-1.,5.01630955741025,3.01687718580701));
#287=CARTESIAN_POINT('Ctrl Pts',(-1.,5.01630955741025,2.8919226983618));
#288=CARTESIAN_POINT('Ctrl Pts',(-0.975110005040263,5.01143334519214,2.75878047229028));
#289=CARTESIAN_POINT('Ctrl Pts',(-0.874630709840507,4.98931020008294,2.5144087885591));
#290=CARTESIAN_POINT('Ctrl Pts',(-0.799054054358092,4.97177899456767,2.40319995037997));
#291=CARTESIAN_POINT('Ctrl Pts',(-0.621033508037924,4.92435553255509,2.22221546214465));
#292=CARTESIAN_POINT('Ctrl Pts',(-0.505057881085323,4.89043555815979,2.1433146947829));
#293=CARTESIAN_POINT('Ctrl Pts',(-0.255551884421229,4.8050041997389,2.04071732344506));
#294=CARTESIAN_POINT('Ctrl Pts',(-0.122172008091764,4.75322600250309,2.01687718580701));
#295=CARTESIAN_POINT('Ctrl Pts',(0.131880881302,4.64234823143936,2.01687718580701));
#296=CARTESIAN_POINT('Ctrl Pts',(0.269937136642919,4.57468021794217,2.04428299101835));
#297=CARTESIAN_POINT('Ctrl Pts',(0.521798028484767,4.43718187780749,2.15285617095043));
#298=CARTESIAN_POINT('Ctrl Pts',(0.635764520434594,4.36754820755596,2.23389694575317));
#299=CARTESIAN_POINT('Ctrl Pts',(0.80550548294078,4.25715066512028,2.41313750039339));
#300=CARTESIAN_POINT('Ctrl Pts',(0.877205984377604,4.20698614007155,2.51978956934368));
#301=CARTESIAN_POINT('Ctrl Pts',(0.974530089962538,4.13675440254361,2.75827074315098));
#302=CARTESIAN_POINT('Ctrl Pts',(1.,4.11733007184389,2.89035137226656));
#303=CARTESIAN_POINT('Ctrl Pts',(1.,4.11733007184389,3.01687718580701));
#304=CARTESIAN_POINT('Origin',(-2.,0.117330071843892,2.26687718580701));
#305=CARTESIAN_POINT('',(-2.,5.11733007184389,0.0168771858070133));
#306=CARTESIAN_POINT('Origin',(-2.,0.117330071843891,0.0168771858070144));
#307=CARTESIAN_POINT('',(-2.,5.11733007184389,2.26687718580701));
#308=CARTESIAN_POINT('Origin',(-2.,0.117330071843892,3.01687718580701));
#309=CARTESIAN_POINT('Origin',(-3.5,5.11733007184389,1.51687718580701));
#310=CARTESIAN_POINT('',(-3.5,5.11733007184389,0.0168771858070133));
#311=CARTESIAN_POINT('',(3.,5.11733007184389,0.0168771858070133));
#312=CARTESIAN_POINT('',(-3.5,5.11733007184389,6.01687718580702));
#313=CARTESIAN_POINT('Origin',(-3.5,0.117330071843893,6.01687718580702));
#314=CARTESIAN_POINT('',(-4.9,0.117330071843891,0.0168771858070144));
#315=CARTESIAN_POINT('',(-4.9,0.117330071843893,6.01687718580702));
#316=CARTESIAN_POINT('Origin',(-3.5,0.117330071843891,0.0168771858070144));
#317=CARTESIAN_POINT('Origin',(-3.5,0.117330071843893,6.01687718580702));
#318=CARTESIAN_POINT('Origin',(-3.5,0.117330071843891,0.0168771858070144));
#319=CARTESIAN_POINT('Origin',(3.,-4.88266992815611,0.0168771858070155));
#320=CARTESIAN_POINT('Origin',(1.,-4.88266992815611,3.01687718580702));
#321=UNCERTAINTY_MEASURE_WITH_UNIT(LENGTH_MEASURE(0.01),#325,
'DISTANCE_ACCURACY_VALUE',
'Maximum model space distance between geometric entities at asserted c
onnectivities');
#322=UNCERTAINTY_MEASURE_WITH_UNIT(LENGTH_MEASURE(0.01),#325,
'DISTANCE_ACCURACY_VALUE',
'Maximum model space distance between geometric entities at asserted c
onnectivities');
#323=(
GEOMETRIC_REPRESENTATION_CONTEXT(3)
GLOBAL_UNCERTAINTY_ASSIGNED_CONTEXT((#321))
GLOBAL_UNIT_ASSIGNED_CONTEXT((#325,#327,#328))
REPRESENTATION_CONTEXT('','3D')
);
#324=(
GEOMETRIC_REPRESENTATION_CONTEXT(3)
GLOBAL_UNCERTAINTY_ASSIGNED_CONTEXT((#322))
GLOBAL_UNIT_ASSIGNED_CONTEXT((#325,#327,#328))
REPRESENTATION_CONTEXT('','3D')
);
#325=(
LENGTH_UNIT()
NAMED_UNIT(*)
SI_UNIT(.MILLI.,.METRE.)
);
#326=(
LENGTH_UNIT()
NAMED_UNIT(*)
SI_UNIT($,.METRE.)
);
#327=(
NAMED_UNIT(*)
PLANE_ANGLE_UNIT()
SI_UNIT($,.RADIAN.)
);
#328=(
NAMED_UNIT(*)
SI_UNIT($,.STERADIAN.)
SOLID_ANGLE_UNIT()
);
#329=SHAPE_DEFINITION_REPRESENTATION(#330,#331);
#330=PRODUCT_DEFINITION_SHAPE('',$,#333);
#331=SHAPE_REPRESENTATION('',(#177),#323);
#332=PRODUCT_DEFINITION_CONTEXT('part definition',#337,'design');
#333=PRODUCT_DEFINITION('2026-08-16-12-43-42-450','(Unsaved)',#334,#332);
#334=PRODUCT_DEFINITION_FORMATION('',$,#339);
#335=PRODUCT_RELATED_PRODUCT_CATEGORY('(Unsaved)','(Unsaved)',(#339));
#336=APPLICATION_PROTOCOL_DEFINITION('international standard',
'automotive_design',2009,#337);
#337=APPLICATION_CONTEXT(
'Core Data for Automotive Mechanical Design Process');
#338=PRODUCT_CONTEXT('part definition',#337,'mechanical');
#339=PRODUCT('2026-08-16-12-43-42-450','(Unsaved)',$,(#338));
#340=PRESENTATION_STYLE_ASSIGNMENT((#342));
#341=PRESENTATION_STYLE_ASSIGNMENT((#343));
#342=SURFACE_STYLE_USAGE(.BOTH.,#344);
#343=SURFACE_STYLE_USAGE(.BOTH.,#345);
#344=SURFACE_SIDE_STYLE('',(#346));
#345=SURFACE_SIDE_STYLE('',(#347));
#346=SURFACE_STYLE_FILL_AREA(#348);
#347=SURFACE_STYLE_FILL_AREA(#349);
#348=FILL_AREA_STYLE('Steel - Satin',(#350));
#349=FILL_AREA_STYLE('Opaque(160,160,160)',(#351));
#350=FILL_AREA_STYLE_COLOUR('Steel - Satin',#352);
#351=FILL_AREA_STYLE_COLOUR('Opaque(160,160,160)',#353);
#352=COLOUR_RGB('Steel - Satin',0.627450980392157,0.627450980392157,0.627450980392157);
#353=COLOUR_RGB('Opaque(160,160,160)',0.627450980392157,0.627450980392157,
0.627450980392157);
ENDSEC;
END-ISO-10303-21;
