ISO-10303-21;
HEADER;
/* Generated by software containing ST-Developer
 * from STEP Tools, Inc. (www.steptools.com) 
 */

FILE_DESCRIPTION(
/* description */ (''),
/* implementation_level */ '2;1');

FILE_NAME(
/* name */ 'magnet holder1.step',
/* time_stamp */ '2026-09-20T17:16:12+03:00',
/* author */ (''),
/* organization */ (''),
/* preprocessor_version */ 'ST-DEVELOPER v20.2',
/* originating_system */ 'Autodesk Translation Framework v15.15.0.0',
/* authorisation */ '');

FILE_SCHEMA (('AUTOMOTIVE_DESIGN { 1 0 10303 214 3 1 1 }'));
ENDSEC;

DATA;
#10=MECHANICAL_DESIGN_GEOMETRIC_PRESENTATION_REPRESENTATION('',(#13,#14),
#616);
#11=SHAPE_REPRESENTATION_RELATIONSHIP('SRR','None',#623,#12);
#12=ADVANCED_BREP_SHAPE_REPRESENTATION('',(#15,#16),#615);
#13=STYLED_ITEM('',(#632),#15);
#14=STYLED_ITEM('',(#632),#16);
#15=MANIFOLD_SOLID_BREP('Body1',#315);
#16=MANIFOLD_SOLID_BREP('Body2',#316);
#17=B_SPLINE_CURVE_WITH_KNOTS('',3,(#480,#481,#482,#483,#484,#485,#486,
#487,#488,#489,#490,#491,#492,#493,#494,#495,#496,#497),.UNSPECIFIED.,.F.,
 .F.,(4,2,2,2,2,2,2,2,4),(-0.317204837186998,-0.279247093124862,-0.241289349062726,
-0.198121197542447,-0.154953046022169,-0.11496286924465,-0.0749726924671311,
-0.0374863462335655,0.),.UNSPECIFIED.);
#18=B_SPLINE_CURVE_WITH_KNOTS('',3,(#500,#501,#502,#503,#504,#505,#506,
#507,#508,#509,#510,#511,#512,#513,#514,#515,#516,#517),.UNSPECIFIED.,.F.,
 .F.,(4,2,2,2,2,2,2,2,4),(-0.317204837186998,-0.279718490953433,-0.242232144719867,
-0.202241967942349,-0.16225179116483,-0.119083639644551,-0.0759154881242726,
-0.0379577440621364,0.),.UNSPECIFIED.);
#19=B_SPLINE_CURVE_WITH_KNOTS('',3,(#552,#553,#554,#555,#556,#557,#558,
#559,#560,#561,#562,#563,#564,#565,#566,#567,#568,#569),.UNSPECIFIED.,.F.,
 .F.,(4,2,2,2,2,2,2,2,4),(0.,0.0374863462335655,0.074972692467131,0.11496286924465,
0.154953046022169,0.198121197542447,0.241289349062726,0.279247093124862,
0.317204837186998),.UNSPECIFIED.);
#20=B_SPLINE_CURVE_WITH_KNOTS('',3,(#573,#574,#575,#576,#577,#578,#579,
#580,#581,#582,#583,#584,#585,#586,#587,#588,#589,#590),.UNSPECIFIED.,.F.,
 .F.,(4,2,2,2,2,2,2,2,4),(0.,0.0379577440621363,0.0759154881242726,0.119083639644551,
0.16225179116483,0.202241967942348,0.242232144719867,0.279718490953433,
0.317204837186998),.UNSPECIFIED.);
#21=CYLINDRICAL_SURFACE('',#336,1.);
#22=CYLINDRICAL_SURFACE('',#337,5.);
#23=CYLINDRICAL_SURFACE('',#341,1.4);
#24=CYLINDRICAL_SURFACE('',#343,5.);
#25=CYLINDRICAL_SURFACE('',#351,5.);
#26=CYLINDRICAL_SURFACE('',#356,1.);
#27=CYLINDRICAL_SURFACE('',#357,5.);
#28=CYLINDRICAL_SURFACE('',#359,1.8);
#29=FACE_BOUND('',#69,.T.);
#30=FACE_BOUND('',#76,.T.);
#31=FACE_BOUND('',#79,.T.);
#32=FACE_BOUND('',#87,.T.);
#33=CIRCLE('',#332,5.);
#34=CIRCLE('',#333,5.);
#35=CIRCLE('',#334,5.);
#36=CIRCLE('',#335,1.4);
#37=CIRCLE('',#338,5.);
#38=CIRCLE('',#339,5.);
#39=CIRCLE('',#342,1.4);
#40=CIRCLE('',#344,5.);
#41=CIRCLE('',#348,5.);
#42=CIRCLE('',#349,5.);
#43=CIRCLE('',#350,1.8);
#44=CIRCLE('',#352,5.);
#45=CIRCLE('',#353,5.);
#46=CIRCLE('',#354,5.);
#47=CIRCLE('',#358,5.);
#48=CIRCLE('',#360,1.8);
#49=FACE_OUTER_BOUND('',#67,.T.);
#50=FACE_OUTER_BOUND('',#68,.T.);
#51=FACE_OUTER_BOUND('',#70,.T.);
#52=FACE_OUTER_BOUND('',#71,.T.);
#53=FACE_OUTER_BOUND('',#72,.T.);
#54=FACE_OUTER_BOUND('',#73,.T.);
#55=FACE_OUTER_BOUND('',#74,.T.);
#56=FACE_OUTER_BOUND('',#75,.T.);
#57=FACE_OUTER_BOUND('',#77,.T.);
#58=FACE_OUTER_BOUND('',#78,.T.);
#59=FACE_OUTER_BOUND('',#80,.T.);
#60=FACE_OUTER_BOUND('',#81,.T.);
#61=FACE_OUTER_BOUND('',#82,.T.);
#62=FACE_OUTER_BOUND('',#83,.T.);
#63=FACE_OUTER_BOUND('',#84,.T.);
#64=FACE_OUTER_BOUND('',#85,.T.);
#65=FACE_OUTER_BOUND('',#86,.T.);
#66=FACE_OUTER_BOUND('',#88,.T.);
#67=EDGE_LOOP('',(#203,#204,#205,#206));
#68=EDGE_LOOP('',(#207,#208,#209,#210,#211,#212));
#69=EDGE_LOOP('',(#213));
#70=EDGE_LOOP('',(#214,#215,#216,#217));
#71=EDGE_LOOP('',(#218,#219,#220,#221,#222,#223,#224,#225));
#72=EDGE_LOOP('',(#226,#227,#228,#229));
#73=EDGE_LOOP('',(#230,#231,#232,#233));
#74=EDGE_LOOP('',(#234,#235,#236,#237));
#75=EDGE_LOOP('',(#238,#239,#240,#241));
#76=EDGE_LOOP('',(#242));
#77=EDGE_LOOP('',(#243,#244));
#78=EDGE_LOOP('',(#245,#246,#247,#248));
#79=EDGE_LOOP('',(#249));
#80=EDGE_LOOP('',(#250,#251,#252,#253,#254,#255,#256,#257));
#81=EDGE_LOOP('',(#258,#259));
#82=EDGE_LOOP('',(#260,#261,#262,#263));
#83=EDGE_LOOP('',(#264,#265,#266,#267));
#84=EDGE_LOOP('',(#268,#269,#270,#271));
#85=EDGE_LOOP('',(#272,#273,#274,#275));
#86=EDGE_LOOP('',(#276,#277,#278,#279,#280,#281));
#87=EDGE_LOOP('',(#282));
#88=EDGE_LOOP('',(#283,#284,#285,#286));
#89=LINE('',#460,#111);
#90=LINE('',#462,#112);
#91=LINE('',#464,#113);
#92=LINE('',#465,#114);
#93=LINE('',#470,#115);
#94=LINE('',#474,#116);
#95=LINE('',#499,#117);
#96=LINE('',#521,#118);
#97=LINE('',#525,#119);
#98=LINE('',#526,#120);
#99=LINE('',#529,#121);
#100=LINE('',#540,#122);
#101=LINE('',#543,#123);
#102=LINE('',#548,#124);
#103=LINE('',#593,#125);
#104=LINE('',#595,#126);
#105=LINE('',#597,#127);
#106=LINE('',#600,#128);
#107=LINE('',#603,#129);
#108=LINE('',#606,#130);
#109=LINE('',#609,#131);
#110=LINE('',#611,#132);
#111=VECTOR('',#368,10.);
#112=VECTOR('',#369,10.);
#113=VECTOR('',#370,10.);
#114=VECTOR('',#371,10.);
#115=VECTOR('',#376,10.);
#116=VECTOR('',#379,10.);
#117=VECTOR('',#386,10.);
#118=VECTOR('',#391,10.);
#119=VECTOR('',#396,10.);
#120=VECTOR('',#397,10.);
#121=VECTOR('',#400,1.4);
#122=VECTOR('',#415,10.);
#123=VECTOR('',#418,10.);
#124=VECTOR('',#423,10.);
#125=VECTOR('',#430,10.);
#126=VECTOR('',#433,10.);
#127=VECTOR('',#436,10.);
#128=VECTOR('',#439,10.);
#129=VECTOR('',#442,10.);
#130=VECTOR('',#445,1.4);
#131=VECTOR('',#450,10.);
#132=VECTOR('',#453,10.);
#133=VERTEX_POINT('',#458);
#134=VERTEX_POINT('',#459);
#135=VERTEX_POINT('',#461);
#136=VERTEX_POINT('',#463);
#137=VERTEX_POINT('',#467);
#138=VERTEX_POINT('',#469);
#139=VERTEX_POINT('',#471);
#140=VERTEX_POINT('',#473);
#141=VERTEX_POINT('',#476);
#142=VERTEX_POINT('',#479);
#143=VERTEX_POINT('',#498);
#144=VERTEX_POINT('',#519);
#145=VERTEX_POINT('',#524);
#146=VERTEX_POINT('',#528);
#147=VERTEX_POINT('',#536);
#148=VERTEX_POINT('',#537);
#149=VERTEX_POINT('',#539);
#150=VERTEX_POINT('',#541);
#151=VERTEX_POINT('',#544);
#152=VERTEX_POINT('',#547);
#153=VERTEX_POINT('',#549);
#154=VERTEX_POINT('',#551);
#155=VERTEX_POINT('',#570);
#156=VERTEX_POINT('',#572);
#157=VERTEX_POINT('',#591);
#158=VERTEX_POINT('',#599);
#159=VERTEX_POINT('',#601);
#160=VERTEX_POINT('',#605);
#161=EDGE_CURVE('',#133,#134,#89,.T.);
#162=EDGE_CURVE('',#135,#133,#90,.T.);
#163=EDGE_CURVE('',#136,#135,#91,.T.);
#164=EDGE_CURVE('',#134,#136,#92,.T.);
#165=EDGE_CURVE('',#137,#133,#33,.T.);
#166=EDGE_CURVE('',#137,#138,#93,.T.);
#167=EDGE_CURVE('',#139,#138,#34,.T.);
#168=EDGE_CURVE('',#140,#139,#94,.T.);
#169=EDGE_CURVE('',#140,#135,#35,.T.);
#170=EDGE_CURVE('',#141,#141,#36,.T.);
#171=EDGE_CURVE('',#142,#137,#17,.T.);
#172=EDGE_CURVE('',#142,#143,#95,.T.);
#173=EDGE_CURVE('',#138,#143,#18,.T.);
#174=EDGE_CURVE('',#134,#144,#37,.T.);
#175=EDGE_CURVE('',#144,#139,#96,.T.);
#176=EDGE_CURVE('',#143,#142,#38,.T.);
#177=EDGE_CURVE('',#144,#145,#97,.T.);
#178=EDGE_CURVE('',#145,#140,#98,.T.);
#179=EDGE_CURVE('',#141,#146,#99,.T.);
#180=EDGE_CURVE('',#146,#146,#39,.T.);
#181=EDGE_CURVE('',#136,#145,#40,.T.);
#182=EDGE_CURVE('',#147,#148,#41,.T.);
#183=EDGE_CURVE('',#148,#149,#100,.T.);
#184=EDGE_CURVE('',#149,#150,#42,.T.);
#185=EDGE_CURVE('',#150,#147,#101,.T.);
#186=EDGE_CURVE('',#151,#151,#43,.T.);
#187=EDGE_CURVE('',#147,#152,#102,.T.);
#188=EDGE_CURVE('',#152,#153,#44,.T.);
#189=EDGE_CURVE('',#153,#154,#19,.T.);
#190=EDGE_CURVE('',#154,#155,#45,.T.);
#191=EDGE_CURVE('',#155,#156,#20,.T.);
#192=EDGE_CURVE('',#156,#157,#46,.T.);
#193=EDGE_CURVE('',#157,#148,#103,.T.);
#194=EDGE_CURVE('',#154,#155,#104,.T.);
#195=EDGE_CURVE('',#153,#156,#105,.T.);
#196=EDGE_CURVE('',#158,#149,#106,.T.);
#197=EDGE_CURVE('',#159,#158,#47,.T.);
#198=EDGE_CURVE('',#159,#150,#107,.T.);
#199=EDGE_CURVE('',#151,#160,#108,.T.);
#200=EDGE_CURVE('',#160,#160,#48,.T.);
#201=EDGE_CURVE('',#157,#158,#109,.T.);
#202=EDGE_CURVE('',#159,#152,#110,.T.);
#203=ORIENTED_EDGE('',*,*,#161,.F.);
#204=ORIENTED_EDGE('',*,*,#162,.F.);
#205=ORIENTED_EDGE('',*,*,#163,.F.);
#206=ORIENTED_EDGE('',*,*,#164,.F.);
#207=ORIENTED_EDGE('',*,*,#165,.F.);
#208=ORIENTED_EDGE('',*,*,#166,.T.);
#209=ORIENTED_EDGE('',*,*,#167,.F.);
#210=ORIENTED_EDGE('',*,*,#168,.F.);
#211=ORIENTED_EDGE('',*,*,#169,.T.);
#212=ORIENTED_EDGE('',*,*,#162,.T.);
#213=ORIENTED_EDGE('',*,*,#170,.T.);
#214=ORIENTED_EDGE('',*,*,#171,.F.);
#215=ORIENTED_EDGE('',*,*,#172,.T.);
#216=ORIENTED_EDGE('',*,*,#173,.F.);
#217=ORIENTED_EDGE('',*,*,#166,.F.);
#218=ORIENTED_EDGE('',*,*,#174,.T.);
#219=ORIENTED_EDGE('',*,*,#175,.T.);
#220=ORIENTED_EDGE('',*,*,#167,.T.);
#221=ORIENTED_EDGE('',*,*,#173,.T.);
#222=ORIENTED_EDGE('',*,*,#176,.T.);
#223=ORIENTED_EDGE('',*,*,#171,.T.);
#224=ORIENTED_EDGE('',*,*,#165,.T.);
#225=ORIENTED_EDGE('',*,*,#161,.T.);
#226=ORIENTED_EDGE('',*,*,#175,.F.);
#227=ORIENTED_EDGE('',*,*,#177,.T.);
#228=ORIENTED_EDGE('',*,*,#178,.T.);
#229=ORIENTED_EDGE('',*,*,#168,.T.);
#230=ORIENTED_EDGE('',*,*,#170,.F.);
#231=ORIENTED_EDGE('',*,*,#179,.T.);
#232=ORIENTED_EDGE('',*,*,#180,.F.);
#233=ORIENTED_EDGE('',*,*,#179,.F.);
#234=ORIENTED_EDGE('',*,*,#181,.F.);
#235=ORIENTED_EDGE('',*,*,#163,.T.);
#236=ORIENTED_EDGE('',*,*,#169,.F.);
#237=ORIENTED_EDGE('',*,*,#178,.F.);
#238=ORIENTED_EDGE('',*,*,#174,.F.);
#239=ORIENTED_EDGE('',*,*,#164,.T.);
#240=ORIENTED_EDGE('',*,*,#181,.T.);
#241=ORIENTED_EDGE('',*,*,#177,.F.);
#242=ORIENTED_EDGE('',*,*,#180,.T.);
#243=ORIENTED_EDGE('',*,*,#176,.F.);
#244=ORIENTED_EDGE('',*,*,#172,.F.);
#245=ORIENTED_EDGE('',*,*,#182,.T.);
#246=ORIENTED_EDGE('',*,*,#183,.T.);
#247=ORIENTED_EDGE('',*,*,#184,.T.);
#248=ORIENTED_EDGE('',*,*,#185,.T.);
#249=ORIENTED_EDGE('',*,*,#186,.T.);
#250=ORIENTED_EDGE('',*,*,#187,.T.);
#251=ORIENTED_EDGE('',*,*,#188,.T.);
#252=ORIENTED_EDGE('',*,*,#189,.T.);
#253=ORIENTED_EDGE('',*,*,#190,.T.);
#254=ORIENTED_EDGE('',*,*,#191,.T.);
#255=ORIENTED_EDGE('',*,*,#192,.T.);
#256=ORIENTED_EDGE('',*,*,#193,.T.);
#257=ORIENTED_EDGE('',*,*,#182,.F.);
#258=ORIENTED_EDGE('',*,*,#190,.F.);
#259=ORIENTED_EDGE('',*,*,#194,.T.);
#260=ORIENTED_EDGE('',*,*,#189,.F.);
#261=ORIENTED_EDGE('',*,*,#195,.T.);
#262=ORIENTED_EDGE('',*,*,#191,.F.);
#263=ORIENTED_EDGE('',*,*,#194,.F.);
#264=ORIENTED_EDGE('',*,*,#196,.F.);
#265=ORIENTED_EDGE('',*,*,#197,.F.);
#266=ORIENTED_EDGE('',*,*,#198,.T.);
#267=ORIENTED_EDGE('',*,*,#184,.F.);
#268=ORIENTED_EDGE('',*,*,#186,.F.);
#269=ORIENTED_EDGE('',*,*,#199,.T.);
#270=ORIENTED_EDGE('',*,*,#200,.F.);
#271=ORIENTED_EDGE('',*,*,#199,.F.);
#272=ORIENTED_EDGE('',*,*,#193,.F.);
#273=ORIENTED_EDGE('',*,*,#201,.T.);
#274=ORIENTED_EDGE('',*,*,#196,.T.);
#275=ORIENTED_EDGE('',*,*,#183,.F.);
#276=ORIENTED_EDGE('',*,*,#188,.F.);
#277=ORIENTED_EDGE('',*,*,#202,.F.);
#278=ORIENTED_EDGE('',*,*,#197,.T.);
#279=ORIENTED_EDGE('',*,*,#201,.F.);
#280=ORIENTED_EDGE('',*,*,#192,.F.);
#281=ORIENTED_EDGE('',*,*,#195,.F.);
#282=ORIENTED_EDGE('',*,*,#200,.T.);
#283=ORIENTED_EDGE('',*,*,#187,.F.);
#284=ORIENTED_EDGE('',*,*,#185,.F.);
#285=ORIENTED_EDGE('',*,*,#198,.F.);
#286=ORIENTED_EDGE('',*,*,#202,.T.);
#287=PLANE('',#330);
#288=PLANE('',#331);
#289=PLANE('',#340);
#290=PLANE('',#345);
#291=PLANE('',#346);
#292=PLANE('',#347);
#293=PLANE('',#355);
#294=PLANE('',#361);
#295=PLANE('',#362);
#296=PLANE('',#363);
#297=ADVANCED_FACE('',(#49),#287,.F.);
#298=ADVANCED_FACE('',(#50,#29),#288,.T.);
#299=ADVANCED_FACE('',(#51),#21,.F.);
#300=ADVANCED_FACE('',(#52),#22,.T.);
#301=ADVANCED_FACE('',(#53),#289,.T.);
#302=ADVANCED_FACE('',(#54),#23,.F.);
#303=ADVANCED_FACE('',(#55),#24,.T.);
#304=ADVANCED_FACE('',(#56,#30),#290,.T.);
#305=ADVANCED_FACE('',(#57),#291,.T.);
#306=ADVANCED_FACE('',(#58,#31),#292,.T.);
#307=ADVANCED_FACE('',(#59),#25,.T.);
#308=ADVANCED_FACE('',(#60),#293,.T.);
#309=ADVANCED_FACE('',(#61),#26,.F.);
#310=ADVANCED_FACE('',(#62),#27,.T.);
#311=ADVANCED_FACE('',(#63),#28,.F.);
#312=ADVANCED_FACE('',(#64),#294,.T.);
#313=ADVANCED_FACE('',(#65,#32),#295,.T.);
#314=ADVANCED_FACE('',(#66),#296,.F.);
#315=CLOSED_SHELL('',(#297,#298,#299,#300,#301,#302,#303,#304,#305));
#316=CLOSED_SHELL('',(#306,#307,#308,#309,#310,#311,#312,#313,#314));
#317=DERIVED_UNIT_ELEMENT(#319,1.);
#318=DERIVED_UNIT_ELEMENT(#618,-3.);
#319=(
MASS_UNIT()
NAMED_UNIT(*)
SI_UNIT(.KILO.,.GRAM.)
);
#320=DERIVED_UNIT((#317,#318));
#321=MEASURE_REPRESENTATION_ITEM('density measure',
POSITIVE_RATIO_MEASURE(7850.),#320);
#322=PROPERTY_DEFINITION_REPRESENTATION(#327,#324);
#323=PROPERTY_DEFINITION_REPRESENTATION(#328,#325);
#324=REPRESENTATION('material name',(#326),#615);
#325=REPRESENTATION('density',(#321),#615);
#326=DESCRIPTIVE_REPRESENTATION_ITEM('Steel','Steel');
#327=PROPERTY_DEFINITION('material property','material name',#625);
#328=PROPERTY_DEFINITION('material property','density of part',#625);
#329=AXIS2_PLACEMENT_3D('',#456,#364,#365);
#330=AXIS2_PLACEMENT_3D('',#457,#366,#367);
#331=AXIS2_PLACEMENT_3D('',#466,#372,#373);
#332=AXIS2_PLACEMENT_3D('',#468,#374,#375);
#333=AXIS2_PLACEMENT_3D('',#472,#377,#378);
#334=AXIS2_PLACEMENT_3D('',#475,#380,#381);
#335=AXIS2_PLACEMENT_3D('',#477,#382,#383);
#336=AXIS2_PLACEMENT_3D('',#478,#384,#385);
#337=AXIS2_PLACEMENT_3D('',#518,#387,#388);
#338=AXIS2_PLACEMENT_3D('',#520,#389,#390);
#339=AXIS2_PLACEMENT_3D('',#522,#392,#393);
#340=AXIS2_PLACEMENT_3D('',#523,#394,#395);
#341=AXIS2_PLACEMENT_3D('',#527,#398,#399);
#342=AXIS2_PLACEMENT_3D('',#530,#401,#402);
#343=AXIS2_PLACEMENT_3D('',#531,#403,#404);
#344=AXIS2_PLACEMENT_3D('',#532,#405,#406);
#345=AXIS2_PLACEMENT_3D('',#533,#407,#408);
#346=AXIS2_PLACEMENT_3D('',#534,#409,#410);
#347=AXIS2_PLACEMENT_3D('',#535,#411,#412);
#348=AXIS2_PLACEMENT_3D('',#538,#413,#414);
#349=AXIS2_PLACEMENT_3D('',#542,#416,#417);
#350=AXIS2_PLACEMENT_3D('',#545,#419,#420);
#351=AXIS2_PLACEMENT_3D('',#546,#421,#422);
#352=AXIS2_PLACEMENT_3D('',#550,#424,#425);
#353=AXIS2_PLACEMENT_3D('',#571,#426,#427);
#354=AXIS2_PLACEMENT_3D('',#592,#428,#429);
#355=AXIS2_PLACEMENT_3D('',#594,#431,#432);
#356=AXIS2_PLACEMENT_3D('',#596,#434,#435);
#357=AXIS2_PLACEMENT_3D('',#598,#437,#438);
#358=AXIS2_PLACEMENT_3D('',#602,#440,#441);
#359=AXIS2_PLACEMENT_3D('',#604,#443,#444);
#360=AXIS2_PLACEMENT_3D('',#607,#446,#447);
#361=AXIS2_PLACEMENT_3D('',#608,#448,#449);
#362=AXIS2_PLACEMENT_3D('',#610,#451,#452);
#363=AXIS2_PLACEMENT_3D('',#612,#454,#455);
#364=DIRECTION('axis',(0.,0.,1.));
#365=DIRECTION('refdir',(1.,0.,0.));
#366=DIRECTION('center_axis',(0.,0.,1.));
#367=DIRECTION('ref_axis',(1.,0.,0.));
#368=DIRECTION('',(0.,1.,0.));
#369=DIRECTION('',(1.,0.,0.));
#370=DIRECTION('',(0.,-1.,0.));
#371=DIRECTION('',(-1.,0.,0.));
#372=DIRECTION('center_axis',(0.,-1.,0.));
#373=DIRECTION('ref_axis',(1.,0.,0.));
#374=DIRECTION('center_axis',(0.,1.,0.));
#375=DIRECTION('ref_axis',(0.707106781186547,0.,-0.707106781186547));
#376=DIRECTION('',(0.,0.,1.));
#377=DIRECTION('center_axis',(0.,1.,0.));
#378=DIRECTION('ref_axis',(0.707106781186547,0.,0.707106781186547));
#379=DIRECTION('',(1.,0.,0.));
#380=DIRECTION('center_axis',(0.,-1.,0.));
#381=DIRECTION('ref_axis',(1.,0.,0.));
#382=DIRECTION('center_axis',(0.,1.,0.));
#383=DIRECTION('ref_axis',(1.,0.,0.));
#384=DIRECTION('center_axis',(0.,0.,1.));
#385=DIRECTION('ref_axis',(1.,0.,0.));
#386=DIRECTION('',(0.,0.,1.));
#387=DIRECTION('center_axis',(0.,1.,0.));
#388=DIRECTION('ref_axis',(0.707106781186547,0.,0.707106781186547));
#389=DIRECTION('center_axis',(0.,-1.,0.));
#390=DIRECTION('ref_axis',(0.707106781186547,0.,0.707106781186547));
#391=DIRECTION('',(0.,-1.,0.));
#392=DIRECTION('center_axis',(0.,1.,0.));
#393=DIRECTION('ref_axis',(0.707106781186547,0.,-0.707106781186547));
#394=DIRECTION('center_axis',(0.,0.,1.));
#395=DIRECTION('ref_axis',(1.,0.,0.));
#396=DIRECTION('',(-1.,0.,0.));
#397=DIRECTION('',(0.,-1.,0.));
#398=DIRECTION('center_axis',(0.,1.,0.));
#399=DIRECTION('ref_axis',(1.,0.,0.));
#400=DIRECTION('',(0.,1.,0.));
#401=DIRECTION('center_axis',(0.,-1.,0.));
#402=DIRECTION('ref_axis',(1.,0.,0.));
#403=DIRECTION('center_axis',(0.,1.,0.));
#404=DIRECTION('ref_axis',(-1.,0.,-1.22464679914735E-16));
#405=DIRECTION('center_axis',(0.,1.,0.));
#406=DIRECTION('ref_axis',(1.,0.,0.));
#407=DIRECTION('center_axis',(0.,1.,0.));
#408=DIRECTION('ref_axis',(-1.,0.,0.));
#409=DIRECTION('center_axis',(0.,-1.,0.));
#410=DIRECTION('ref_axis',(1.,0.,0.));
#411=DIRECTION('center_axis',(0.,-1.,0.));
#412=DIRECTION('ref_axis',(1.,0.,0.));
#413=DIRECTION('center_axis',(0.,-1.,0.));
#414=DIRECTION('ref_axis',(0.707106781186547,0.,0.707106781186547));
#415=DIRECTION('',(-1.,0.,0.));
#416=DIRECTION('center_axis',(0.,-1.,0.));
#417=DIRECTION('ref_axis',(1.,0.,0.));
#418=DIRECTION('',(1.,0.,0.));
#419=DIRECTION('center_axis',(0.,1.,0.));
#420=DIRECTION('ref_axis',(1.,0.,0.));
#421=DIRECTION('center_axis',(0.,1.,0.));
#422=DIRECTION('ref_axis',(0.707106781186547,0.,0.707106781186547));
#423=DIRECTION('',(0.,1.,0.));
#424=DIRECTION('center_axis',(0.,-1.,0.));
#425=DIRECTION('ref_axis',(0.707106781186547,0.,-0.707106781186547));
#426=DIRECTION('center_axis',(0.,-1.,0.));
#427=DIRECTION('ref_axis',(0.707106781186547,0.,0.707106781186547));
#428=DIRECTION('center_axis',(0.,-1.,0.));
#429=DIRECTION('ref_axis',(0.707106781186547,0.,0.707106781186547));
#430=DIRECTION('',(0.,-1.,0.));
#431=DIRECTION('center_axis',(0.,1.,0.));
#432=DIRECTION('ref_axis',(-1.,0.,0.));
#433=DIRECTION('',(0.,0.,1.));
#434=DIRECTION('center_axis',(0.,0.,1.));
#435=DIRECTION('ref_axis',(1.,0.,0.));
#436=DIRECTION('',(0.,0.,1.));
#437=DIRECTION('center_axis',(0.,1.,0.));
#438=DIRECTION('ref_axis',(-1.,0.,1.22464679914735E-16));
#439=DIRECTION('',(0.,-1.,0.));
#440=DIRECTION('center_axis',(0.,1.,0.));
#441=DIRECTION('ref_axis',(1.,0.,0.));
#442=DIRECTION('',(0.,-1.,0.));
#443=DIRECTION('center_axis',(0.,1.,0.));
#444=DIRECTION('ref_axis',(1.,0.,0.));
#445=DIRECTION('',(0.,1.,0.));
#446=DIRECTION('center_axis',(0.,-1.,0.));
#447=DIRECTION('ref_axis',(1.,0.,0.));
#448=DIRECTION('center_axis',(0.,0.,1.));
#449=DIRECTION('ref_axis',(1.,0.,0.));
#450=DIRECTION('',(-1.,0.,0.));
#451=DIRECTION('center_axis',(0.,1.,0.));
#452=DIRECTION('ref_axis',(-1.,0.,0.));
#453=DIRECTION('',(1.,0.,0.));
#454=DIRECTION('center_axis',(0.,0.,1.));
#455=DIRECTION('ref_axis',(1.,0.,0.));
#456=CARTESIAN_POINT('',(0.,0.,0.));
#457=CARTESIAN_POINT('Origin',(-3.5,1.5,0.));
#458=CARTESIAN_POINT('',(-2.,0.,0.));
#459=CARTESIAN_POINT('',(-2.,3.,0.));
#460=CARTESIAN_POINT('',(-2.,0.75,0.));
#461=CARTESIAN_POINT('',(-3.5,0.,0.));
#462=CARTESIAN_POINT('',(-10.,0.,0.));
#463=CARTESIAN_POINT('',(-3.5,3.,0.));
#464=CARTESIAN_POINT('',(-3.5,-3.,0.));
#465=CARTESIAN_POINT('',(3.,3.,0.));
#466=CARTESIAN_POINT('Origin',(-10.,0.,0.));
#467=CARTESIAN_POINT('',(-1.,0.,0.101020514433645));
#468=CARTESIAN_POINT('Origin',(-2.,0.,5.));
#469=CARTESIAN_POINT('',(-1.,0.,9.89897948556635));
#470=CARTESIAN_POINT('',(-1.,0.,0.));
#471=CARTESIAN_POINT('',(-2.,0.,10.));
#472=CARTESIAN_POINT('Origin',(-2.,0.,5.));
#473=CARTESIAN_POINT('',(-3.5,0.,10.));
#474=CARTESIAN_POINT('',(-10.,0.,10.));
#475=CARTESIAN_POINT('Origin',(-3.5,0.,5.));
#476=CARTESIAN_POINT('',(-4.9,0.,5.));
#477=CARTESIAN_POINT('Origin',(-3.5,0.,5.));
#478=CARTESIAN_POINT('Origin',(0.,0.,0.));
#479=CARTESIAN_POINT('',(1.,0.,1.));
#480=CARTESIAN_POINT('Ctrl Pts',(1.,1.38777878078145E-16,1.));
#481=CARTESIAN_POINT('Ctrl Pts',(1.,0.126525813540455,1.));
#482=CARTESIAN_POINT('Ctrl Pts',(0.974530089962537,0.25860644265603,0.980575669300279));
#483=CARTESIAN_POINT('Ctrl Pts',(0.877205984377603,0.497087616463334,0.910343931772336));
#484=CARTESIAN_POINT('Ctrl Pts',(0.805505482940779,0.603739685413623,0.86017940672361));
#485=CARTESIAN_POINT('Ctrl Pts',(0.635764520434594,0.782980240053844,0.749781864287928));
#486=CARTESIAN_POINT('Ctrl Pts',(0.521798028484766,0.864021014856581,0.680148194036402));
#487=CARTESIAN_POINT('Ctrl Pts',(0.269937136642919,0.972594194788665,0.542649853901723));
#488=CARTESIAN_POINT('Ctrl Pts',(0.131880881302,1.,0.474981840404532));
#489=CARTESIAN_POINT('Ctrl Pts',(-0.122172008091763,1.,0.364104069340802));
#490=CARTESIAN_POINT('Ctrl Pts',(-0.255551884421229,0.976159862361957,0.312325872104996));
#491=CARTESIAN_POINT('Ctrl Pts',(-0.505057881085322,0.873562491024113,0.226894513684109));
#492=CARTESIAN_POINT('Ctrl Pts',(-0.621033508037923,0.794661723662363,0.192974539288798));
#493=CARTESIAN_POINT('Ctrl Pts',(-0.799054054358091,0.613677235427043,0.145551077276221));
#494=CARTESIAN_POINT('Ctrl Pts',(-0.874630709840507,0.502468397247916,0.128019871760951));
#495=CARTESIAN_POINT('Ctrl Pts',(-0.975110005040263,0.258096713516732,0.105896726651756));
#496=CARTESIAN_POINT('Ctrl Pts',(-1.,0.124954487445218,0.101020514433644));
#497=CARTESIAN_POINT('Ctrl Pts',(-1.,6.93889390390723E-17,0.101020514433644));
#498=CARTESIAN_POINT('',(1.,0.,9.));
#499=CARTESIAN_POINT('',(1.,0.,0.));
#500=CARTESIAN_POINT('Ctrl Pts',(-1.,0.,9.89897948556636));
#501=CARTESIAN_POINT('Ctrl Pts',(-1.,0.124954487445218,9.89897948556636));
#502=CARTESIAN_POINT('Ctrl Pts',(-0.975110005040263,0.258096713516732,9.89410327334824));
#503=CARTESIAN_POINT('Ctrl Pts',(-0.874630709840507,0.502468397247916,9.87198012823905));
#504=CARTESIAN_POINT('Ctrl Pts',(-0.799054054358092,0.613677235427043,9.85444892272378));
#505=CARTESIAN_POINT('Ctrl Pts',(-0.621033508037924,0.794661723662362,9.8070254607112));
#506=CARTESIAN_POINT('Ctrl Pts',(-0.505057881085323,0.873562491024113,9.77310548631589));
#507=CARTESIAN_POINT('Ctrl Pts',(-0.255551884421229,0.976159862361957,9.687674127895));
#508=CARTESIAN_POINT('Ctrl Pts',(-0.122172008091764,1.,9.6358959306592));
#509=CARTESIAN_POINT('Ctrl Pts',(0.131880881302,1.,9.52501815959547));
#510=CARTESIAN_POINT('Ctrl Pts',(0.269937136642919,0.972594194788665,9.45735014609827));
#511=CARTESIAN_POINT('Ctrl Pts',(0.521798028484766,0.86402101485658,9.3198518059636));
#512=CARTESIAN_POINT('Ctrl Pts',(0.635764520434594,0.782980240053844,9.25021813571207));
#513=CARTESIAN_POINT('Ctrl Pts',(0.80550548294078,0.603739685413623,9.13982059327639));
#514=CARTESIAN_POINT('Ctrl Pts',(0.877205984377603,0.497087616463333,9.08965606822766));
#515=CARTESIAN_POINT('Ctrl Pts',(0.974530089962538,0.25860644265603,9.01942433069972));
#516=CARTESIAN_POINT('Ctrl Pts',(1.,0.126525813540455,9.));
#517=CARTESIAN_POINT('Ctrl Pts',(1.,1.73472347597681E-17,9.));
#518=CARTESIAN_POINT('Origin',(-2.,0.75,5.));
#519=CARTESIAN_POINT('',(-2.,3.,10.));
#520=CARTESIAN_POINT('Origin',(-2.,3.,5.));
#521=CARTESIAN_POINT('',(-2.,0.75,10.));
#522=CARTESIAN_POINT('Origin',(-2.,0.,5.));
#523=CARTESIAN_POINT('Origin',(-3.5,1.5,10.));
#524=CARTESIAN_POINT('',(-3.5,3.,10.));
#525=CARTESIAN_POINT('',(3.,3.,10.));
#526=CARTESIAN_POINT('',(-3.5,-3.,10.));
#527=CARTESIAN_POINT('Origin',(-3.5,-3.,5.));
#528=CARTESIAN_POINT('',(-4.9,3.,5.));
#529=CARTESIAN_POINT('',(-4.9,-3.,5.));
#530=CARTESIAN_POINT('Origin',(-3.5,3.,5.));
#531=CARTESIAN_POINT('Origin',(-3.5,-3.,5.));
#532=CARTESIAN_POINT('Origin',(-3.5,3.,5.));
#533=CARTESIAN_POINT('Origin',(3.,3.,0.));
#534=CARTESIAN_POINT('Origin',(1.,0.,0.));
#535=CARTESIAN_POINT('Origin',(-3.5,-5.,5.));
#536=CARTESIAN_POINT('',(-2.,-5.,0.));
#537=CARTESIAN_POINT('',(-2.,-5.,10.));
#538=CARTESIAN_POINT('Origin',(-2.,-5.,5.));
#539=CARTESIAN_POINT('',(-3.5,-5.,10.));
#540=CARTESIAN_POINT('',(-3.5,-5.,10.));
#541=CARTESIAN_POINT('',(-3.5,-5.,0.));
#542=CARTESIAN_POINT('Origin',(-3.5,-5.,5.));
#543=CARTESIAN_POINT('',(-3.5,-5.,0.));
#544=CARTESIAN_POINT('',(-5.3,-5.,5.));
#545=CARTESIAN_POINT('Origin',(-3.5,-5.,5.));
#546=CARTESIAN_POINT('Origin',(-2.,-2.25,5.));
#547=CARTESIAN_POINT('',(-2.,0.,0.));
#548=CARTESIAN_POINT('',(-2.,-2.25,0.));
#549=CARTESIAN_POINT('',(-1.,0.,0.101020514433645));
#550=CARTESIAN_POINT('Origin',(-2.,0.,5.));
#551=CARTESIAN_POINT('',(1.,0.,1.));
#552=CARTESIAN_POINT('Ctrl Pts',(-1.,3.46944695195361E-17,0.101020514433644));
#553=CARTESIAN_POINT('Ctrl Pts',(-1.,-0.124954487445218,0.101020514433644));
#554=CARTESIAN_POINT('Ctrl Pts',(-0.975110005040263,-0.258096713516732,
0.105896726651756));
#555=CARTESIAN_POINT('Ctrl Pts',(-0.874630709840507,-0.502468397247916,
0.128019871760951));
#556=CARTESIAN_POINT('Ctrl Pts',(-0.799054054358091,-0.613677235427043,
0.14555107727622));
#557=CARTESIAN_POINT('Ctrl Pts',(-0.621033508037924,-0.794661723662362,
0.192974539288798));
#558=CARTESIAN_POINT('Ctrl Pts',(-0.505057881085323,-0.873562491024112,
0.226894513684108));
#559=CARTESIAN_POINT('Ctrl Pts',(-0.255551884421229,-0.976159862361956,
0.312325872104995));
#560=CARTESIAN_POINT('Ctrl Pts',(-0.122172008091764,-1.,0.364104069340802));
#561=CARTESIAN_POINT('Ctrl Pts',(0.131880881302,-1.,0.474981840404532));
#562=CARTESIAN_POINT('Ctrl Pts',(0.269937136642919,-0.972594194788665,0.542649853901724));
#563=CARTESIAN_POINT('Ctrl Pts',(0.521798028484766,-0.86402101485658,0.680148194036404));
#564=CARTESIAN_POINT('Ctrl Pts',(0.635764520434595,-0.782980240053843,0.749781864287929));
#565=CARTESIAN_POINT('Ctrl Pts',(0.80550548294078,-0.603739685413622,0.860179406723611));
#566=CARTESIAN_POINT('Ctrl Pts',(0.877205984377603,-0.497087616463333,0.910343931772336));
#567=CARTESIAN_POINT('Ctrl Pts',(0.974530089962537,-0.25860644265603,0.980575669300279));
#568=CARTESIAN_POINT('Ctrl Pts',(1.,-0.126525813540454,1.));
#569=CARTESIAN_POINT('Ctrl Pts',(1.,0.,1.));
#570=CARTESIAN_POINT('',(1.,0.,9.));
#571=CARTESIAN_POINT('Origin',(-2.,0.,5.));
#572=CARTESIAN_POINT('',(-1.,0.,9.89897948556635));
#573=CARTESIAN_POINT('Ctrl Pts',(1.,3.46944695195361E-17,9.));
#574=CARTESIAN_POINT('Ctrl Pts',(1.,-0.126525813540454,9.));
#575=CARTESIAN_POINT('Ctrl Pts',(0.974530089962537,-0.25860644265603,9.01942433069972));
#576=CARTESIAN_POINT('Ctrl Pts',(0.877205984377603,-0.497087616463333,9.08965606822767));
#577=CARTESIAN_POINT('Ctrl Pts',(0.80550548294078,-0.603739685413622,9.13982059327639));
#578=CARTESIAN_POINT('Ctrl Pts',(0.635764520434595,-0.782980240053843,9.25021813571207));
#579=CARTESIAN_POINT('Ctrl Pts',(0.521798028484767,-0.86402101485658,9.3198518059636));
#580=CARTESIAN_POINT('Ctrl Pts',(0.26993713664292,-0.972594194788665,9.45735014609828));
#581=CARTESIAN_POINT('Ctrl Pts',(0.131880881302,-1.,9.52501815959547));
#582=CARTESIAN_POINT('Ctrl Pts',(-0.122172008091764,-1.,9.6358959306592));
#583=CARTESIAN_POINT('Ctrl Pts',(-0.255551884421229,-0.976159862361957,
9.687674127895));
#584=CARTESIAN_POINT('Ctrl Pts',(-0.505057881085323,-0.873562491024113,
9.77310548631589));
#585=CARTESIAN_POINT('Ctrl Pts',(-0.621033508037924,-0.794661723662362,
9.8070254607112));
#586=CARTESIAN_POINT('Ctrl Pts',(-0.799054054358091,-0.613677235427043,
9.85444892272378));
#587=CARTESIAN_POINT('Ctrl Pts',(-0.874630709840507,-0.502468397247916,
9.87198012823905));
#588=CARTESIAN_POINT('Ctrl Pts',(-0.975110005040263,-0.258096713516732,
9.89410327334824));
#589=CARTESIAN_POINT('Ctrl Pts',(-1.,-0.124954487445218,9.89897948556636));
#590=CARTESIAN_POINT('Ctrl Pts',(-1.,-3.46944695195361E-17,9.89897948556636));
#591=CARTESIAN_POINT('',(-2.,0.,10.));
#592=CARTESIAN_POINT('Origin',(-2.,0.,5.));
#593=CARTESIAN_POINT('',(-2.,-2.25,10.));
#594=CARTESIAN_POINT('Origin',(3.,0.,0.));
#595=CARTESIAN_POINT('',(1.,0.,0.));
#596=CARTESIAN_POINT('Origin',(0.,0.,0.));
#597=CARTESIAN_POINT('',(-1.,0.,0.));
#598=CARTESIAN_POINT('Origin',(-3.5,-3.,5.));
#599=CARTESIAN_POINT('',(-3.5,0.,10.));
#600=CARTESIAN_POINT('',(-3.5,-2.,10.));
#601=CARTESIAN_POINT('',(-3.5,0.,0.));
#602=CARTESIAN_POINT('Origin',(-3.5,0.,5.));
#603=CARTESIAN_POINT('',(-3.5,-3.,0.));
#604=CARTESIAN_POINT('Origin',(-3.5,-3.,5.));
#605=CARTESIAN_POINT('',(-5.3,0.,5.));
#606=CARTESIAN_POINT('',(-5.3,-3.,5.));
#607=CARTESIAN_POINT('Origin',(-3.5,0.,5.));
#608=CARTESIAN_POINT('Origin',(-3.5,-1.5,10.));
#609=CARTESIAN_POINT('',(-10.,0.,10.));
#610=CARTESIAN_POINT('Origin',(-1.,0.,0.));
#611=CARTESIAN_POINT('',(-10.,0.,0.));
#612=CARTESIAN_POINT('Origin',(-3.5,-1.5,0.));
#613=UNCERTAINTY_MEASURE_WITH_UNIT(LENGTH_MEASURE(0.01),#617,
'DISTANCE_ACCURACY_VALUE',
'Maximum model space distance between geometric entities at asserted c
onnectivities');
#614=UNCERTAINTY_MEASURE_WITH_UNIT(LENGTH_MEASURE(0.01),#617,
'DISTANCE_ACCURACY_VALUE',
'Maximum model space distance between geometric entities at asserted c
onnectivities');
#615=(
GEOMETRIC_REPRESENTATION_CONTEXT(3)
GLOBAL_UNCERTAINTY_ASSIGNED_CONTEXT((#613))
GLOBAL_UNIT_ASSIGNED_CONTEXT((#617,#619,#620))
REPRESENTATION_CONTEXT('','3D')
);
#616=(
GEOMETRIC_REPRESENTATION_CONTEXT(3)
GLOBAL_UNCERTAINTY_ASSIGNED_CONTEXT((#614))
GLOBAL_UNIT_ASSIGNED_CONTEXT((#617,#619,#620))
REPRESENTATION_CONTEXT('','3D')
);
#617=(
LENGTH_UNIT()
NAMED_UNIT(*)
SI_UNIT(.MILLI.,.METRE.)
);
#618=(
LENGTH_UNIT()
NAMED_UNIT(*)
SI_UNIT($,.METRE.)
);
#619=(
NAMED_UNIT(*)
PLANE_ANGLE_UNIT()
SI_UNIT($,.RADIAN.)
);
#620=(
NAMED_UNIT(*)
SI_UNIT($,.STERADIAN.)
SOLID_ANGLE_UNIT()
);
#621=SHAPE_DEFINITION_REPRESENTATION(#622,#623);
#622=PRODUCT_DEFINITION_SHAPE('',$,#625);
#623=SHAPE_REPRESENTATION('',(#329),#615);
#624=PRODUCT_DEFINITION_CONTEXT('part definition',#629,'design');
#625=PRODUCT_DEFINITION('2026-08-16-12-43-42-450','magnet holder',#626,
#624);
#626=PRODUCT_DEFINITION_FORMATION('',$,#631);
#627=PRODUCT_RELATED_PRODUCT_CATEGORY('magnet holder','magnet holder',(#631));
#628=APPLICATION_PROTOCOL_DEFINITION('international standard',
'automotive_design',2009,#629);
#629=APPLICATION_CONTEXT(
'Core Data for Automotive Mechanical Design Process');
#630=PRODUCT_CONTEXT('part definition',#629,'mechanical');
#631=PRODUCT('2026-08-16-12-43-42-450','magnet holder',$,(#630));
#632=PRESENTATION_STYLE_ASSIGNMENT((#633));
#633=SURFACE_STYLE_USAGE(.BOTH.,#634);
#634=SURFACE_SIDE_STYLE('',(#635));
#635=SURFACE_STYLE_FILL_AREA(#636);
#636=FILL_AREA_STYLE('Steel - Satin',(#637));
#637=FILL_AREA_STYLE_COLOUR('Steel - Satin',#638);
#638=COLOUR_RGB('Steel - Satin',0.627450980392157,0.627450980392157,0.627450980392157);
ENDSEC;
END-ISO-10303-21;
